G04 #@! TF.GenerationSoftware,KiCad,Pcbnew,(5.1.7)-1*
G04 #@! TF.CreationDate,2020-11-15T22:52:21-06:00*
G04 #@! TF.ProjectId,snesdecoder,736e6573-6465-4636-9f64-65722e6b6963,v01*
G04 #@! TF.SameCoordinates,Original*
G04 #@! TF.FileFunction,Soldermask,Bot*
G04 #@! TF.FilePolarity,Negative*
%FSLAX46Y46*%
G04 Gerber Fmt 4.6, Leading zero omitted, Abs format (unit mm)*
G04 Created by KiCad (PCBNEW (5.1.7)-1) date 2020-11-15 22:52:21*
%MOMM*%
%LPD*%
G01*
G04 APERTURE LIST*
G04 APERTURE END LIST*
G36*
G01*
X162049200Y-80778715D02*
X162049200Y-79821285D01*
G75*
G02*
X162321285Y-79549200I272085J0D01*
G01*
X163028715Y-79549200D01*
G75*
G02*
X163300800Y-79821285I0J-272085D01*
G01*
X163300800Y-80778715D01*
G75*
G02*
X163028715Y-81050800I-272085J0D01*
G01*
X162321285Y-81050800D01*
G75*
G02*
X162049200Y-80778715I0J272085D01*
G01*
G37*
G36*
G01*
X164099200Y-80778715D02*
X164099200Y-79821285D01*
G75*
G02*
X164371285Y-79549200I272085J0D01*
G01*
X165078715Y-79549200D01*
G75*
G02*
X165350800Y-79821285I0J-272085D01*
G01*
X165350800Y-80778715D01*
G75*
G02*
X165078715Y-81050800I-272085J0D01*
G01*
X164371285Y-81050800D01*
G75*
G02*
X164099200Y-80778715I0J272085D01*
G01*
G37*
G36*
G01*
X167102715Y-81025800D02*
X166145285Y-81025800D01*
G75*
G02*
X165873200Y-80753715I0J272085D01*
G01*
X165873200Y-80046285D01*
G75*
G02*
X166145285Y-79774200I272085J0D01*
G01*
X167102715Y-79774200D01*
G75*
G02*
X167374800Y-80046285I0J-272085D01*
G01*
X167374800Y-80753715D01*
G75*
G02*
X167102715Y-81025800I-272085J0D01*
G01*
G37*
G36*
G01*
X167102715Y-78975800D02*
X166145285Y-78975800D01*
G75*
G02*
X165873200Y-78703715I0J272085D01*
G01*
X165873200Y-77996285D01*
G75*
G02*
X166145285Y-77724200I272085J0D01*
G01*
X167102715Y-77724200D01*
G75*
G02*
X167374800Y-77996285I0J-272085D01*
G01*
X167374800Y-78703715D01*
G75*
G02*
X167102715Y-78975800I-272085J0D01*
G01*
G37*
G36*
G01*
X157646000Y-81943200D02*
X158046000Y-81943200D01*
G75*
G02*
X158096800Y-81994000I0J-50800D01*
G01*
X158096800Y-83494000D01*
G75*
G02*
X158046000Y-83544800I-50800J0D01*
G01*
X157646000Y-83544800D01*
G75*
G02*
X157595200Y-83494000I0J50800D01*
G01*
X157595200Y-81994000D01*
G75*
G02*
X157646000Y-81943200I50800J0D01*
G01*
G37*
G36*
G01*
X158296000Y-81943200D02*
X158696000Y-81943200D01*
G75*
G02*
X158746800Y-81994000I0J-50800D01*
G01*
X158746800Y-83494000D01*
G75*
G02*
X158696000Y-83544800I-50800J0D01*
G01*
X158296000Y-83544800D01*
G75*
G02*
X158245200Y-83494000I0J50800D01*
G01*
X158245200Y-81994000D01*
G75*
G02*
X158296000Y-81943200I50800J0D01*
G01*
G37*
G36*
G01*
X158946000Y-81943200D02*
X159346000Y-81943200D01*
G75*
G02*
X159396800Y-81994000I0J-50800D01*
G01*
X159396800Y-83494000D01*
G75*
G02*
X159346000Y-83544800I-50800J0D01*
G01*
X158946000Y-83544800D01*
G75*
G02*
X158895200Y-83494000I0J50800D01*
G01*
X158895200Y-81994000D01*
G75*
G02*
X158946000Y-81943200I50800J0D01*
G01*
G37*
G36*
G01*
X158946000Y-84603200D02*
X159346000Y-84603200D01*
G75*
G02*
X159396800Y-84654000I0J-50800D01*
G01*
X159396800Y-86154000D01*
G75*
G02*
X159346000Y-86204800I-50800J0D01*
G01*
X158946000Y-86204800D01*
G75*
G02*
X158895200Y-86154000I0J50800D01*
G01*
X158895200Y-84654000D01*
G75*
G02*
X158946000Y-84603200I50800J0D01*
G01*
G37*
G36*
G01*
X157646000Y-84603200D02*
X158046000Y-84603200D01*
G75*
G02*
X158096800Y-84654000I0J-50800D01*
G01*
X158096800Y-86154000D01*
G75*
G02*
X158046000Y-86204800I-50800J0D01*
G01*
X157646000Y-86204800D01*
G75*
G02*
X157595200Y-86154000I0J50800D01*
G01*
X157595200Y-84654000D01*
G75*
G02*
X157646000Y-84603200I50800J0D01*
G01*
G37*
G36*
G01*
X160521285Y-83575200D02*
X161478715Y-83575200D01*
G75*
G02*
X161750800Y-83847285I0J-272085D01*
G01*
X161750800Y-84554715D01*
G75*
G02*
X161478715Y-84826800I-272085J0D01*
G01*
X160521285Y-84826800D01*
G75*
G02*
X160249200Y-84554715I0J272085D01*
G01*
X160249200Y-83847285D01*
G75*
G02*
X160521285Y-83575200I272085J0D01*
G01*
G37*
G36*
G01*
X160521285Y-85625200D02*
X161478715Y-85625200D01*
G75*
G02*
X161750800Y-85897285I0J-272085D01*
G01*
X161750800Y-86604715D01*
G75*
G02*
X161478715Y-86876800I-272085J0D01*
G01*
X160521285Y-86876800D01*
G75*
G02*
X160249200Y-86604715I0J272085D01*
G01*
X160249200Y-85897285D01*
G75*
G02*
X160521285Y-85625200I272085J0D01*
G01*
G37*
G36*
G01*
X156451400Y-85243300D02*
X156200600Y-85243300D01*
G75*
G02*
X156075200Y-85117900I0J125400D01*
G01*
X156075200Y-83792100D01*
G75*
G02*
X156200600Y-83666700I125400J0D01*
G01*
X156451400Y-83666700D01*
G75*
G02*
X156576800Y-83792100I0J-125400D01*
G01*
X156576800Y-85117900D01*
G75*
G02*
X156451400Y-85243300I-125400J0D01*
G01*
G37*
G36*
G01*
X155801400Y-85243300D02*
X155550600Y-85243300D01*
G75*
G02*
X155425200Y-85117900I0J125400D01*
G01*
X155425200Y-83792100D01*
G75*
G02*
X155550600Y-83666700I125400J0D01*
G01*
X155801400Y-83666700D01*
G75*
G02*
X155926800Y-83792100I0J-125400D01*
G01*
X155926800Y-85117900D01*
G75*
G02*
X155801400Y-85243300I-125400J0D01*
G01*
G37*
G36*
G01*
X155151400Y-85243300D02*
X154900600Y-85243300D01*
G75*
G02*
X154775200Y-85117900I0J125400D01*
G01*
X154775200Y-83792100D01*
G75*
G02*
X154900600Y-83666700I125400J0D01*
G01*
X155151400Y-83666700D01*
G75*
G02*
X155276800Y-83792100I0J-125400D01*
G01*
X155276800Y-85117900D01*
G75*
G02*
X155151400Y-85243300I-125400J0D01*
G01*
G37*
G36*
G01*
X154501400Y-85243300D02*
X154250600Y-85243300D01*
G75*
G02*
X154125200Y-85117900I0J125400D01*
G01*
X154125200Y-83792100D01*
G75*
G02*
X154250600Y-83666700I125400J0D01*
G01*
X154501400Y-83666700D01*
G75*
G02*
X154626800Y-83792100I0J-125400D01*
G01*
X154626800Y-85117900D01*
G75*
G02*
X154501400Y-85243300I-125400J0D01*
G01*
G37*
G36*
G01*
X153851400Y-85243300D02*
X153600600Y-85243300D01*
G75*
G02*
X153475200Y-85117900I0J125400D01*
G01*
X153475200Y-83792100D01*
G75*
G02*
X153600600Y-83666700I125400J0D01*
G01*
X153851400Y-83666700D01*
G75*
G02*
X153976800Y-83792100I0J-125400D01*
G01*
X153976800Y-85117900D01*
G75*
G02*
X153851400Y-85243300I-125400J0D01*
G01*
G37*
G36*
G01*
X153201400Y-85243300D02*
X152950600Y-85243300D01*
G75*
G02*
X152825200Y-85117900I0J125400D01*
G01*
X152825200Y-83792100D01*
G75*
G02*
X152950600Y-83666700I125400J0D01*
G01*
X153201400Y-83666700D01*
G75*
G02*
X153326800Y-83792100I0J-125400D01*
G01*
X153326800Y-85117900D01*
G75*
G02*
X153201400Y-85243300I-125400J0D01*
G01*
G37*
G36*
G01*
X152551400Y-85243300D02*
X152300600Y-85243300D01*
G75*
G02*
X152175200Y-85117900I0J125400D01*
G01*
X152175200Y-83792100D01*
G75*
G02*
X152300600Y-83666700I125400J0D01*
G01*
X152551400Y-83666700D01*
G75*
G02*
X152676800Y-83792100I0J-125400D01*
G01*
X152676800Y-85117900D01*
G75*
G02*
X152551400Y-85243300I-125400J0D01*
G01*
G37*
G36*
G01*
X151901400Y-85243300D02*
X151650600Y-85243300D01*
G75*
G02*
X151525200Y-85117900I0J125400D01*
G01*
X151525200Y-83792100D01*
G75*
G02*
X151650600Y-83666700I125400J0D01*
G01*
X151901400Y-83666700D01*
G75*
G02*
X152026800Y-83792100I0J-125400D01*
G01*
X152026800Y-85117900D01*
G75*
G02*
X151901400Y-85243300I-125400J0D01*
G01*
G37*
G36*
G01*
X151901400Y-79518300D02*
X151650600Y-79518300D01*
G75*
G02*
X151525200Y-79392900I0J125400D01*
G01*
X151525200Y-78067100D01*
G75*
G02*
X151650600Y-77941700I125400J0D01*
G01*
X151901400Y-77941700D01*
G75*
G02*
X152026800Y-78067100I0J-125400D01*
G01*
X152026800Y-79392900D01*
G75*
G02*
X151901400Y-79518300I-125400J0D01*
G01*
G37*
G36*
G01*
X152551400Y-79518300D02*
X152300600Y-79518300D01*
G75*
G02*
X152175200Y-79392900I0J125400D01*
G01*
X152175200Y-78067100D01*
G75*
G02*
X152300600Y-77941700I125400J0D01*
G01*
X152551400Y-77941700D01*
G75*
G02*
X152676800Y-78067100I0J-125400D01*
G01*
X152676800Y-79392900D01*
G75*
G02*
X152551400Y-79518300I-125400J0D01*
G01*
G37*
G36*
G01*
X153201400Y-79518300D02*
X152950600Y-79518300D01*
G75*
G02*
X152825200Y-79392900I0J125400D01*
G01*
X152825200Y-78067100D01*
G75*
G02*
X152950600Y-77941700I125400J0D01*
G01*
X153201400Y-77941700D01*
G75*
G02*
X153326800Y-78067100I0J-125400D01*
G01*
X153326800Y-79392900D01*
G75*
G02*
X153201400Y-79518300I-125400J0D01*
G01*
G37*
G36*
G01*
X153851400Y-79518300D02*
X153600600Y-79518300D01*
G75*
G02*
X153475200Y-79392900I0J125400D01*
G01*
X153475200Y-78067100D01*
G75*
G02*
X153600600Y-77941700I125400J0D01*
G01*
X153851400Y-77941700D01*
G75*
G02*
X153976800Y-78067100I0J-125400D01*
G01*
X153976800Y-79392900D01*
G75*
G02*
X153851400Y-79518300I-125400J0D01*
G01*
G37*
G36*
G01*
X154501400Y-79518300D02*
X154250600Y-79518300D01*
G75*
G02*
X154125200Y-79392900I0J125400D01*
G01*
X154125200Y-78067100D01*
G75*
G02*
X154250600Y-77941700I125400J0D01*
G01*
X154501400Y-77941700D01*
G75*
G02*
X154626800Y-78067100I0J-125400D01*
G01*
X154626800Y-79392900D01*
G75*
G02*
X154501400Y-79518300I-125400J0D01*
G01*
G37*
G36*
G01*
X155151400Y-79518300D02*
X154900600Y-79518300D01*
G75*
G02*
X154775200Y-79392900I0J125400D01*
G01*
X154775200Y-78067100D01*
G75*
G02*
X154900600Y-77941700I125400J0D01*
G01*
X155151400Y-77941700D01*
G75*
G02*
X155276800Y-78067100I0J-125400D01*
G01*
X155276800Y-79392900D01*
G75*
G02*
X155151400Y-79518300I-125400J0D01*
G01*
G37*
G36*
G01*
X155801400Y-79518300D02*
X155550600Y-79518300D01*
G75*
G02*
X155425200Y-79392900I0J125400D01*
G01*
X155425200Y-78067100D01*
G75*
G02*
X155550600Y-77941700I125400J0D01*
G01*
X155801400Y-77941700D01*
G75*
G02*
X155926800Y-78067100I0J-125400D01*
G01*
X155926800Y-79392900D01*
G75*
G02*
X155801400Y-79518300I-125400J0D01*
G01*
G37*
G36*
G01*
X156451400Y-79518300D02*
X156200600Y-79518300D01*
G75*
G02*
X156075200Y-79392900I0J125400D01*
G01*
X156075200Y-78067100D01*
G75*
G02*
X156200600Y-77941700I125400J0D01*
G01*
X156451400Y-77941700D01*
G75*
G02*
X156576800Y-78067100I0J-125400D01*
G01*
X156576800Y-79392900D01*
G75*
G02*
X156451400Y-79518300I-125400J0D01*
G01*
G37*
G36*
G01*
X162643600Y-87291200D02*
X162894400Y-87291200D01*
G75*
G02*
X163019800Y-87416600I0J-125400D01*
G01*
X163019800Y-88742400D01*
G75*
G02*
X162894400Y-88867800I-125400J0D01*
G01*
X162643600Y-88867800D01*
G75*
G02*
X162518200Y-88742400I0J125400D01*
G01*
X162518200Y-87416600D01*
G75*
G02*
X162643600Y-87291200I125400J0D01*
G01*
G37*
G36*
G01*
X163293600Y-87291200D02*
X163544400Y-87291200D01*
G75*
G02*
X163669800Y-87416600I0J-125400D01*
G01*
X163669800Y-88742400D01*
G75*
G02*
X163544400Y-88867800I-125400J0D01*
G01*
X163293600Y-88867800D01*
G75*
G02*
X163168200Y-88742400I0J125400D01*
G01*
X163168200Y-87416600D01*
G75*
G02*
X163293600Y-87291200I125400J0D01*
G01*
G37*
G36*
G01*
X163943600Y-87291200D02*
X164194400Y-87291200D01*
G75*
G02*
X164319800Y-87416600I0J-125400D01*
G01*
X164319800Y-88742400D01*
G75*
G02*
X164194400Y-88867800I-125400J0D01*
G01*
X163943600Y-88867800D01*
G75*
G02*
X163818200Y-88742400I0J125400D01*
G01*
X163818200Y-87416600D01*
G75*
G02*
X163943600Y-87291200I125400J0D01*
G01*
G37*
G36*
G01*
X164593600Y-87291200D02*
X164844400Y-87291200D01*
G75*
G02*
X164969800Y-87416600I0J-125400D01*
G01*
X164969800Y-88742400D01*
G75*
G02*
X164844400Y-88867800I-125400J0D01*
G01*
X164593600Y-88867800D01*
G75*
G02*
X164468200Y-88742400I0J125400D01*
G01*
X164468200Y-87416600D01*
G75*
G02*
X164593600Y-87291200I125400J0D01*
G01*
G37*
G36*
G01*
X165243600Y-87291200D02*
X165494400Y-87291200D01*
G75*
G02*
X165619800Y-87416600I0J-125400D01*
G01*
X165619800Y-88742400D01*
G75*
G02*
X165494400Y-88867800I-125400J0D01*
G01*
X165243600Y-88867800D01*
G75*
G02*
X165118200Y-88742400I0J125400D01*
G01*
X165118200Y-87416600D01*
G75*
G02*
X165243600Y-87291200I125400J0D01*
G01*
G37*
G36*
G01*
X165893600Y-87291200D02*
X166144400Y-87291200D01*
G75*
G02*
X166269800Y-87416600I0J-125400D01*
G01*
X166269800Y-88742400D01*
G75*
G02*
X166144400Y-88867800I-125400J0D01*
G01*
X165893600Y-88867800D01*
G75*
G02*
X165768200Y-88742400I0J125400D01*
G01*
X165768200Y-87416600D01*
G75*
G02*
X165893600Y-87291200I125400J0D01*
G01*
G37*
G36*
G01*
X166543600Y-87291200D02*
X166794400Y-87291200D01*
G75*
G02*
X166919800Y-87416600I0J-125400D01*
G01*
X166919800Y-88742400D01*
G75*
G02*
X166794400Y-88867800I-125400J0D01*
G01*
X166543600Y-88867800D01*
G75*
G02*
X166418200Y-88742400I0J125400D01*
G01*
X166418200Y-87416600D01*
G75*
G02*
X166543600Y-87291200I125400J0D01*
G01*
G37*
G36*
G01*
X166543600Y-81566200D02*
X166794400Y-81566200D01*
G75*
G02*
X166919800Y-81691600I0J-125400D01*
G01*
X166919800Y-83017400D01*
G75*
G02*
X166794400Y-83142800I-125400J0D01*
G01*
X166543600Y-83142800D01*
G75*
G02*
X166418200Y-83017400I0J125400D01*
G01*
X166418200Y-81691600D01*
G75*
G02*
X166543600Y-81566200I125400J0D01*
G01*
G37*
G36*
G01*
X165893600Y-81566200D02*
X166144400Y-81566200D01*
G75*
G02*
X166269800Y-81691600I0J-125400D01*
G01*
X166269800Y-83017400D01*
G75*
G02*
X166144400Y-83142800I-125400J0D01*
G01*
X165893600Y-83142800D01*
G75*
G02*
X165768200Y-83017400I0J125400D01*
G01*
X165768200Y-81691600D01*
G75*
G02*
X165893600Y-81566200I125400J0D01*
G01*
G37*
G36*
G01*
X165243600Y-81566200D02*
X165494400Y-81566200D01*
G75*
G02*
X165619800Y-81691600I0J-125400D01*
G01*
X165619800Y-83017400D01*
G75*
G02*
X165494400Y-83142800I-125400J0D01*
G01*
X165243600Y-83142800D01*
G75*
G02*
X165118200Y-83017400I0J125400D01*
G01*
X165118200Y-81691600D01*
G75*
G02*
X165243600Y-81566200I125400J0D01*
G01*
G37*
G36*
G01*
X164593600Y-81566200D02*
X164844400Y-81566200D01*
G75*
G02*
X164969800Y-81691600I0J-125400D01*
G01*
X164969800Y-83017400D01*
G75*
G02*
X164844400Y-83142800I-125400J0D01*
G01*
X164593600Y-83142800D01*
G75*
G02*
X164468200Y-83017400I0J125400D01*
G01*
X164468200Y-81691600D01*
G75*
G02*
X164593600Y-81566200I125400J0D01*
G01*
G37*
G36*
G01*
X163943600Y-81566200D02*
X164194400Y-81566200D01*
G75*
G02*
X164319800Y-81691600I0J-125400D01*
G01*
X164319800Y-83017400D01*
G75*
G02*
X164194400Y-83142800I-125400J0D01*
G01*
X163943600Y-83142800D01*
G75*
G02*
X163818200Y-83017400I0J125400D01*
G01*
X163818200Y-81691600D01*
G75*
G02*
X163943600Y-81566200I125400J0D01*
G01*
G37*
G36*
G01*
X163293600Y-81566200D02*
X163544400Y-81566200D01*
G75*
G02*
X163669800Y-81691600I0J-125400D01*
G01*
X163669800Y-83017400D01*
G75*
G02*
X163544400Y-83142800I-125400J0D01*
G01*
X163293600Y-83142800D01*
G75*
G02*
X163168200Y-83017400I0J125400D01*
G01*
X163168200Y-81691600D01*
G75*
G02*
X163293600Y-81566200I125400J0D01*
G01*
G37*
G36*
G01*
X162643600Y-81566200D02*
X162894400Y-81566200D01*
G75*
G02*
X163019800Y-81691600I0J-125400D01*
G01*
X163019800Y-83017400D01*
G75*
G02*
X162894400Y-83142800I-125400J0D01*
G01*
X162643600Y-83142800D01*
G75*
G02*
X162518200Y-83017400I0J125400D01*
G01*
X162518200Y-81691600D01*
G75*
G02*
X162643600Y-81566200I125400J0D01*
G01*
G37*
G36*
G01*
X158339715Y-81034800D02*
X157382285Y-81034800D01*
G75*
G02*
X157110200Y-80762715I0J272085D01*
G01*
X157110200Y-80055285D01*
G75*
G02*
X157382285Y-79783200I272085J0D01*
G01*
X158339715Y-79783200D01*
G75*
G02*
X158611800Y-80055285I0J-272085D01*
G01*
X158611800Y-80762715D01*
G75*
G02*
X158339715Y-81034800I-272085J0D01*
G01*
G37*
G36*
G01*
X158339715Y-78984800D02*
X157382285Y-78984800D01*
G75*
G02*
X157110200Y-78712715I0J272085D01*
G01*
X157110200Y-78005285D01*
G75*
G02*
X157382285Y-77733200I272085J0D01*
G01*
X158339715Y-77733200D01*
G75*
G02*
X158611800Y-78005285I0J-272085D01*
G01*
X158611800Y-78712715D01*
G75*
G02*
X158339715Y-78984800I-272085J0D01*
G01*
G37*
G36*
G01*
X163966200Y-78878715D02*
X163966200Y-77921285D01*
G75*
G02*
X164238285Y-77649200I272085J0D01*
G01*
X164945715Y-77649200D01*
G75*
G02*
X165217800Y-77921285I0J-272085D01*
G01*
X165217800Y-78878715D01*
G75*
G02*
X164945715Y-79150800I-272085J0D01*
G01*
X164238285Y-79150800D01*
G75*
G02*
X163966200Y-78878715I0J272085D01*
G01*
G37*
G36*
G01*
X161916200Y-78878715D02*
X161916200Y-77921285D01*
G75*
G02*
X162188285Y-77649200I272085J0D01*
G01*
X162895715Y-77649200D01*
G75*
G02*
X163167800Y-77921285I0J-272085D01*
G01*
X163167800Y-78878715D01*
G75*
G02*
X162895715Y-79150800I-272085J0D01*
G01*
X162188285Y-79150800D01*
G75*
G02*
X161916200Y-78878715I0J272085D01*
G01*
G37*
M02*
