G04 #@! TF.GenerationSoftware,KiCad,Pcbnew,(5.1.7)-1*
G04 #@! TF.CreationDate,2020-11-15T22:52:21-06:00*
G04 #@! TF.ProjectId,snesdecoder,736e6573-6465-4636-9f64-65722e6b6963,v01*
G04 #@! TF.SameCoordinates,Original*
G04 #@! TF.FileFunction,Legend,Bot*
G04 #@! TF.FilePolarity,Positive*
%FSLAX46Y46*%
G04 Gerber Fmt 4.6, Leading zero omitted, Abs format (unit mm)*
G04 Created by KiCad (PCBNEW (5.1.7)-1) date 2020-11-15 22:52:21*
%MOMM*%
%LPD*%
G01*
G04 APERTURE LIST*
%ADD10C,0.120000*%
%ADD11C,0.150000*%
G04 APERTURE END LIST*
D10*
X163438748Y-79590000D02*
X163961252Y-79590000D01*
X163438748Y-81010000D02*
X163961252Y-81010000D01*
X165914000Y-79636252D02*
X165914000Y-79113748D01*
X167334000Y-79636252D02*
X167334000Y-79113748D01*
X159656000Y-83374000D02*
X159656000Y-84774000D01*
X157336000Y-84774000D02*
X157336000Y-82874000D01*
X161710000Y-84964748D02*
X161710000Y-85487252D01*
X160290000Y-84964748D02*
X160290000Y-85487252D01*
X156786000Y-81592500D02*
X156786000Y-85192500D01*
X156786000Y-81592500D02*
X156786000Y-79392500D01*
X151316000Y-81592500D02*
X151316000Y-83792500D01*
X151316000Y-81592500D02*
X151316000Y-79392500D01*
X167329000Y-85217000D02*
X167329000Y-87417000D01*
X167329000Y-85217000D02*
X167329000Y-83017000D01*
X162109000Y-85217000D02*
X162109000Y-87417000D01*
X162109000Y-85217000D02*
X162109000Y-81617000D01*
X157151000Y-79645252D02*
X157151000Y-79122748D01*
X158571000Y-79645252D02*
X158571000Y-79122748D01*
X163305748Y-79110000D02*
X163828252Y-79110000D01*
X163305748Y-77690000D02*
X163828252Y-77690000D01*
D11*
X161552380Y-80233333D02*
X161076190Y-79900000D01*
X161552380Y-79661904D02*
X160552380Y-79661904D01*
X160552380Y-80042857D01*
X160600000Y-80138095D01*
X160647619Y-80185714D01*
X160742857Y-80233333D01*
X160885714Y-80233333D01*
X160980952Y-80185714D01*
X161028571Y-80138095D01*
X161076190Y-80042857D01*
X161076190Y-79661904D01*
X161552380Y-81185714D02*
X161552380Y-80614285D01*
X161552380Y-80900000D02*
X160552380Y-80900000D01*
X160695238Y-80804761D01*
X160790476Y-80709523D01*
X160838095Y-80614285D01*
X166466666Y-84552380D02*
X166800000Y-84076190D01*
X167038095Y-84552380D02*
X167038095Y-83552380D01*
X166657142Y-83552380D01*
X166561904Y-83600000D01*
X166514285Y-83647619D01*
X166466666Y-83742857D01*
X166466666Y-83885714D01*
X166514285Y-83980952D01*
X166561904Y-84028571D01*
X166657142Y-84076190D01*
X167038095Y-84076190D01*
X166085714Y-83647619D02*
X166038095Y-83600000D01*
X165942857Y-83552380D01*
X165704761Y-83552380D01*
X165609523Y-83600000D01*
X165561904Y-83647619D01*
X165514285Y-83742857D01*
X165514285Y-83838095D01*
X165561904Y-83980952D01*
X166133333Y-84552380D01*
X165514285Y-84552380D01*
X159130904Y-86955380D02*
X159130904Y-87764904D01*
X159083285Y-87860142D01*
X159035666Y-87907761D01*
X158940428Y-87955380D01*
X158749952Y-87955380D01*
X158654714Y-87907761D01*
X158607095Y-87860142D01*
X158559476Y-87764904D01*
X158559476Y-86955380D01*
X157654714Y-87288714D02*
X157654714Y-87955380D01*
X157892809Y-86907761D02*
X158130904Y-87622047D01*
X157511857Y-87622047D01*
X161230142Y-87862333D02*
X161277761Y-87814714D01*
X161325380Y-87671857D01*
X161325380Y-87576619D01*
X161277761Y-87433761D01*
X161182523Y-87338523D01*
X161087285Y-87290904D01*
X160896809Y-87243285D01*
X160753952Y-87243285D01*
X160563476Y-87290904D01*
X160468238Y-87338523D01*
X160373000Y-87433761D01*
X160325380Y-87576619D01*
X160325380Y-87671857D01*
X160373000Y-87814714D01*
X160420619Y-87862333D01*
X160420619Y-88243285D02*
X160373000Y-88290904D01*
X160325380Y-88386142D01*
X160325380Y-88624238D01*
X160373000Y-88719476D01*
X160420619Y-88767095D01*
X160515857Y-88814714D01*
X160611095Y-88814714D01*
X160753952Y-88767095D01*
X161325380Y-88195666D01*
X161325380Y-88814714D01*
X153473380Y-80830595D02*
X154282904Y-80830595D01*
X154378142Y-80878214D01*
X154425761Y-80925833D01*
X154473380Y-81021071D01*
X154473380Y-81211547D01*
X154425761Y-81306785D01*
X154378142Y-81354404D01*
X154282904Y-81402023D01*
X153473380Y-81402023D01*
X153568619Y-81830595D02*
X153521000Y-81878214D01*
X153473380Y-81973452D01*
X153473380Y-82211547D01*
X153521000Y-82306785D01*
X153568619Y-82354404D01*
X153663857Y-82402023D01*
X153759095Y-82402023D01*
X153901952Y-82354404D01*
X154473380Y-81782976D01*
X154473380Y-82402023D01*
X164171380Y-84525095D02*
X164980904Y-84525095D01*
X165076142Y-84572714D01*
X165123761Y-84620333D01*
X165171380Y-84715571D01*
X165171380Y-84906047D01*
X165123761Y-85001285D01*
X165076142Y-85048904D01*
X164980904Y-85096523D01*
X164171380Y-85096523D01*
X165171380Y-86096523D02*
X165171380Y-85525095D01*
X165171380Y-85810809D02*
X164171380Y-85810809D01*
X164314238Y-85715571D01*
X164409476Y-85620333D01*
X164457095Y-85525095D01*
X159996142Y-78328333D02*
X160043761Y-78280714D01*
X160091380Y-78137857D01*
X160091380Y-78042619D01*
X160043761Y-77899761D01*
X159948523Y-77804523D01*
X159853285Y-77756904D01*
X159662809Y-77709285D01*
X159519952Y-77709285D01*
X159329476Y-77756904D01*
X159234238Y-77804523D01*
X159139000Y-77899761D01*
X159091380Y-78042619D01*
X159091380Y-78137857D01*
X159139000Y-78280714D01*
X159186619Y-78328333D01*
X159091380Y-78661666D02*
X159091380Y-79280714D01*
X159472333Y-78947380D01*
X159472333Y-79090238D01*
X159519952Y-79185476D01*
X159567571Y-79233095D01*
X159662809Y-79280714D01*
X159900904Y-79280714D01*
X159996142Y-79233095D01*
X160043761Y-79185476D01*
X160091380Y-79090238D01*
X160091380Y-78804523D01*
X160043761Y-78709285D01*
X159996142Y-78661666D01*
X161393142Y-78233333D02*
X161440761Y-78185714D01*
X161488380Y-78042857D01*
X161488380Y-77947619D01*
X161440761Y-77804761D01*
X161345523Y-77709523D01*
X161250285Y-77661904D01*
X161059809Y-77614285D01*
X160916952Y-77614285D01*
X160726476Y-77661904D01*
X160631238Y-77709523D01*
X160536000Y-77804761D01*
X160488380Y-77947619D01*
X160488380Y-78042857D01*
X160536000Y-78185714D01*
X160583619Y-78233333D01*
X161488380Y-79185714D02*
X161488380Y-78614285D01*
X161488380Y-78900000D02*
X160488380Y-78900000D01*
X160631238Y-78804761D01*
X160726476Y-78709523D01*
X160774095Y-78614285D01*
M02*
