G04 #@! TF.GenerationSoftware,KiCad,Pcbnew,(5.1.7)-1*
G04 #@! TF.CreationDate,2020-11-15T12:51:32-06:00*
G04 #@! TF.ProjectId,snesdecoder,736e6573-6465-4636-9f64-65722e6b6963,v01*
G04 #@! TF.SameCoordinates,Original*
G04 #@! TF.FileFunction,Legend,Top*
G04 #@! TF.FilePolarity,Positive*
%FSLAX46Y46*%
G04 Gerber Fmt 4.6, Leading zero omitted, Abs format (unit mm)*
G04 Created by KiCad (PCBNEW (5.1.7)-1) date 2020-11-15 12:51:32*
%MOMM*%
%LPD*%
G01*
G04 APERTURE LIST*
%ADD10C,0.120000*%
%ADD11C,0.150000*%
%ADD12C,0.125000*%
G04 APERTURE END LIST*
D10*
X157557000Y-77291000D02*
X155742000Y-77291000D01*
X157557000Y-77056000D02*
X157557000Y-77291000D01*
X161417000Y-77056000D02*
X157557000Y-77056000D01*
X165277000Y-77056000D02*
X165277000Y-77291000D01*
X161417000Y-77056000D02*
X165277000Y-77056000D01*
X157557000Y-90076000D02*
X157557000Y-89841000D01*
X161417000Y-90076000D02*
X157557000Y-90076000D01*
X165277000Y-90076000D02*
X165277000Y-89841000D01*
X161417000Y-90076000D02*
X165277000Y-90076000D01*
D11*
X171649571Y-78576714D02*
X171649571Y-77814714D01*
X171831000Y-77814714D01*
X171939857Y-77851000D01*
X172012428Y-77923571D01*
X172048714Y-77996142D01*
X172085000Y-78141285D01*
X172085000Y-78250142D01*
X172048714Y-78395285D01*
X172012428Y-78467857D01*
X171939857Y-78540428D01*
X171831000Y-78576714D01*
X171649571Y-78576714D01*
X172375285Y-78359000D02*
X172738142Y-78359000D01*
X172302714Y-78576714D02*
X172556714Y-77814714D01*
X172810714Y-78576714D01*
X172955857Y-77814714D02*
X173391285Y-77814714D01*
X173173571Y-78576714D02*
X173173571Y-77814714D01*
X172012428Y-83076142D02*
X171976142Y-83112428D01*
X171867285Y-83148714D01*
X171794714Y-83148714D01*
X171685857Y-83112428D01*
X171613285Y-83039857D01*
X171577000Y-82967285D01*
X171540714Y-82822142D01*
X171540714Y-82713285D01*
X171577000Y-82568142D01*
X171613285Y-82495571D01*
X171685857Y-82423000D01*
X171794714Y-82386714D01*
X171867285Y-82386714D01*
X171976142Y-82423000D01*
X172012428Y-82459285D01*
X172701857Y-83148714D02*
X172339000Y-83148714D01*
X172339000Y-82386714D01*
X172955857Y-83148714D02*
X172955857Y-82386714D01*
X173391285Y-83148714D02*
X173064714Y-82713285D01*
X173391285Y-82386714D02*
X172955857Y-82822142D01*
X168217904Y-78638380D02*
X168217904Y-79019333D01*
X168598857Y-79057428D01*
X168560761Y-79019333D01*
X168522666Y-78943142D01*
X168522666Y-78752666D01*
X168560761Y-78676476D01*
X168598857Y-78638380D01*
X168675047Y-78600285D01*
X168865523Y-78600285D01*
X168941714Y-78638380D01*
X168979809Y-78676476D01*
X169017904Y-78752666D01*
X169017904Y-78943142D01*
X168979809Y-79019333D01*
X168941714Y-79057428D01*
X168217904Y-78371714D02*
X169017904Y-78105047D01*
X168217904Y-77838380D01*
X168256000Y-83191285D02*
X168217904Y-83267476D01*
X168217904Y-83381761D01*
X168256000Y-83496047D01*
X168332190Y-83572238D01*
X168408380Y-83610333D01*
X168560761Y-83648428D01*
X168675047Y-83648428D01*
X168827428Y-83610333D01*
X168903619Y-83572238D01*
X168979809Y-83496047D01*
X169017904Y-83381761D01*
X169017904Y-83305571D01*
X168979809Y-83191285D01*
X168941714Y-83153190D01*
X168675047Y-83153190D01*
X168675047Y-83305571D01*
X168484571Y-82810333D02*
X169017904Y-82810333D01*
X168560761Y-82810333D02*
X168522666Y-82772238D01*
X168484571Y-82696047D01*
X168484571Y-82581761D01*
X168522666Y-82505571D01*
X168598857Y-82467476D01*
X169017904Y-82467476D01*
X169017904Y-81743666D02*
X168217904Y-81743666D01*
X168979809Y-81743666D02*
X169017904Y-81819857D01*
X169017904Y-81972238D01*
X168979809Y-82048428D01*
X168941714Y-82086523D01*
X168865523Y-82124619D01*
X168636952Y-82124619D01*
X168560761Y-82086523D01*
X168522666Y-82048428D01*
X168484571Y-81972238D01*
X168484571Y-81819857D01*
X168522666Y-81743666D01*
D12*
X169017904Y-81275142D02*
X168217904Y-81275142D01*
X168217904Y-81046571D01*
X168256000Y-80989428D01*
X168294095Y-80960857D01*
X168370285Y-80932285D01*
X168484571Y-80932285D01*
X168560761Y-80960857D01*
X168598857Y-80989428D01*
X168636952Y-81046571D01*
X168636952Y-81275142D01*
X168179809Y-80246571D02*
X169208380Y-80760857D01*
X168979809Y-80075142D02*
X169017904Y-79989428D01*
X169017904Y-79846571D01*
X168979809Y-79789428D01*
X168941714Y-79760857D01*
X168865523Y-79732285D01*
X168789333Y-79732285D01*
X168713142Y-79760857D01*
X168675047Y-79789428D01*
X168636952Y-79846571D01*
X168598857Y-79960857D01*
X168560761Y-80018000D01*
X168522666Y-80046571D01*
X168446476Y-80075142D01*
X168370285Y-80075142D01*
X168294095Y-80046571D01*
X168256000Y-80018000D01*
X168217904Y-79960857D01*
X168217904Y-79818000D01*
X168256000Y-79732285D01*
D11*
X160655095Y-82906380D02*
X160655095Y-83715904D01*
X160702714Y-83811142D01*
X160750333Y-83858761D01*
X160845571Y-83906380D01*
X161036047Y-83906380D01*
X161131285Y-83858761D01*
X161178904Y-83811142D01*
X161226523Y-83715904D01*
X161226523Y-82906380D01*
X161607476Y-82906380D02*
X162226523Y-82906380D01*
X161893190Y-83287333D01*
X162036047Y-83287333D01*
X162131285Y-83334952D01*
X162178904Y-83382571D01*
X162226523Y-83477809D01*
X162226523Y-83715904D01*
X162178904Y-83811142D01*
X162131285Y-83858761D01*
X162036047Y-83906380D01*
X161750333Y-83906380D01*
X161655095Y-83858761D01*
X161607476Y-83811142D01*
X170677000Y-92940190D02*
X170677000Y-93416380D01*
X170343666Y-92416380D02*
X170677000Y-92940190D01*
X171010333Y-92416380D01*
X169073666Y-90638380D02*
X169740333Y-91638380D01*
X169740333Y-90638380D02*
X169073666Y-91638380D01*
X168020333Y-93416380D02*
X167687000Y-93416380D01*
X167687000Y-92416380D01*
X168220333Y-93368761D02*
X168320333Y-93416380D01*
X168487000Y-93416380D01*
X168553666Y-93368761D01*
X168587000Y-93321142D01*
X168620333Y-93225904D01*
X168620333Y-93130666D01*
X168587000Y-93035428D01*
X168553666Y-92987809D01*
X168487000Y-92940190D01*
X168353666Y-92892571D01*
X168287000Y-92844952D01*
X168253666Y-92797333D01*
X168220333Y-92702095D01*
X168220333Y-92606857D01*
X168253666Y-92511619D01*
X168287000Y-92464000D01*
X168353666Y-92416380D01*
X168520333Y-92416380D01*
X168620333Y-92464000D01*
X166750333Y-91638380D02*
X166517000Y-91162190D01*
X166350333Y-91638380D02*
X166350333Y-90638380D01*
X166617000Y-90638380D01*
X166683666Y-90686000D01*
X166717000Y-90733619D01*
X166750333Y-90828857D01*
X166750333Y-90971714D01*
X166717000Y-91066952D01*
X166683666Y-91114571D01*
X166617000Y-91162190D01*
X166350333Y-91162190D01*
X167017000Y-91590761D02*
X167117000Y-91638380D01*
X167283666Y-91638380D01*
X167350333Y-91590761D01*
X167383666Y-91543142D01*
X167417000Y-91447904D01*
X167417000Y-91352666D01*
X167383666Y-91257428D01*
X167350333Y-91209809D01*
X167283666Y-91162190D01*
X167150333Y-91114571D01*
X167083666Y-91066952D01*
X167050333Y-91019333D01*
X167017000Y-90924095D01*
X167017000Y-90828857D01*
X167050333Y-90733619D01*
X167083666Y-90686000D01*
X167150333Y-90638380D01*
X167317000Y-90638380D01*
X167417000Y-90686000D01*
X165335095Y-93416380D02*
X165335095Y-92416380D01*
X165573190Y-92416380D01*
X165716047Y-92464000D01*
X165811285Y-92559238D01*
X165858904Y-92654476D01*
X165906523Y-92844952D01*
X165906523Y-92987809D01*
X165858904Y-93178285D01*
X165811285Y-93273523D01*
X165716047Y-93368761D01*
X165573190Y-93416380D01*
X165335095Y-93416380D01*
X164041285Y-90638380D02*
X164041285Y-91447904D01*
X164088904Y-91543142D01*
X164136523Y-91590761D01*
X164231761Y-91638380D01*
X164422238Y-91638380D01*
X164517476Y-91590761D01*
X164565095Y-91543142D01*
X164612714Y-91447904D01*
X164612714Y-90638380D01*
X163366523Y-93416380D02*
X162890333Y-93416380D01*
X162890333Y-92416380D01*
X162096523Y-91638380D02*
X161763190Y-91162190D01*
X161525095Y-91638380D02*
X161525095Y-90638380D01*
X161906047Y-90638380D01*
X162001285Y-90686000D01*
X162048904Y-90733619D01*
X162096523Y-90828857D01*
X162096523Y-90971714D01*
X162048904Y-91066952D01*
X162001285Y-91114571D01*
X161906047Y-91162190D01*
X161525095Y-91162190D01*
X160059857Y-93368761D02*
X160174142Y-93416380D01*
X160364619Y-93416380D01*
X160440809Y-93368761D01*
X160478904Y-93321142D01*
X160517000Y-93225904D01*
X160517000Y-93130666D01*
X160478904Y-93035428D01*
X160440809Y-92987809D01*
X160364619Y-92940190D01*
X160212238Y-92892571D01*
X160136047Y-92844952D01*
X160097952Y-92797333D01*
X160059857Y-92702095D01*
X160059857Y-92606857D01*
X160097952Y-92511619D01*
X160136047Y-92464000D01*
X160212238Y-92416380D01*
X160402714Y-92416380D01*
X160517000Y-92464000D01*
X160745571Y-92749714D02*
X161050333Y-92749714D01*
X160859857Y-92416380D02*
X160859857Y-93273523D01*
X160897952Y-93368761D01*
X160974142Y-93416380D01*
X161050333Y-93416380D01*
X158808904Y-91590761D02*
X158923190Y-91638380D01*
X159113666Y-91638380D01*
X159189857Y-91590761D01*
X159227952Y-91543142D01*
X159266047Y-91447904D01*
X159266047Y-91352666D01*
X159227952Y-91257428D01*
X159189857Y-91209809D01*
X159113666Y-91162190D01*
X158961285Y-91114571D01*
X158885095Y-91066952D01*
X158847000Y-91019333D01*
X158808904Y-90924095D01*
X158808904Y-90828857D01*
X158847000Y-90733619D01*
X158885095Y-90686000D01*
X158961285Y-90638380D01*
X159151761Y-90638380D01*
X159266047Y-90686000D01*
X159723190Y-91638380D02*
X159647000Y-91590761D01*
X159608904Y-91495523D01*
X159608904Y-90638380D01*
X156468904Y-91352666D02*
X156945095Y-91352666D01*
X156373666Y-91638380D02*
X156707000Y-90638380D01*
X157040333Y-91638380D01*
X158048428Y-92892571D02*
X158191285Y-92940190D01*
X158238904Y-92987809D01*
X158286523Y-93083047D01*
X158286523Y-93225904D01*
X158238904Y-93321142D01*
X158191285Y-93368761D01*
X158096047Y-93416380D01*
X157715095Y-93416380D01*
X157715095Y-92416380D01*
X158048428Y-92416380D01*
X158143666Y-92464000D01*
X158191285Y-92511619D01*
X158238904Y-92606857D01*
X158238904Y-92702095D01*
X158191285Y-92797333D01*
X158143666Y-92844952D01*
X158048428Y-92892571D01*
X157715095Y-92892571D01*
X169807000Y-86494857D02*
X169759380Y-86590095D01*
X169759380Y-86732952D01*
X169807000Y-86875809D01*
X169902238Y-86971047D01*
X169997476Y-87018666D01*
X170187952Y-87066285D01*
X170330809Y-87066285D01*
X170521285Y-87018666D01*
X170616523Y-86971047D01*
X170711761Y-86875809D01*
X170759380Y-86732952D01*
X170759380Y-86637714D01*
X170711761Y-86494857D01*
X170664142Y-86447238D01*
X170330809Y-86447238D01*
X170330809Y-86637714D01*
X170092714Y-86018666D02*
X170759380Y-86018666D01*
X170187952Y-86018666D02*
X170140333Y-85971047D01*
X170092714Y-85875809D01*
X170092714Y-85732952D01*
X170140333Y-85637714D01*
X170235571Y-85590095D01*
X170759380Y-85590095D01*
X170759380Y-84685333D02*
X169759380Y-84685333D01*
X170711761Y-84685333D02*
X170759380Y-84780571D01*
X170759380Y-84971047D01*
X170711761Y-85066285D01*
X170664142Y-85113904D01*
X170568904Y-85161523D01*
X170283190Y-85161523D01*
X170187952Y-85113904D01*
X170140333Y-85066285D01*
X170092714Y-84971047D01*
X170092714Y-84780571D01*
X170140333Y-84685333D01*
X169759380Y-89090476D02*
X169759380Y-89566666D01*
X170235571Y-89614285D01*
X170187952Y-89566666D01*
X170140333Y-89471428D01*
X170140333Y-89233333D01*
X170187952Y-89138095D01*
X170235571Y-89090476D01*
X170330809Y-89042857D01*
X170568904Y-89042857D01*
X170664142Y-89090476D01*
X170711761Y-89138095D01*
X170759380Y-89233333D01*
X170759380Y-89471428D01*
X170711761Y-89566666D01*
X170664142Y-89614285D01*
X169759380Y-88757142D02*
X170759380Y-88423809D01*
X169759380Y-88090476D01*
M02*
