G04 #@! TF.GenerationSoftware,KiCad,Pcbnew,(5.1.7)-1*
G04 #@! TF.CreationDate,2020-11-09T15:11:53-06:00*
G04 #@! TF.ProjectId,snesdecoder,736e6573-6465-4636-9f64-65722e6b6963,v01*
G04 #@! TF.SameCoordinates,Original*
G04 #@! TF.FileFunction,Legend,Top*
G04 #@! TF.FilePolarity,Positive*
%FSLAX46Y46*%
G04 Gerber Fmt 4.6, Leading zero omitted, Abs format (unit mm)*
G04 Created by KiCad (PCBNEW (5.1.7)-1) date 2020-11-09 15:11:53*
%MOMM*%
%LPD*%
G01*
G04 APERTURE LIST*
%ADD10C,0.150000*%
%ADD11C,0.120000*%
G04 APERTURE END LIST*
D10*
X160274000Y-96520000D02*
X160274000Y-98044000D01*
X160274000Y-95758000D02*
X160274000Y-94234000D01*
X169169000Y-94064000D02*
X169054000Y-94064000D01*
X169169000Y-98214000D02*
X169054000Y-98214000D01*
X169169000Y-98214000D02*
X169169000Y-94064000D01*
X160274000Y-95758000D02*
G75*
G02*
X160274000Y-96520000I0J-381000D01*
G01*
D11*
X162306000Y-107660000D02*
X160456000Y-107660000D01*
X162306000Y-107660000D02*
X163056000Y-107660000D01*
X162306000Y-110780000D02*
X161556000Y-110780000D01*
X162306000Y-110780000D02*
X163056000Y-110780000D01*
X147574000Y-102723000D02*
X149524000Y-102723000D01*
X147574000Y-102723000D02*
X145624000Y-102723000D01*
D10*
X147193001Y-92583001D02*
X145669000Y-92583001D01*
X147954999Y-92582999D02*
X149479000Y-92582999D01*
X147954999Y-92582999D02*
G75*
G02*
X147193001Y-92583001I-380999J-20001D01*
G01*
D11*
X170255000Y-105036252D02*
X170255000Y-104513748D01*
X168835000Y-105036252D02*
X168835000Y-104513748D01*
X166885252Y-100763000D02*
X166362748Y-100763000D01*
X166885252Y-102183000D02*
X166362748Y-102183000D01*
X162059252Y-100763000D02*
X161536748Y-100763000D01*
X162059252Y-102183000D02*
X161536748Y-102183000D01*
X161790748Y-105739000D02*
X162313252Y-105739000D01*
X161790748Y-104319000D02*
X162313252Y-104319000D01*
D10*
X155194000Y-92583000D02*
X153670000Y-92583000D01*
X155956000Y-92583000D02*
X157480000Y-92583000D01*
X157650000Y-102738000D02*
X157650000Y-102633000D01*
X153500000Y-102738000D02*
X153500000Y-102633000D01*
X153500000Y-102738000D02*
X157650000Y-102738000D01*
X155956000Y-92583000D02*
G75*
G02*
X155194000Y-92583000I-381000J0D01*
G01*
D11*
X139446000Y-102723000D02*
X141396000Y-102723000D01*
X139446000Y-102723000D02*
X137496000Y-102723000D01*
D10*
X139827000Y-92583000D02*
X141351000Y-92583000D01*
X139065000Y-92583000D02*
X137541000Y-92583000D01*
X139826999Y-92582999D02*
G75*
G02*
X139065001Y-92583001I-380999J-20001D01*
G01*
D11*
X166758252Y-103938000D02*
X166235748Y-103938000D01*
X166758252Y-105358000D02*
X166235748Y-105358000D01*
D10*
X164084095Y-95591380D02*
X164084095Y-96400904D01*
X164131714Y-96496142D01*
X164179333Y-96543761D01*
X164274571Y-96591380D01*
X164465047Y-96591380D01*
X164560285Y-96543761D01*
X164607904Y-96496142D01*
X164655523Y-96400904D01*
X164655523Y-95591380D01*
X165655523Y-96591380D02*
X165084095Y-96591380D01*
X165369809Y-96591380D02*
X165369809Y-95591380D01*
X165274571Y-95734238D01*
X165179333Y-95829476D01*
X165084095Y-95877095D01*
X156107000Y-110688380D02*
X156107000Y-109688380D01*
X156345095Y-109688380D01*
X156487952Y-109736000D01*
X156583190Y-109831238D01*
X156630809Y-109926476D01*
X156678428Y-110116952D01*
X156678428Y-110259809D01*
X156630809Y-110450285D01*
X156583190Y-110545523D01*
X156487952Y-110640761D01*
X156345095Y-110688380D01*
X156107000Y-110688380D01*
X157059380Y-110402666D02*
X157535571Y-110402666D01*
X156964142Y-110688380D02*
X157297476Y-109688380D01*
X157630809Y-110688380D01*
X157821285Y-109688380D02*
X158392714Y-109688380D01*
X158107000Y-110688380D02*
X158107000Y-109688380D01*
X158678428Y-110402666D02*
X159154619Y-110402666D01*
X158583190Y-110688380D02*
X158916523Y-109688380D01*
X159249857Y-110688380D01*
X153455761Y-110593142D02*
X153408142Y-110640761D01*
X153265285Y-110688380D01*
X153170047Y-110688380D01*
X153027190Y-110640761D01*
X152931952Y-110545523D01*
X152884333Y-110450285D01*
X152836714Y-110259809D01*
X152836714Y-110116952D01*
X152884333Y-109926476D01*
X152931952Y-109831238D01*
X153027190Y-109736000D01*
X153170047Y-109688380D01*
X153265285Y-109688380D01*
X153408142Y-109736000D01*
X153455761Y-109783619D01*
X154360523Y-110688380D02*
X153884333Y-110688380D01*
X153884333Y-109688380D01*
X154693857Y-110688380D02*
X154693857Y-109688380D01*
X155265285Y-110688380D02*
X154836714Y-110116952D01*
X155265285Y-109688380D02*
X154693857Y-110259809D01*
X158178523Y-103846380D02*
X157702333Y-103846380D01*
X157654714Y-104322571D01*
X157702333Y-104274952D01*
X157797571Y-104227333D01*
X158035666Y-104227333D01*
X158130904Y-104274952D01*
X158178523Y-104322571D01*
X158226142Y-104417809D01*
X158226142Y-104655904D01*
X158178523Y-104751142D01*
X158130904Y-104798761D01*
X158035666Y-104846380D01*
X157797571Y-104846380D01*
X157702333Y-104798761D01*
X157654714Y-104751142D01*
X158511857Y-103846380D02*
X158845190Y-104846380D01*
X159178523Y-103846380D01*
X152646142Y-103894000D02*
X152550904Y-103846380D01*
X152408047Y-103846380D01*
X152265190Y-103894000D01*
X152169952Y-103989238D01*
X152122333Y-104084476D01*
X152074714Y-104274952D01*
X152074714Y-104417809D01*
X152122333Y-104608285D01*
X152169952Y-104703523D01*
X152265190Y-104798761D01*
X152408047Y-104846380D01*
X152503285Y-104846380D01*
X152646142Y-104798761D01*
X152693761Y-104751142D01*
X152693761Y-104417809D01*
X152503285Y-104417809D01*
X153122333Y-104179714D02*
X153122333Y-104846380D01*
X153122333Y-104274952D02*
X153169952Y-104227333D01*
X153265190Y-104179714D01*
X153408047Y-104179714D01*
X153503285Y-104227333D01*
X153550904Y-104322571D01*
X153550904Y-104846380D01*
X154455666Y-104846380D02*
X154455666Y-103846380D01*
X154455666Y-104798761D02*
X154360428Y-104846380D01*
X154169952Y-104846380D01*
X154074714Y-104798761D01*
X154027095Y-104751142D01*
X153979476Y-104655904D01*
X153979476Y-104370190D01*
X154027095Y-104274952D01*
X154074714Y-104227333D01*
X154169952Y-104179714D01*
X154360428Y-104179714D01*
X154455666Y-104227333D01*
X163322095Y-106272380D02*
X163322095Y-107081904D01*
X163369714Y-107177142D01*
X163417333Y-107224761D01*
X163512571Y-107272380D01*
X163703047Y-107272380D01*
X163798285Y-107224761D01*
X163845904Y-107177142D01*
X163893523Y-107081904D01*
X163893523Y-106272380D01*
X164845904Y-106272380D02*
X164369714Y-106272380D01*
X164322095Y-106748571D01*
X164369714Y-106700952D01*
X164464952Y-106653333D01*
X164703047Y-106653333D01*
X164798285Y-106700952D01*
X164845904Y-106748571D01*
X164893523Y-106843809D01*
X164893523Y-107081904D01*
X164845904Y-107177142D01*
X164798285Y-107224761D01*
X164703047Y-107272380D01*
X164464952Y-107272380D01*
X164369714Y-107224761D01*
X164322095Y-107177142D01*
X147698905Y-110604666D02*
X148175096Y-110604666D01*
X147603667Y-110890380D02*
X147937001Y-109890380D01*
X148270334Y-110890380D01*
X150294429Y-110366571D02*
X150437286Y-110414190D01*
X150484905Y-110461809D01*
X150532524Y-110557047D01*
X150532524Y-110699904D01*
X150484905Y-110795142D01*
X150437286Y-110842761D01*
X150342048Y-110890380D01*
X149961096Y-110890380D01*
X149961096Y-109890380D01*
X150294429Y-109890380D01*
X150389667Y-109938000D01*
X150437286Y-109985619D01*
X150484905Y-110080857D01*
X150484905Y-110176095D01*
X150437286Y-110271333D01*
X150389667Y-110318952D01*
X150294429Y-110366571D01*
X149961096Y-110366571D01*
X147026380Y-98424904D02*
X147835904Y-98424904D01*
X147931142Y-98377285D01*
X147978761Y-98329666D01*
X148026380Y-98234428D01*
X148026380Y-98043952D01*
X147978761Y-97948714D01*
X147931142Y-97901095D01*
X147835904Y-97853476D01*
X147026380Y-97853476D01*
X147026380Y-97472523D02*
X147026380Y-96853476D01*
X147407333Y-97186809D01*
X147407333Y-97043952D01*
X147454952Y-96948714D01*
X147502571Y-96901095D01*
X147597809Y-96853476D01*
X147835904Y-96853476D01*
X147931142Y-96901095D01*
X147978761Y-96948714D01*
X148026380Y-97043952D01*
X148026380Y-97329666D01*
X147978761Y-97424904D01*
X147931142Y-97472523D01*
X169378333Y-102433380D02*
X169045000Y-101957190D01*
X168806904Y-102433380D02*
X168806904Y-101433380D01*
X169187857Y-101433380D01*
X169283095Y-101481000D01*
X169330714Y-101528619D01*
X169378333Y-101623857D01*
X169378333Y-101766714D01*
X169330714Y-101861952D01*
X169283095Y-101909571D01*
X169187857Y-101957190D01*
X168806904Y-101957190D01*
X169759285Y-101528619D02*
X169806904Y-101481000D01*
X169902142Y-101433380D01*
X170140238Y-101433380D01*
X170235476Y-101481000D01*
X170283095Y-101528619D01*
X170330714Y-101623857D01*
X170330714Y-101719095D01*
X170283095Y-101861952D01*
X169711666Y-102433380D01*
X170330714Y-102433380D01*
X166457333Y-103480142D02*
X166409714Y-103527761D01*
X166266857Y-103575380D01*
X166171619Y-103575380D01*
X166028761Y-103527761D01*
X165933523Y-103432523D01*
X165885904Y-103337285D01*
X165838285Y-103146809D01*
X165838285Y-103003952D01*
X165885904Y-102813476D01*
X165933523Y-102718238D01*
X166028761Y-102623000D01*
X166171619Y-102575380D01*
X166266857Y-102575380D01*
X166409714Y-102623000D01*
X166457333Y-102670619D01*
X166790666Y-102575380D02*
X167409714Y-102575380D01*
X167076380Y-102956333D01*
X167219238Y-102956333D01*
X167314476Y-103003952D01*
X167362095Y-103051571D01*
X167409714Y-103146809D01*
X167409714Y-103384904D01*
X167362095Y-103480142D01*
X167314476Y-103527761D01*
X167219238Y-103575380D01*
X166933523Y-103575380D01*
X166838285Y-103527761D01*
X166790666Y-103480142D01*
X162012333Y-103608142D02*
X161964714Y-103655761D01*
X161821857Y-103703380D01*
X161726619Y-103703380D01*
X161583761Y-103655761D01*
X161488523Y-103560523D01*
X161440904Y-103465285D01*
X161393285Y-103274809D01*
X161393285Y-103131952D01*
X161440904Y-102941476D01*
X161488523Y-102846238D01*
X161583761Y-102751000D01*
X161726619Y-102703380D01*
X161821857Y-102703380D01*
X161964714Y-102751000D01*
X162012333Y-102798619D01*
X162393285Y-102798619D02*
X162440904Y-102751000D01*
X162536142Y-102703380D01*
X162774238Y-102703380D01*
X162869476Y-102751000D01*
X162917095Y-102798619D01*
X162964714Y-102893857D01*
X162964714Y-102989095D01*
X162917095Y-103131952D01*
X162345666Y-103703380D01*
X162964714Y-103703380D01*
X161758333Y-107164142D02*
X161710714Y-107211761D01*
X161567857Y-107259380D01*
X161472619Y-107259380D01*
X161329761Y-107211761D01*
X161234523Y-107116523D01*
X161186904Y-107021285D01*
X161139285Y-106830809D01*
X161139285Y-106687952D01*
X161186904Y-106497476D01*
X161234523Y-106402238D01*
X161329761Y-106307000D01*
X161472619Y-106259380D01*
X161567857Y-106259380D01*
X161710714Y-106307000D01*
X161758333Y-106354619D01*
X162710714Y-107259380D02*
X162139285Y-107259380D01*
X162425000Y-107259380D02*
X162425000Y-106259380D01*
X162329761Y-106402238D01*
X162234523Y-106497476D01*
X162139285Y-106545095D01*
X148246524Y-107010380D02*
X147770334Y-107010380D01*
X147770334Y-106010380D01*
X150532524Y-107010380D02*
X150199191Y-106534190D01*
X149961096Y-107010380D02*
X149961096Y-106010380D01*
X150342048Y-106010380D01*
X150437286Y-106058000D01*
X150484905Y-106105619D01*
X150532524Y-106200857D01*
X150532524Y-106343714D01*
X150484905Y-106438952D01*
X150437286Y-106486571D01*
X150342048Y-106534190D01*
X149961096Y-106534190D01*
X142668666Y-106005380D02*
X143335333Y-107005380D01*
X143335333Y-106005380D02*
X142668666Y-107005380D01*
X145288000Y-106529190D02*
X145288000Y-107005380D01*
X144954666Y-106005380D02*
X145288000Y-106529190D01*
X145621333Y-106005380D01*
X155027380Y-98297904D02*
X155836904Y-98297904D01*
X155932142Y-98250285D01*
X155979761Y-98202666D01*
X156027380Y-98107428D01*
X156027380Y-97916952D01*
X155979761Y-97821714D01*
X155932142Y-97774095D01*
X155836904Y-97726476D01*
X155027380Y-97726476D01*
X155122619Y-97297904D02*
X155075000Y-97250285D01*
X155027380Y-97155047D01*
X155027380Y-96916952D01*
X155075000Y-96821714D01*
X155122619Y-96774095D01*
X155217857Y-96726476D01*
X155313095Y-96726476D01*
X155455952Y-96774095D01*
X156027380Y-97345523D01*
X156027380Y-96726476D01*
X138771380Y-98424904D02*
X139580904Y-98424904D01*
X139676142Y-98377285D01*
X139723761Y-98329666D01*
X139771380Y-98234428D01*
X139771380Y-98043952D01*
X139723761Y-97948714D01*
X139676142Y-97901095D01*
X139580904Y-97853476D01*
X138771380Y-97853476D01*
X139104714Y-96948714D02*
X139771380Y-96948714D01*
X138723761Y-97186809D02*
X139438047Y-97424904D01*
X139438047Y-96805857D01*
X136421904Y-103719380D02*
X136421904Y-104528904D01*
X136469523Y-104624142D01*
X136517142Y-104671761D01*
X136612380Y-104719380D01*
X136802857Y-104719380D01*
X136898095Y-104671761D01*
X136945714Y-104624142D01*
X136993333Y-104528904D01*
X136993333Y-103719380D01*
X137469523Y-104052714D02*
X137469523Y-105052714D01*
X137469523Y-104100333D02*
X137564761Y-104052714D01*
X137755238Y-104052714D01*
X137850476Y-104100333D01*
X137898095Y-104147952D01*
X137945714Y-104243190D01*
X137945714Y-104528904D01*
X137898095Y-104624142D01*
X137850476Y-104671761D01*
X137755238Y-104719380D01*
X137564761Y-104719380D01*
X137469523Y-104671761D01*
X138858714Y-104719380D02*
X138858714Y-103719380D01*
X139096809Y-103719380D01*
X139239666Y-103767000D01*
X139334904Y-103862238D01*
X139382523Y-103957476D01*
X139430142Y-104147952D01*
X139430142Y-104290809D01*
X139382523Y-104481285D01*
X139334904Y-104576523D01*
X139239666Y-104671761D01*
X139096809Y-104719380D01*
X138858714Y-104719380D01*
X139858714Y-104052714D02*
X139858714Y-104719380D01*
X139858714Y-104147952D02*
X139906333Y-104100333D01*
X140001571Y-104052714D01*
X140144428Y-104052714D01*
X140239666Y-104100333D01*
X140287285Y-104195571D01*
X140287285Y-104719380D01*
X137675952Y-110688380D02*
X137199761Y-110688380D01*
X137199761Y-109688380D01*
X138390238Y-110640761D02*
X138295000Y-110688380D01*
X138104523Y-110688380D01*
X138009285Y-110640761D01*
X137961666Y-110545523D01*
X137961666Y-110164571D01*
X138009285Y-110069333D01*
X138104523Y-110021714D01*
X138295000Y-110021714D01*
X138390238Y-110069333D01*
X138437857Y-110164571D01*
X138437857Y-110259809D01*
X137961666Y-110355047D01*
X140279428Y-110815380D02*
X139946095Y-110339190D01*
X139708000Y-110815380D02*
X139708000Y-109815380D01*
X140088952Y-109815380D01*
X140184190Y-109863000D01*
X140231809Y-109910619D01*
X140279428Y-110005857D01*
X140279428Y-110148714D01*
X140231809Y-110243952D01*
X140184190Y-110291571D01*
X140088952Y-110339190D01*
X139708000Y-110339190D01*
X140708000Y-110815380D02*
X140708000Y-110148714D01*
X140708000Y-109815380D02*
X140660380Y-109863000D01*
X140708000Y-109910619D01*
X140755619Y-109863000D01*
X140708000Y-109815380D01*
X140708000Y-109910619D01*
X142430571Y-110894761D02*
X142573428Y-110942380D01*
X142811523Y-110942380D01*
X142906761Y-110894761D01*
X142954380Y-110847142D01*
X143002000Y-110751904D01*
X143002000Y-110656666D01*
X142954380Y-110561428D01*
X142906761Y-110513809D01*
X142811523Y-110466190D01*
X142621047Y-110418571D01*
X142525809Y-110370952D01*
X142478190Y-110323333D01*
X142430571Y-110228095D01*
X142430571Y-110132857D01*
X142478190Y-110037619D01*
X142525809Y-109990000D01*
X142621047Y-109942380D01*
X142859142Y-109942380D01*
X143002000Y-109990000D01*
X143287714Y-110275714D02*
X143668666Y-110275714D01*
X143430571Y-109942380D02*
X143430571Y-110799523D01*
X143478190Y-110894761D01*
X143573428Y-110942380D01*
X143668666Y-110942380D01*
X144740380Y-110894761D02*
X144883238Y-110942380D01*
X145121333Y-110942380D01*
X145216571Y-110894761D01*
X145264190Y-110847142D01*
X145311809Y-110751904D01*
X145311809Y-110656666D01*
X145264190Y-110561428D01*
X145216571Y-110513809D01*
X145121333Y-110466190D01*
X144930857Y-110418571D01*
X144835619Y-110370952D01*
X144788000Y-110323333D01*
X144740380Y-110228095D01*
X144740380Y-110132857D01*
X144788000Y-110037619D01*
X144835619Y-109990000D01*
X144930857Y-109942380D01*
X145168952Y-109942380D01*
X145311809Y-109990000D01*
X145883238Y-110942380D02*
X145788000Y-110894761D01*
X145740380Y-110799523D01*
X145740380Y-109942380D01*
X165600142Y-109609000D02*
X165504904Y-109561380D01*
X165362047Y-109561380D01*
X165219190Y-109609000D01*
X165123952Y-109704238D01*
X165076333Y-109799476D01*
X165028714Y-109989952D01*
X165028714Y-110132809D01*
X165076333Y-110323285D01*
X165123952Y-110418523D01*
X165219190Y-110513761D01*
X165362047Y-110561380D01*
X165457285Y-110561380D01*
X165600142Y-110513761D01*
X165647761Y-110466142D01*
X165647761Y-110132809D01*
X165457285Y-110132809D01*
X166076333Y-109894714D02*
X166076333Y-110561380D01*
X166076333Y-109989952D02*
X166123952Y-109942333D01*
X166219190Y-109894714D01*
X166362047Y-109894714D01*
X166457285Y-109942333D01*
X166504904Y-110037571D01*
X166504904Y-110561380D01*
X167409666Y-110561380D02*
X167409666Y-109561380D01*
X167409666Y-110513761D02*
X167314428Y-110561380D01*
X167123952Y-110561380D01*
X167028714Y-110513761D01*
X166981095Y-110466142D01*
X166933476Y-110370904D01*
X166933476Y-110085190D01*
X166981095Y-109989952D01*
X167028714Y-109942333D01*
X167123952Y-109894714D01*
X167314428Y-109894714D01*
X167409666Y-109942333D01*
X169100523Y-109561380D02*
X168624333Y-109561380D01*
X168576714Y-110037571D01*
X168624333Y-109989952D01*
X168719571Y-109942333D01*
X168957666Y-109942333D01*
X169052904Y-109989952D01*
X169100523Y-110037571D01*
X169148142Y-110132809D01*
X169148142Y-110370904D01*
X169100523Y-110466142D01*
X169052904Y-110513761D01*
X168957666Y-110561380D01*
X168719571Y-110561380D01*
X168624333Y-110513761D01*
X168576714Y-110466142D01*
X169433857Y-109561380D02*
X169767190Y-110561380D01*
X170100523Y-109561380D01*
X166457333Y-107005380D02*
X166124000Y-106529190D01*
X165885904Y-107005380D02*
X165885904Y-106005380D01*
X166266857Y-106005380D01*
X166362095Y-106053000D01*
X166409714Y-106100619D01*
X166457333Y-106195857D01*
X166457333Y-106338714D01*
X166409714Y-106433952D01*
X166362095Y-106481571D01*
X166266857Y-106529190D01*
X165885904Y-106529190D01*
X167409714Y-107005380D02*
X166838285Y-107005380D01*
X167124000Y-107005380D02*
X167124000Y-106005380D01*
X167028761Y-106148238D01*
X166933523Y-106243476D01*
X166838285Y-106291095D01*
M02*
