G04 #@! TF.GenerationSoftware,KiCad,Pcbnew,(5.1.7)-1*
G04 #@! TF.CreationDate,2020-11-09T15:11:53-06:00*
G04 #@! TF.ProjectId,snesdecoder,736e6573-6465-4636-9f64-65722e6b6963,v01*
G04 #@! TF.SameCoordinates,Original*
G04 #@! TF.FileFunction,Copper,L2,Bot*
G04 #@! TF.FilePolarity,Positive*
%FSLAX46Y46*%
G04 Gerber Fmt 4.6, Leading zero omitted, Abs format (unit mm)*
G04 Created by KiCad (PCBNEW (5.1.7)-1) date 2020-11-09 15:11:53*
%MOMM*%
%LPD*%
G01*
G04 APERTURE LIST*
G04 #@! TA.AperFunction,ViaPad*
%ADD10C,0.508000*%
G04 #@! TD*
G04 #@! TA.AperFunction,Conductor*
%ADD11C,0.152400*%
G04 #@! TD*
G04 #@! TA.AperFunction,Conductor*
%ADD12C,0.254000*%
G04 #@! TD*
G04 #@! TA.AperFunction,Conductor*
%ADD13C,0.100000*%
G04 #@! TD*
G04 APERTURE END LIST*
D10*
X160401000Y-96901000D03*
X160147000Y-102997000D03*
X154025590Y-101473000D03*
X154432000Y-93218000D03*
X159512000Y-101346000D03*
X158750000Y-105918000D03*
X159512000Y-93552600D03*
X159940000Y-94408000D03*
X168148000Y-108331000D03*
X138684000Y-93218000D03*
X146685000Y-100838000D03*
X146685000Y-93218000D03*
X162306000Y-109601000D03*
X151282400Y-103251000D03*
X151511000Y-100203000D03*
X164211000Y-103251000D03*
X161544000Y-97536000D03*
X169545000Y-101600000D03*
X168021000Y-100330000D03*
X148463000Y-94488000D03*
X140208000Y-94488000D03*
X163576000Y-95758000D03*
X155067000Y-93853000D03*
X139571640Y-96954084D03*
X150114000Y-103251000D03*
X162687000Y-95123000D03*
X155575000Y-94488000D03*
X162560000Y-97028000D03*
X160782000Y-103251000D03*
X148419601Y-101092000D03*
X140690600Y-100203000D03*
X158242000Y-107569000D03*
X156845000Y-104140000D03*
X154051000Y-103124000D03*
X154305000Y-100711000D03*
X164211000Y-101473000D03*
X166878000Y-100330000D03*
D11*
X160401000Y-102743000D02*
X160147000Y-102997000D01*
X160401000Y-96901000D02*
X160401000Y-102743000D01*
X151282400Y-100431600D02*
X151511000Y-100203000D01*
X151282400Y-103251000D02*
X151282400Y-100431600D01*
X161544000Y-100584000D02*
X161544000Y-97536000D01*
X164211000Y-103251000D02*
X161544000Y-100584000D01*
X168275000Y-100330000D02*
X168021000Y-100330000D01*
X169545000Y-101600000D02*
X168275000Y-100330000D01*
X148463000Y-94488000D02*
X140208000Y-94488000D01*
X155067000Y-94694250D02*
X155067000Y-93853000D01*
X156130750Y-95758000D02*
X155067000Y-94694250D01*
X163576000Y-95758000D02*
X156130750Y-95758000D01*
X150114000Y-103251000D02*
X142875000Y-103251000D01*
X139571640Y-99947640D02*
X139571640Y-96954084D01*
X142875000Y-103251000D02*
X139571640Y-99947640D01*
X156210000Y-95123000D02*
X155575000Y-94488000D01*
X161036000Y-95123000D02*
X156210000Y-95123000D01*
X161036000Y-95123000D02*
X162687000Y-95123000D01*
X162560000Y-97028000D02*
X161036000Y-97028000D01*
X160782000Y-97282000D02*
X160782000Y-98933000D01*
X161036000Y-97028000D02*
X160782000Y-97282000D01*
X160782000Y-98933000D02*
X160782000Y-98806000D01*
X160782000Y-103251000D02*
X160782000Y-98933000D01*
X148419601Y-101092000D02*
X147530601Y-100203000D01*
X147530601Y-100203000D02*
X140690600Y-100203000D01*
X156845000Y-106172000D02*
X156845000Y-104140000D01*
X158242000Y-107569000D02*
X156845000Y-106172000D01*
X154051000Y-103124000D02*
X154813000Y-102362000D01*
X154813000Y-101219000D02*
X154305000Y-100711000D01*
X154813000Y-102362000D02*
X154813000Y-101219000D01*
X165735000Y-101473000D02*
X166878000Y-100330000D01*
X164211000Y-101473000D02*
X165735000Y-101473000D01*
D12*
X170587601Y-111532600D02*
X135101400Y-111532600D01*
X135101400Y-104087465D01*
X156311600Y-104087465D01*
X156311600Y-104192535D01*
X156332098Y-104295587D01*
X156372307Y-104392660D01*
X156430681Y-104480023D01*
X156489401Y-104538743D01*
X156489400Y-106154544D01*
X156487681Y-106172000D01*
X156489400Y-106189455D01*
X156489400Y-106189462D01*
X156494546Y-106241709D01*
X156514879Y-106308739D01*
X156547899Y-106370515D01*
X156592337Y-106424662D01*
X156605901Y-106435794D01*
X157708600Y-107538495D01*
X157708600Y-107621535D01*
X157729098Y-107724587D01*
X157769307Y-107821660D01*
X157827681Y-107909023D01*
X157901977Y-107983319D01*
X157989340Y-108041693D01*
X158086413Y-108081902D01*
X158189465Y-108102400D01*
X158294535Y-108102400D01*
X158397587Y-108081902D01*
X158494660Y-108041693D01*
X158582023Y-107983319D01*
X158656319Y-107909023D01*
X158714693Y-107821660D01*
X158754902Y-107724587D01*
X158775400Y-107621535D01*
X158775400Y-107516465D01*
X158754902Y-107413413D01*
X158714693Y-107316340D01*
X158656319Y-107228977D01*
X158582023Y-107154681D01*
X158494660Y-107096307D01*
X158397587Y-107056098D01*
X158294535Y-107035600D01*
X158211495Y-107035600D01*
X157200600Y-106024707D01*
X157200600Y-104538742D01*
X157259319Y-104480023D01*
X157317693Y-104392660D01*
X157357902Y-104295587D01*
X157378400Y-104192535D01*
X157378400Y-104087465D01*
X157357902Y-103984413D01*
X157317693Y-103887340D01*
X157259319Y-103799977D01*
X157185023Y-103725681D01*
X157097660Y-103667307D01*
X157000587Y-103627098D01*
X156897535Y-103606600D01*
X156792465Y-103606600D01*
X156689413Y-103627098D01*
X156592340Y-103667307D01*
X156504977Y-103725681D01*
X156430681Y-103799977D01*
X156372307Y-103887340D01*
X156332098Y-103984413D01*
X156311600Y-104087465D01*
X135101400Y-104087465D01*
X135101400Y-96901549D01*
X139038240Y-96901549D01*
X139038240Y-97006619D01*
X139058738Y-97109671D01*
X139098947Y-97206744D01*
X139157321Y-97294107D01*
X139216041Y-97352827D01*
X139216040Y-99930184D01*
X139214321Y-99947640D01*
X139216040Y-99965095D01*
X139216040Y-99965102D01*
X139221186Y-100017349D01*
X139241519Y-100084379D01*
X139274539Y-100146155D01*
X139318977Y-100200302D01*
X139332542Y-100211435D01*
X142611206Y-103490100D01*
X142622337Y-103503663D01*
X142676484Y-103548101D01*
X142738260Y-103581121D01*
X142805290Y-103601454D01*
X142857537Y-103606600D01*
X142857545Y-103606600D01*
X142875000Y-103608319D01*
X142892455Y-103606600D01*
X149715258Y-103606600D01*
X149773977Y-103665319D01*
X149861340Y-103723693D01*
X149958413Y-103763902D01*
X150061465Y-103784400D01*
X150166535Y-103784400D01*
X150269587Y-103763902D01*
X150366660Y-103723693D01*
X150454023Y-103665319D01*
X150528319Y-103591023D01*
X150586693Y-103503660D01*
X150626902Y-103406587D01*
X150647400Y-103303535D01*
X150647400Y-103198465D01*
X150749000Y-103198465D01*
X150749000Y-103303535D01*
X150769498Y-103406587D01*
X150809707Y-103503660D01*
X150868081Y-103591023D01*
X150942377Y-103665319D01*
X151029740Y-103723693D01*
X151126813Y-103763902D01*
X151229865Y-103784400D01*
X151334935Y-103784400D01*
X151437987Y-103763902D01*
X151535060Y-103723693D01*
X151622423Y-103665319D01*
X151696719Y-103591023D01*
X151755093Y-103503660D01*
X151795302Y-103406587D01*
X151815800Y-103303535D01*
X151815800Y-103198465D01*
X151795302Y-103095413D01*
X151785383Y-103071465D01*
X153517600Y-103071465D01*
X153517600Y-103176535D01*
X153538098Y-103279587D01*
X153578307Y-103376660D01*
X153636681Y-103464023D01*
X153710977Y-103538319D01*
X153798340Y-103596693D01*
X153895413Y-103636902D01*
X153998465Y-103657400D01*
X154103535Y-103657400D01*
X154206587Y-103636902D01*
X154303660Y-103596693D01*
X154391023Y-103538319D01*
X154465319Y-103464023D01*
X154523693Y-103376660D01*
X154563902Y-103279587D01*
X154584400Y-103176535D01*
X154584400Y-103093493D01*
X154733428Y-102944465D01*
X159613600Y-102944465D01*
X159613600Y-103049535D01*
X159634098Y-103152587D01*
X159674307Y-103249660D01*
X159732681Y-103337023D01*
X159806977Y-103411319D01*
X159894340Y-103469693D01*
X159991413Y-103509902D01*
X160094465Y-103530400D01*
X160199535Y-103530400D01*
X160302587Y-103509902D01*
X160311117Y-103506369D01*
X160367681Y-103591023D01*
X160441977Y-103665319D01*
X160529340Y-103723693D01*
X160626413Y-103763902D01*
X160729465Y-103784400D01*
X160834535Y-103784400D01*
X160937587Y-103763902D01*
X161034660Y-103723693D01*
X161122023Y-103665319D01*
X161196319Y-103591023D01*
X161254693Y-103503660D01*
X161294902Y-103406587D01*
X161315400Y-103303535D01*
X161315400Y-103198465D01*
X161294902Y-103095413D01*
X161254693Y-102998340D01*
X161196319Y-102910977D01*
X161137600Y-102852258D01*
X161137600Y-97883942D01*
X161188401Y-97934743D01*
X161188400Y-100566544D01*
X161186681Y-100584000D01*
X161188400Y-100601455D01*
X161188400Y-100601462D01*
X161191222Y-100630115D01*
X161193546Y-100653710D01*
X161195491Y-100660121D01*
X161213879Y-100720739D01*
X161246899Y-100782515D01*
X161291337Y-100836662D01*
X161304902Y-100847795D01*
X163677600Y-103220494D01*
X163677600Y-103303535D01*
X163698098Y-103406587D01*
X163738307Y-103503660D01*
X163796681Y-103591023D01*
X163870977Y-103665319D01*
X163958340Y-103723693D01*
X164055413Y-103763902D01*
X164158465Y-103784400D01*
X164263535Y-103784400D01*
X164366587Y-103763902D01*
X164463660Y-103723693D01*
X164551023Y-103665319D01*
X164625319Y-103591023D01*
X164683693Y-103503660D01*
X164723902Y-103406587D01*
X164744400Y-103303535D01*
X164744400Y-103198465D01*
X164723902Y-103095413D01*
X164683693Y-102998340D01*
X164625319Y-102910977D01*
X164551023Y-102836681D01*
X164463660Y-102778307D01*
X164366587Y-102738098D01*
X164263535Y-102717600D01*
X164180494Y-102717600D01*
X162883359Y-101420465D01*
X163677600Y-101420465D01*
X163677600Y-101525535D01*
X163698098Y-101628587D01*
X163738307Y-101725660D01*
X163796681Y-101813023D01*
X163870977Y-101887319D01*
X163958340Y-101945693D01*
X164055413Y-101985902D01*
X164158465Y-102006400D01*
X164263535Y-102006400D01*
X164366587Y-101985902D01*
X164463660Y-101945693D01*
X164551023Y-101887319D01*
X164609742Y-101828600D01*
X165717545Y-101828600D01*
X165735000Y-101830319D01*
X165752455Y-101828600D01*
X165752463Y-101828600D01*
X165804710Y-101823454D01*
X165871740Y-101803121D01*
X165933516Y-101770101D01*
X165987663Y-101725663D01*
X165998799Y-101712094D01*
X166847494Y-100863400D01*
X166930535Y-100863400D01*
X167033587Y-100842902D01*
X167130660Y-100802693D01*
X167218023Y-100744319D01*
X167292319Y-100670023D01*
X167350693Y-100582660D01*
X167390902Y-100485587D01*
X167411400Y-100382535D01*
X167411400Y-100277465D01*
X167487600Y-100277465D01*
X167487600Y-100382535D01*
X167508098Y-100485587D01*
X167548307Y-100582660D01*
X167606681Y-100670023D01*
X167680977Y-100744319D01*
X167768340Y-100802693D01*
X167865413Y-100842902D01*
X167968465Y-100863400D01*
X168073535Y-100863400D01*
X168176587Y-100842902D01*
X168253253Y-100811146D01*
X169011600Y-101569495D01*
X169011600Y-101652535D01*
X169032098Y-101755587D01*
X169072307Y-101852660D01*
X169130681Y-101940023D01*
X169204977Y-102014319D01*
X169292340Y-102072693D01*
X169389413Y-102112902D01*
X169492465Y-102133400D01*
X169597535Y-102133400D01*
X169700587Y-102112902D01*
X169797660Y-102072693D01*
X169885023Y-102014319D01*
X169959319Y-101940023D01*
X170017693Y-101852660D01*
X170057902Y-101755587D01*
X170078400Y-101652535D01*
X170078400Y-101547465D01*
X170057902Y-101444413D01*
X170017693Y-101347340D01*
X169959319Y-101259977D01*
X169885023Y-101185681D01*
X169797660Y-101127307D01*
X169700587Y-101087098D01*
X169597535Y-101066600D01*
X169514495Y-101066600D01*
X168538799Y-100090906D01*
X168527663Y-100077337D01*
X168473516Y-100032899D01*
X168458711Y-100024985D01*
X168435319Y-99989977D01*
X168361023Y-99915681D01*
X168273660Y-99857307D01*
X168176587Y-99817098D01*
X168073535Y-99796600D01*
X167968465Y-99796600D01*
X167865413Y-99817098D01*
X167768340Y-99857307D01*
X167680977Y-99915681D01*
X167606681Y-99989977D01*
X167548307Y-100077340D01*
X167508098Y-100174413D01*
X167487600Y-100277465D01*
X167411400Y-100277465D01*
X167390902Y-100174413D01*
X167350693Y-100077340D01*
X167292319Y-99989977D01*
X167218023Y-99915681D01*
X167130660Y-99857307D01*
X167033587Y-99817098D01*
X166930535Y-99796600D01*
X166825465Y-99796600D01*
X166722413Y-99817098D01*
X166625340Y-99857307D01*
X166537977Y-99915681D01*
X166463681Y-99989977D01*
X166405307Y-100077340D01*
X166365098Y-100174413D01*
X166344600Y-100277465D01*
X166344600Y-100360506D01*
X165587707Y-101117400D01*
X164609742Y-101117400D01*
X164551023Y-101058681D01*
X164463660Y-101000307D01*
X164366587Y-100960098D01*
X164263535Y-100939600D01*
X164158465Y-100939600D01*
X164055413Y-100960098D01*
X163958340Y-101000307D01*
X163870977Y-101058681D01*
X163796681Y-101132977D01*
X163738307Y-101220340D01*
X163698098Y-101317413D01*
X163677600Y-101420465D01*
X162883359Y-101420465D01*
X161899600Y-100436707D01*
X161899600Y-97934742D01*
X161958319Y-97876023D01*
X162016693Y-97788660D01*
X162056902Y-97691587D01*
X162077400Y-97588535D01*
X162077400Y-97483465D01*
X162057536Y-97383600D01*
X162161258Y-97383600D01*
X162219977Y-97442319D01*
X162307340Y-97500693D01*
X162404413Y-97540902D01*
X162507465Y-97561400D01*
X162612535Y-97561400D01*
X162715587Y-97540902D01*
X162812660Y-97500693D01*
X162900023Y-97442319D01*
X162974319Y-97368023D01*
X163032693Y-97280660D01*
X163072902Y-97183587D01*
X163093400Y-97080535D01*
X163093400Y-96975465D01*
X163072902Y-96872413D01*
X163032693Y-96775340D01*
X162974319Y-96687977D01*
X162900023Y-96613681D01*
X162812660Y-96555307D01*
X162715587Y-96515098D01*
X162612535Y-96494600D01*
X162507465Y-96494600D01*
X162404413Y-96515098D01*
X162307340Y-96555307D01*
X162219977Y-96613681D01*
X162161258Y-96672400D01*
X161053452Y-96672400D01*
X161035999Y-96670681D01*
X161018546Y-96672400D01*
X161018537Y-96672400D01*
X160966290Y-96677546D01*
X160899260Y-96697879D01*
X160895128Y-96700088D01*
X160873693Y-96648340D01*
X160815319Y-96560977D01*
X160741023Y-96486681D01*
X160653660Y-96428307D01*
X160556587Y-96388098D01*
X160453535Y-96367600D01*
X160348465Y-96367600D01*
X160245413Y-96388098D01*
X160148340Y-96428307D01*
X160060977Y-96486681D01*
X159986681Y-96560977D01*
X159928307Y-96648340D01*
X159888098Y-96745413D01*
X159867600Y-96848465D01*
X159867600Y-96953535D01*
X159888098Y-97056587D01*
X159928307Y-97153660D01*
X159986681Y-97241023D01*
X160045400Y-97299742D01*
X160045401Y-102473359D01*
X159991413Y-102484098D01*
X159894340Y-102524307D01*
X159806977Y-102582681D01*
X159732681Y-102656977D01*
X159674307Y-102744340D01*
X159634098Y-102841413D01*
X159613600Y-102944465D01*
X154733428Y-102944465D01*
X155052104Y-102625790D01*
X155065662Y-102614663D01*
X155076790Y-102601104D01*
X155076795Y-102601099D01*
X155110101Y-102560516D01*
X155143120Y-102498741D01*
X155143121Y-102498740D01*
X155163454Y-102431710D01*
X155168600Y-102379463D01*
X155168600Y-102379455D01*
X155170319Y-102362000D01*
X155168600Y-102344545D01*
X155168600Y-101236452D01*
X155170319Y-101218999D01*
X155168600Y-101201546D01*
X155168600Y-101201537D01*
X155163454Y-101149290D01*
X155143121Y-101082260D01*
X155110101Y-101020484D01*
X155093542Y-101000307D01*
X155076795Y-100979900D01*
X155076790Y-100979895D01*
X155065663Y-100966337D01*
X155052105Y-100955210D01*
X154838400Y-100741506D01*
X154838400Y-100658465D01*
X154817902Y-100555413D01*
X154777693Y-100458340D01*
X154719319Y-100370977D01*
X154645023Y-100296681D01*
X154557660Y-100238307D01*
X154460587Y-100198098D01*
X154357535Y-100177600D01*
X154252465Y-100177600D01*
X154149413Y-100198098D01*
X154052340Y-100238307D01*
X153964977Y-100296681D01*
X153890681Y-100370977D01*
X153832307Y-100458340D01*
X153792098Y-100555413D01*
X153771600Y-100658465D01*
X153771600Y-100763535D01*
X153792098Y-100866587D01*
X153832307Y-100963660D01*
X153890681Y-101051023D01*
X153964977Y-101125319D01*
X154052340Y-101183693D01*
X154149413Y-101223902D01*
X154252465Y-101244400D01*
X154335506Y-101244400D01*
X154457401Y-101366295D01*
X154457400Y-102214706D01*
X154081507Y-102590600D01*
X153998465Y-102590600D01*
X153895413Y-102611098D01*
X153798340Y-102651307D01*
X153710977Y-102709681D01*
X153636681Y-102783977D01*
X153578307Y-102871340D01*
X153538098Y-102968413D01*
X153517600Y-103071465D01*
X151785383Y-103071465D01*
X151755093Y-102998340D01*
X151696719Y-102910977D01*
X151638000Y-102852258D01*
X151638000Y-100721588D01*
X151666587Y-100715902D01*
X151763660Y-100675693D01*
X151851023Y-100617319D01*
X151925319Y-100543023D01*
X151983693Y-100455660D01*
X152023902Y-100358587D01*
X152044400Y-100255535D01*
X152044400Y-100150465D01*
X152023902Y-100047413D01*
X151983693Y-99950340D01*
X151925319Y-99862977D01*
X151851023Y-99788681D01*
X151763660Y-99730307D01*
X151666587Y-99690098D01*
X151563535Y-99669600D01*
X151458465Y-99669600D01*
X151355413Y-99690098D01*
X151258340Y-99730307D01*
X151170977Y-99788681D01*
X151096681Y-99862977D01*
X151038307Y-99950340D01*
X150998098Y-100047413D01*
X150977600Y-100150465D01*
X150977600Y-100247490D01*
X150974184Y-100253880D01*
X150952280Y-100294859D01*
X150931946Y-100361890D01*
X150925081Y-100431600D01*
X150926801Y-100449065D01*
X150926800Y-102852258D01*
X150868081Y-102910977D01*
X150809707Y-102998340D01*
X150769498Y-103095413D01*
X150749000Y-103198465D01*
X150647400Y-103198465D01*
X150626902Y-103095413D01*
X150586693Y-102998340D01*
X150528319Y-102910977D01*
X150454023Y-102836681D01*
X150366660Y-102778307D01*
X150269587Y-102738098D01*
X150166535Y-102717600D01*
X150061465Y-102717600D01*
X149958413Y-102738098D01*
X149861340Y-102778307D01*
X149773977Y-102836681D01*
X149715258Y-102895400D01*
X143022294Y-102895400D01*
X140843358Y-100716465D01*
X140846187Y-100715902D01*
X140943260Y-100675693D01*
X141030623Y-100617319D01*
X141089342Y-100558600D01*
X147383308Y-100558600D01*
X147886201Y-101061494D01*
X147886201Y-101144535D01*
X147906699Y-101247587D01*
X147946908Y-101344660D01*
X148005282Y-101432023D01*
X148079578Y-101506319D01*
X148166941Y-101564693D01*
X148264014Y-101604902D01*
X148367066Y-101625400D01*
X148472136Y-101625400D01*
X148575188Y-101604902D01*
X148672261Y-101564693D01*
X148759624Y-101506319D01*
X148833920Y-101432023D01*
X148892294Y-101344660D01*
X148932503Y-101247587D01*
X148953001Y-101144535D01*
X148953001Y-101039465D01*
X148932503Y-100936413D01*
X148892294Y-100839340D01*
X148833920Y-100751977D01*
X148759624Y-100677681D01*
X148672261Y-100619307D01*
X148575188Y-100579098D01*
X148472136Y-100558600D01*
X148389095Y-100558600D01*
X147794400Y-99963906D01*
X147783264Y-99950337D01*
X147729117Y-99905899D01*
X147667341Y-99872879D01*
X147600311Y-99852546D01*
X147548064Y-99847400D01*
X147548056Y-99847400D01*
X147530601Y-99845681D01*
X147513146Y-99847400D01*
X141089342Y-99847400D01*
X141030623Y-99788681D01*
X140943260Y-99730307D01*
X140846187Y-99690098D01*
X140743135Y-99669600D01*
X140638065Y-99669600D01*
X140535013Y-99690098D01*
X140437940Y-99730307D01*
X140350577Y-99788681D01*
X140276281Y-99862977D01*
X140217907Y-99950340D01*
X140177698Y-100047413D01*
X140177135Y-100050242D01*
X139927240Y-99800347D01*
X139927240Y-97352826D01*
X139985959Y-97294107D01*
X140044333Y-97206744D01*
X140084542Y-97109671D01*
X140105040Y-97006619D01*
X140105040Y-96901549D01*
X140084542Y-96798497D01*
X140044333Y-96701424D01*
X139985959Y-96614061D01*
X139911663Y-96539765D01*
X139824300Y-96481391D01*
X139727227Y-96441182D01*
X139624175Y-96420684D01*
X139519105Y-96420684D01*
X139416053Y-96441182D01*
X139318980Y-96481391D01*
X139231617Y-96539765D01*
X139157321Y-96614061D01*
X139098947Y-96701424D01*
X139058738Y-96798497D01*
X139038240Y-96901549D01*
X135101400Y-96901549D01*
X135101400Y-94435465D01*
X139674600Y-94435465D01*
X139674600Y-94540535D01*
X139695098Y-94643587D01*
X139735307Y-94740660D01*
X139793681Y-94828023D01*
X139867977Y-94902319D01*
X139955340Y-94960693D01*
X140052413Y-95000902D01*
X140155465Y-95021400D01*
X140260535Y-95021400D01*
X140363587Y-95000902D01*
X140460660Y-94960693D01*
X140548023Y-94902319D01*
X140606742Y-94843600D01*
X148064258Y-94843600D01*
X148122977Y-94902319D01*
X148210340Y-94960693D01*
X148307413Y-95000902D01*
X148410465Y-95021400D01*
X148515535Y-95021400D01*
X148618587Y-95000902D01*
X148715660Y-94960693D01*
X148803023Y-94902319D01*
X148877319Y-94828023D01*
X148935693Y-94740660D01*
X148975902Y-94643587D01*
X148996400Y-94540535D01*
X148996400Y-94435465D01*
X148975902Y-94332413D01*
X148935693Y-94235340D01*
X148877319Y-94147977D01*
X148803023Y-94073681D01*
X148715660Y-94015307D01*
X148618587Y-93975098D01*
X148515535Y-93954600D01*
X148410465Y-93954600D01*
X148307413Y-93975098D01*
X148210340Y-94015307D01*
X148122977Y-94073681D01*
X148064258Y-94132400D01*
X140606742Y-94132400D01*
X140548023Y-94073681D01*
X140460660Y-94015307D01*
X140363587Y-93975098D01*
X140260535Y-93954600D01*
X140155465Y-93954600D01*
X140052413Y-93975098D01*
X139955340Y-94015307D01*
X139867977Y-94073681D01*
X139793681Y-94147977D01*
X139735307Y-94235340D01*
X139695098Y-94332413D01*
X139674600Y-94435465D01*
X135101400Y-94435465D01*
X135101400Y-93800465D01*
X154533600Y-93800465D01*
X154533600Y-93905535D01*
X154554098Y-94008587D01*
X154594307Y-94105660D01*
X154652681Y-94193023D01*
X154711401Y-94251743D01*
X154711400Y-94676794D01*
X154709681Y-94694250D01*
X154711400Y-94711705D01*
X154711400Y-94711712D01*
X154716546Y-94763959D01*
X154736879Y-94830989D01*
X154769899Y-94892765D01*
X154814337Y-94946912D01*
X154827902Y-94958045D01*
X155866956Y-95997100D01*
X155878087Y-96010663D01*
X155932234Y-96055101D01*
X155994010Y-96088121D01*
X156061040Y-96108454D01*
X156113287Y-96113600D01*
X156113295Y-96113600D01*
X156130750Y-96115319D01*
X156148205Y-96113600D01*
X163177258Y-96113600D01*
X163235977Y-96172319D01*
X163323340Y-96230693D01*
X163420413Y-96270902D01*
X163523465Y-96291400D01*
X163628535Y-96291400D01*
X163731587Y-96270902D01*
X163828660Y-96230693D01*
X163916023Y-96172319D01*
X163990319Y-96098023D01*
X164048693Y-96010660D01*
X164088902Y-95913587D01*
X164109400Y-95810535D01*
X164109400Y-95705465D01*
X164088902Y-95602413D01*
X164048693Y-95505340D01*
X163990319Y-95417977D01*
X163916023Y-95343681D01*
X163828660Y-95285307D01*
X163731587Y-95245098D01*
X163628535Y-95224600D01*
X163523465Y-95224600D01*
X163420413Y-95245098D01*
X163323340Y-95285307D01*
X163235977Y-95343681D01*
X163177258Y-95402400D01*
X163141826Y-95402400D01*
X163159693Y-95375660D01*
X163199902Y-95278587D01*
X163220400Y-95175535D01*
X163220400Y-95070465D01*
X163199902Y-94967413D01*
X163159693Y-94870340D01*
X163101319Y-94782977D01*
X163027023Y-94708681D01*
X162939660Y-94650307D01*
X162842587Y-94610098D01*
X162739535Y-94589600D01*
X162634465Y-94589600D01*
X162531413Y-94610098D01*
X162434340Y-94650307D01*
X162346977Y-94708681D01*
X162288258Y-94767400D01*
X156357294Y-94767400D01*
X156108400Y-94518507D01*
X156108400Y-94435465D01*
X156087902Y-94332413D01*
X156047693Y-94235340D01*
X155989319Y-94147977D01*
X155915023Y-94073681D01*
X155827660Y-94015307D01*
X155730587Y-93975098D01*
X155627535Y-93954600D01*
X155590641Y-93954600D01*
X155600400Y-93905535D01*
X155600400Y-93800465D01*
X155579902Y-93697413D01*
X155539693Y-93600340D01*
X155481319Y-93512977D01*
X155407023Y-93438681D01*
X155319660Y-93380307D01*
X155222587Y-93340098D01*
X155119535Y-93319600D01*
X155014465Y-93319600D01*
X154911413Y-93340098D01*
X154814340Y-93380307D01*
X154726977Y-93438681D01*
X154652681Y-93512977D01*
X154594307Y-93600340D01*
X154554098Y-93697413D01*
X154533600Y-93800465D01*
X135101400Y-93800465D01*
X135101400Y-92048400D01*
X170587600Y-92048400D01*
X170587601Y-111532600D01*
G04 #@! TA.AperFunction,Conductor*
D13*
G36*
X170587601Y-111532600D02*
G01*
X135101400Y-111532600D01*
X135101400Y-104087465D01*
X156311600Y-104087465D01*
X156311600Y-104192535D01*
X156332098Y-104295587D01*
X156372307Y-104392660D01*
X156430681Y-104480023D01*
X156489401Y-104538743D01*
X156489400Y-106154544D01*
X156487681Y-106172000D01*
X156489400Y-106189455D01*
X156489400Y-106189462D01*
X156494546Y-106241709D01*
X156514879Y-106308739D01*
X156547899Y-106370515D01*
X156592337Y-106424662D01*
X156605901Y-106435794D01*
X157708600Y-107538495D01*
X157708600Y-107621535D01*
X157729098Y-107724587D01*
X157769307Y-107821660D01*
X157827681Y-107909023D01*
X157901977Y-107983319D01*
X157989340Y-108041693D01*
X158086413Y-108081902D01*
X158189465Y-108102400D01*
X158294535Y-108102400D01*
X158397587Y-108081902D01*
X158494660Y-108041693D01*
X158582023Y-107983319D01*
X158656319Y-107909023D01*
X158714693Y-107821660D01*
X158754902Y-107724587D01*
X158775400Y-107621535D01*
X158775400Y-107516465D01*
X158754902Y-107413413D01*
X158714693Y-107316340D01*
X158656319Y-107228977D01*
X158582023Y-107154681D01*
X158494660Y-107096307D01*
X158397587Y-107056098D01*
X158294535Y-107035600D01*
X158211495Y-107035600D01*
X157200600Y-106024707D01*
X157200600Y-104538742D01*
X157259319Y-104480023D01*
X157317693Y-104392660D01*
X157357902Y-104295587D01*
X157378400Y-104192535D01*
X157378400Y-104087465D01*
X157357902Y-103984413D01*
X157317693Y-103887340D01*
X157259319Y-103799977D01*
X157185023Y-103725681D01*
X157097660Y-103667307D01*
X157000587Y-103627098D01*
X156897535Y-103606600D01*
X156792465Y-103606600D01*
X156689413Y-103627098D01*
X156592340Y-103667307D01*
X156504977Y-103725681D01*
X156430681Y-103799977D01*
X156372307Y-103887340D01*
X156332098Y-103984413D01*
X156311600Y-104087465D01*
X135101400Y-104087465D01*
X135101400Y-96901549D01*
X139038240Y-96901549D01*
X139038240Y-97006619D01*
X139058738Y-97109671D01*
X139098947Y-97206744D01*
X139157321Y-97294107D01*
X139216041Y-97352827D01*
X139216040Y-99930184D01*
X139214321Y-99947640D01*
X139216040Y-99965095D01*
X139216040Y-99965102D01*
X139221186Y-100017349D01*
X139241519Y-100084379D01*
X139274539Y-100146155D01*
X139318977Y-100200302D01*
X139332542Y-100211435D01*
X142611206Y-103490100D01*
X142622337Y-103503663D01*
X142676484Y-103548101D01*
X142738260Y-103581121D01*
X142805290Y-103601454D01*
X142857537Y-103606600D01*
X142857545Y-103606600D01*
X142875000Y-103608319D01*
X142892455Y-103606600D01*
X149715258Y-103606600D01*
X149773977Y-103665319D01*
X149861340Y-103723693D01*
X149958413Y-103763902D01*
X150061465Y-103784400D01*
X150166535Y-103784400D01*
X150269587Y-103763902D01*
X150366660Y-103723693D01*
X150454023Y-103665319D01*
X150528319Y-103591023D01*
X150586693Y-103503660D01*
X150626902Y-103406587D01*
X150647400Y-103303535D01*
X150647400Y-103198465D01*
X150749000Y-103198465D01*
X150749000Y-103303535D01*
X150769498Y-103406587D01*
X150809707Y-103503660D01*
X150868081Y-103591023D01*
X150942377Y-103665319D01*
X151029740Y-103723693D01*
X151126813Y-103763902D01*
X151229865Y-103784400D01*
X151334935Y-103784400D01*
X151437987Y-103763902D01*
X151535060Y-103723693D01*
X151622423Y-103665319D01*
X151696719Y-103591023D01*
X151755093Y-103503660D01*
X151795302Y-103406587D01*
X151815800Y-103303535D01*
X151815800Y-103198465D01*
X151795302Y-103095413D01*
X151785383Y-103071465D01*
X153517600Y-103071465D01*
X153517600Y-103176535D01*
X153538098Y-103279587D01*
X153578307Y-103376660D01*
X153636681Y-103464023D01*
X153710977Y-103538319D01*
X153798340Y-103596693D01*
X153895413Y-103636902D01*
X153998465Y-103657400D01*
X154103535Y-103657400D01*
X154206587Y-103636902D01*
X154303660Y-103596693D01*
X154391023Y-103538319D01*
X154465319Y-103464023D01*
X154523693Y-103376660D01*
X154563902Y-103279587D01*
X154584400Y-103176535D01*
X154584400Y-103093493D01*
X154733428Y-102944465D01*
X159613600Y-102944465D01*
X159613600Y-103049535D01*
X159634098Y-103152587D01*
X159674307Y-103249660D01*
X159732681Y-103337023D01*
X159806977Y-103411319D01*
X159894340Y-103469693D01*
X159991413Y-103509902D01*
X160094465Y-103530400D01*
X160199535Y-103530400D01*
X160302587Y-103509902D01*
X160311117Y-103506369D01*
X160367681Y-103591023D01*
X160441977Y-103665319D01*
X160529340Y-103723693D01*
X160626413Y-103763902D01*
X160729465Y-103784400D01*
X160834535Y-103784400D01*
X160937587Y-103763902D01*
X161034660Y-103723693D01*
X161122023Y-103665319D01*
X161196319Y-103591023D01*
X161254693Y-103503660D01*
X161294902Y-103406587D01*
X161315400Y-103303535D01*
X161315400Y-103198465D01*
X161294902Y-103095413D01*
X161254693Y-102998340D01*
X161196319Y-102910977D01*
X161137600Y-102852258D01*
X161137600Y-97883942D01*
X161188401Y-97934743D01*
X161188400Y-100566544D01*
X161186681Y-100584000D01*
X161188400Y-100601455D01*
X161188400Y-100601462D01*
X161191222Y-100630115D01*
X161193546Y-100653710D01*
X161195491Y-100660121D01*
X161213879Y-100720739D01*
X161246899Y-100782515D01*
X161291337Y-100836662D01*
X161304902Y-100847795D01*
X163677600Y-103220494D01*
X163677600Y-103303535D01*
X163698098Y-103406587D01*
X163738307Y-103503660D01*
X163796681Y-103591023D01*
X163870977Y-103665319D01*
X163958340Y-103723693D01*
X164055413Y-103763902D01*
X164158465Y-103784400D01*
X164263535Y-103784400D01*
X164366587Y-103763902D01*
X164463660Y-103723693D01*
X164551023Y-103665319D01*
X164625319Y-103591023D01*
X164683693Y-103503660D01*
X164723902Y-103406587D01*
X164744400Y-103303535D01*
X164744400Y-103198465D01*
X164723902Y-103095413D01*
X164683693Y-102998340D01*
X164625319Y-102910977D01*
X164551023Y-102836681D01*
X164463660Y-102778307D01*
X164366587Y-102738098D01*
X164263535Y-102717600D01*
X164180494Y-102717600D01*
X162883359Y-101420465D01*
X163677600Y-101420465D01*
X163677600Y-101525535D01*
X163698098Y-101628587D01*
X163738307Y-101725660D01*
X163796681Y-101813023D01*
X163870977Y-101887319D01*
X163958340Y-101945693D01*
X164055413Y-101985902D01*
X164158465Y-102006400D01*
X164263535Y-102006400D01*
X164366587Y-101985902D01*
X164463660Y-101945693D01*
X164551023Y-101887319D01*
X164609742Y-101828600D01*
X165717545Y-101828600D01*
X165735000Y-101830319D01*
X165752455Y-101828600D01*
X165752463Y-101828600D01*
X165804710Y-101823454D01*
X165871740Y-101803121D01*
X165933516Y-101770101D01*
X165987663Y-101725663D01*
X165998799Y-101712094D01*
X166847494Y-100863400D01*
X166930535Y-100863400D01*
X167033587Y-100842902D01*
X167130660Y-100802693D01*
X167218023Y-100744319D01*
X167292319Y-100670023D01*
X167350693Y-100582660D01*
X167390902Y-100485587D01*
X167411400Y-100382535D01*
X167411400Y-100277465D01*
X167487600Y-100277465D01*
X167487600Y-100382535D01*
X167508098Y-100485587D01*
X167548307Y-100582660D01*
X167606681Y-100670023D01*
X167680977Y-100744319D01*
X167768340Y-100802693D01*
X167865413Y-100842902D01*
X167968465Y-100863400D01*
X168073535Y-100863400D01*
X168176587Y-100842902D01*
X168253253Y-100811146D01*
X169011600Y-101569495D01*
X169011600Y-101652535D01*
X169032098Y-101755587D01*
X169072307Y-101852660D01*
X169130681Y-101940023D01*
X169204977Y-102014319D01*
X169292340Y-102072693D01*
X169389413Y-102112902D01*
X169492465Y-102133400D01*
X169597535Y-102133400D01*
X169700587Y-102112902D01*
X169797660Y-102072693D01*
X169885023Y-102014319D01*
X169959319Y-101940023D01*
X170017693Y-101852660D01*
X170057902Y-101755587D01*
X170078400Y-101652535D01*
X170078400Y-101547465D01*
X170057902Y-101444413D01*
X170017693Y-101347340D01*
X169959319Y-101259977D01*
X169885023Y-101185681D01*
X169797660Y-101127307D01*
X169700587Y-101087098D01*
X169597535Y-101066600D01*
X169514495Y-101066600D01*
X168538799Y-100090906D01*
X168527663Y-100077337D01*
X168473516Y-100032899D01*
X168458711Y-100024985D01*
X168435319Y-99989977D01*
X168361023Y-99915681D01*
X168273660Y-99857307D01*
X168176587Y-99817098D01*
X168073535Y-99796600D01*
X167968465Y-99796600D01*
X167865413Y-99817098D01*
X167768340Y-99857307D01*
X167680977Y-99915681D01*
X167606681Y-99989977D01*
X167548307Y-100077340D01*
X167508098Y-100174413D01*
X167487600Y-100277465D01*
X167411400Y-100277465D01*
X167390902Y-100174413D01*
X167350693Y-100077340D01*
X167292319Y-99989977D01*
X167218023Y-99915681D01*
X167130660Y-99857307D01*
X167033587Y-99817098D01*
X166930535Y-99796600D01*
X166825465Y-99796600D01*
X166722413Y-99817098D01*
X166625340Y-99857307D01*
X166537977Y-99915681D01*
X166463681Y-99989977D01*
X166405307Y-100077340D01*
X166365098Y-100174413D01*
X166344600Y-100277465D01*
X166344600Y-100360506D01*
X165587707Y-101117400D01*
X164609742Y-101117400D01*
X164551023Y-101058681D01*
X164463660Y-101000307D01*
X164366587Y-100960098D01*
X164263535Y-100939600D01*
X164158465Y-100939600D01*
X164055413Y-100960098D01*
X163958340Y-101000307D01*
X163870977Y-101058681D01*
X163796681Y-101132977D01*
X163738307Y-101220340D01*
X163698098Y-101317413D01*
X163677600Y-101420465D01*
X162883359Y-101420465D01*
X161899600Y-100436707D01*
X161899600Y-97934742D01*
X161958319Y-97876023D01*
X162016693Y-97788660D01*
X162056902Y-97691587D01*
X162077400Y-97588535D01*
X162077400Y-97483465D01*
X162057536Y-97383600D01*
X162161258Y-97383600D01*
X162219977Y-97442319D01*
X162307340Y-97500693D01*
X162404413Y-97540902D01*
X162507465Y-97561400D01*
X162612535Y-97561400D01*
X162715587Y-97540902D01*
X162812660Y-97500693D01*
X162900023Y-97442319D01*
X162974319Y-97368023D01*
X163032693Y-97280660D01*
X163072902Y-97183587D01*
X163093400Y-97080535D01*
X163093400Y-96975465D01*
X163072902Y-96872413D01*
X163032693Y-96775340D01*
X162974319Y-96687977D01*
X162900023Y-96613681D01*
X162812660Y-96555307D01*
X162715587Y-96515098D01*
X162612535Y-96494600D01*
X162507465Y-96494600D01*
X162404413Y-96515098D01*
X162307340Y-96555307D01*
X162219977Y-96613681D01*
X162161258Y-96672400D01*
X161053452Y-96672400D01*
X161035999Y-96670681D01*
X161018546Y-96672400D01*
X161018537Y-96672400D01*
X160966290Y-96677546D01*
X160899260Y-96697879D01*
X160895128Y-96700088D01*
X160873693Y-96648340D01*
X160815319Y-96560977D01*
X160741023Y-96486681D01*
X160653660Y-96428307D01*
X160556587Y-96388098D01*
X160453535Y-96367600D01*
X160348465Y-96367600D01*
X160245413Y-96388098D01*
X160148340Y-96428307D01*
X160060977Y-96486681D01*
X159986681Y-96560977D01*
X159928307Y-96648340D01*
X159888098Y-96745413D01*
X159867600Y-96848465D01*
X159867600Y-96953535D01*
X159888098Y-97056587D01*
X159928307Y-97153660D01*
X159986681Y-97241023D01*
X160045400Y-97299742D01*
X160045401Y-102473359D01*
X159991413Y-102484098D01*
X159894340Y-102524307D01*
X159806977Y-102582681D01*
X159732681Y-102656977D01*
X159674307Y-102744340D01*
X159634098Y-102841413D01*
X159613600Y-102944465D01*
X154733428Y-102944465D01*
X155052104Y-102625790D01*
X155065662Y-102614663D01*
X155076790Y-102601104D01*
X155076795Y-102601099D01*
X155110101Y-102560516D01*
X155143120Y-102498741D01*
X155143121Y-102498740D01*
X155163454Y-102431710D01*
X155168600Y-102379463D01*
X155168600Y-102379455D01*
X155170319Y-102362000D01*
X155168600Y-102344545D01*
X155168600Y-101236452D01*
X155170319Y-101218999D01*
X155168600Y-101201546D01*
X155168600Y-101201537D01*
X155163454Y-101149290D01*
X155143121Y-101082260D01*
X155110101Y-101020484D01*
X155093542Y-101000307D01*
X155076795Y-100979900D01*
X155076790Y-100979895D01*
X155065663Y-100966337D01*
X155052105Y-100955210D01*
X154838400Y-100741506D01*
X154838400Y-100658465D01*
X154817902Y-100555413D01*
X154777693Y-100458340D01*
X154719319Y-100370977D01*
X154645023Y-100296681D01*
X154557660Y-100238307D01*
X154460587Y-100198098D01*
X154357535Y-100177600D01*
X154252465Y-100177600D01*
X154149413Y-100198098D01*
X154052340Y-100238307D01*
X153964977Y-100296681D01*
X153890681Y-100370977D01*
X153832307Y-100458340D01*
X153792098Y-100555413D01*
X153771600Y-100658465D01*
X153771600Y-100763535D01*
X153792098Y-100866587D01*
X153832307Y-100963660D01*
X153890681Y-101051023D01*
X153964977Y-101125319D01*
X154052340Y-101183693D01*
X154149413Y-101223902D01*
X154252465Y-101244400D01*
X154335506Y-101244400D01*
X154457401Y-101366295D01*
X154457400Y-102214706D01*
X154081507Y-102590600D01*
X153998465Y-102590600D01*
X153895413Y-102611098D01*
X153798340Y-102651307D01*
X153710977Y-102709681D01*
X153636681Y-102783977D01*
X153578307Y-102871340D01*
X153538098Y-102968413D01*
X153517600Y-103071465D01*
X151785383Y-103071465D01*
X151755093Y-102998340D01*
X151696719Y-102910977D01*
X151638000Y-102852258D01*
X151638000Y-100721588D01*
X151666587Y-100715902D01*
X151763660Y-100675693D01*
X151851023Y-100617319D01*
X151925319Y-100543023D01*
X151983693Y-100455660D01*
X152023902Y-100358587D01*
X152044400Y-100255535D01*
X152044400Y-100150465D01*
X152023902Y-100047413D01*
X151983693Y-99950340D01*
X151925319Y-99862977D01*
X151851023Y-99788681D01*
X151763660Y-99730307D01*
X151666587Y-99690098D01*
X151563535Y-99669600D01*
X151458465Y-99669600D01*
X151355413Y-99690098D01*
X151258340Y-99730307D01*
X151170977Y-99788681D01*
X151096681Y-99862977D01*
X151038307Y-99950340D01*
X150998098Y-100047413D01*
X150977600Y-100150465D01*
X150977600Y-100247490D01*
X150974184Y-100253880D01*
X150952280Y-100294859D01*
X150931946Y-100361890D01*
X150925081Y-100431600D01*
X150926801Y-100449065D01*
X150926800Y-102852258D01*
X150868081Y-102910977D01*
X150809707Y-102998340D01*
X150769498Y-103095413D01*
X150749000Y-103198465D01*
X150647400Y-103198465D01*
X150626902Y-103095413D01*
X150586693Y-102998340D01*
X150528319Y-102910977D01*
X150454023Y-102836681D01*
X150366660Y-102778307D01*
X150269587Y-102738098D01*
X150166535Y-102717600D01*
X150061465Y-102717600D01*
X149958413Y-102738098D01*
X149861340Y-102778307D01*
X149773977Y-102836681D01*
X149715258Y-102895400D01*
X143022294Y-102895400D01*
X140843358Y-100716465D01*
X140846187Y-100715902D01*
X140943260Y-100675693D01*
X141030623Y-100617319D01*
X141089342Y-100558600D01*
X147383308Y-100558600D01*
X147886201Y-101061494D01*
X147886201Y-101144535D01*
X147906699Y-101247587D01*
X147946908Y-101344660D01*
X148005282Y-101432023D01*
X148079578Y-101506319D01*
X148166941Y-101564693D01*
X148264014Y-101604902D01*
X148367066Y-101625400D01*
X148472136Y-101625400D01*
X148575188Y-101604902D01*
X148672261Y-101564693D01*
X148759624Y-101506319D01*
X148833920Y-101432023D01*
X148892294Y-101344660D01*
X148932503Y-101247587D01*
X148953001Y-101144535D01*
X148953001Y-101039465D01*
X148932503Y-100936413D01*
X148892294Y-100839340D01*
X148833920Y-100751977D01*
X148759624Y-100677681D01*
X148672261Y-100619307D01*
X148575188Y-100579098D01*
X148472136Y-100558600D01*
X148389095Y-100558600D01*
X147794400Y-99963906D01*
X147783264Y-99950337D01*
X147729117Y-99905899D01*
X147667341Y-99872879D01*
X147600311Y-99852546D01*
X147548064Y-99847400D01*
X147548056Y-99847400D01*
X147530601Y-99845681D01*
X147513146Y-99847400D01*
X141089342Y-99847400D01*
X141030623Y-99788681D01*
X140943260Y-99730307D01*
X140846187Y-99690098D01*
X140743135Y-99669600D01*
X140638065Y-99669600D01*
X140535013Y-99690098D01*
X140437940Y-99730307D01*
X140350577Y-99788681D01*
X140276281Y-99862977D01*
X140217907Y-99950340D01*
X140177698Y-100047413D01*
X140177135Y-100050242D01*
X139927240Y-99800347D01*
X139927240Y-97352826D01*
X139985959Y-97294107D01*
X140044333Y-97206744D01*
X140084542Y-97109671D01*
X140105040Y-97006619D01*
X140105040Y-96901549D01*
X140084542Y-96798497D01*
X140044333Y-96701424D01*
X139985959Y-96614061D01*
X139911663Y-96539765D01*
X139824300Y-96481391D01*
X139727227Y-96441182D01*
X139624175Y-96420684D01*
X139519105Y-96420684D01*
X139416053Y-96441182D01*
X139318980Y-96481391D01*
X139231617Y-96539765D01*
X139157321Y-96614061D01*
X139098947Y-96701424D01*
X139058738Y-96798497D01*
X139038240Y-96901549D01*
X135101400Y-96901549D01*
X135101400Y-94435465D01*
X139674600Y-94435465D01*
X139674600Y-94540535D01*
X139695098Y-94643587D01*
X139735307Y-94740660D01*
X139793681Y-94828023D01*
X139867977Y-94902319D01*
X139955340Y-94960693D01*
X140052413Y-95000902D01*
X140155465Y-95021400D01*
X140260535Y-95021400D01*
X140363587Y-95000902D01*
X140460660Y-94960693D01*
X140548023Y-94902319D01*
X140606742Y-94843600D01*
X148064258Y-94843600D01*
X148122977Y-94902319D01*
X148210340Y-94960693D01*
X148307413Y-95000902D01*
X148410465Y-95021400D01*
X148515535Y-95021400D01*
X148618587Y-95000902D01*
X148715660Y-94960693D01*
X148803023Y-94902319D01*
X148877319Y-94828023D01*
X148935693Y-94740660D01*
X148975902Y-94643587D01*
X148996400Y-94540535D01*
X148996400Y-94435465D01*
X148975902Y-94332413D01*
X148935693Y-94235340D01*
X148877319Y-94147977D01*
X148803023Y-94073681D01*
X148715660Y-94015307D01*
X148618587Y-93975098D01*
X148515535Y-93954600D01*
X148410465Y-93954600D01*
X148307413Y-93975098D01*
X148210340Y-94015307D01*
X148122977Y-94073681D01*
X148064258Y-94132400D01*
X140606742Y-94132400D01*
X140548023Y-94073681D01*
X140460660Y-94015307D01*
X140363587Y-93975098D01*
X140260535Y-93954600D01*
X140155465Y-93954600D01*
X140052413Y-93975098D01*
X139955340Y-94015307D01*
X139867977Y-94073681D01*
X139793681Y-94147977D01*
X139735307Y-94235340D01*
X139695098Y-94332413D01*
X139674600Y-94435465D01*
X135101400Y-94435465D01*
X135101400Y-93800465D01*
X154533600Y-93800465D01*
X154533600Y-93905535D01*
X154554098Y-94008587D01*
X154594307Y-94105660D01*
X154652681Y-94193023D01*
X154711401Y-94251743D01*
X154711400Y-94676794D01*
X154709681Y-94694250D01*
X154711400Y-94711705D01*
X154711400Y-94711712D01*
X154716546Y-94763959D01*
X154736879Y-94830989D01*
X154769899Y-94892765D01*
X154814337Y-94946912D01*
X154827902Y-94958045D01*
X155866956Y-95997100D01*
X155878087Y-96010663D01*
X155932234Y-96055101D01*
X155994010Y-96088121D01*
X156061040Y-96108454D01*
X156113287Y-96113600D01*
X156113295Y-96113600D01*
X156130750Y-96115319D01*
X156148205Y-96113600D01*
X163177258Y-96113600D01*
X163235977Y-96172319D01*
X163323340Y-96230693D01*
X163420413Y-96270902D01*
X163523465Y-96291400D01*
X163628535Y-96291400D01*
X163731587Y-96270902D01*
X163828660Y-96230693D01*
X163916023Y-96172319D01*
X163990319Y-96098023D01*
X164048693Y-96010660D01*
X164088902Y-95913587D01*
X164109400Y-95810535D01*
X164109400Y-95705465D01*
X164088902Y-95602413D01*
X164048693Y-95505340D01*
X163990319Y-95417977D01*
X163916023Y-95343681D01*
X163828660Y-95285307D01*
X163731587Y-95245098D01*
X163628535Y-95224600D01*
X163523465Y-95224600D01*
X163420413Y-95245098D01*
X163323340Y-95285307D01*
X163235977Y-95343681D01*
X163177258Y-95402400D01*
X163141826Y-95402400D01*
X163159693Y-95375660D01*
X163199902Y-95278587D01*
X163220400Y-95175535D01*
X163220400Y-95070465D01*
X163199902Y-94967413D01*
X163159693Y-94870340D01*
X163101319Y-94782977D01*
X163027023Y-94708681D01*
X162939660Y-94650307D01*
X162842587Y-94610098D01*
X162739535Y-94589600D01*
X162634465Y-94589600D01*
X162531413Y-94610098D01*
X162434340Y-94650307D01*
X162346977Y-94708681D01*
X162288258Y-94767400D01*
X156357294Y-94767400D01*
X156108400Y-94518507D01*
X156108400Y-94435465D01*
X156087902Y-94332413D01*
X156047693Y-94235340D01*
X155989319Y-94147977D01*
X155915023Y-94073681D01*
X155827660Y-94015307D01*
X155730587Y-93975098D01*
X155627535Y-93954600D01*
X155590641Y-93954600D01*
X155600400Y-93905535D01*
X155600400Y-93800465D01*
X155579902Y-93697413D01*
X155539693Y-93600340D01*
X155481319Y-93512977D01*
X155407023Y-93438681D01*
X155319660Y-93380307D01*
X155222587Y-93340098D01*
X155119535Y-93319600D01*
X155014465Y-93319600D01*
X154911413Y-93340098D01*
X154814340Y-93380307D01*
X154726977Y-93438681D01*
X154652681Y-93512977D01*
X154594307Y-93600340D01*
X154554098Y-93697413D01*
X154533600Y-93800465D01*
X135101400Y-93800465D01*
X135101400Y-92048400D01*
X170587600Y-92048400D01*
X170587601Y-111532600D01*
G37*
G04 #@! TD.AperFunction*
M02*
