G04 #@! TF.GenerationSoftware,KiCad,Pcbnew,(5.1.7)-1*
G04 #@! TF.CreationDate,2020-11-15T12:51:32-06:00*
G04 #@! TF.ProjectId,snesdecoder,736e6573-6465-4636-9f64-65722e6b6963,v01*
G04 #@! TF.SameCoordinates,Original*
G04 #@! TF.FileFunction,Legend,Bot*
G04 #@! TF.FilePolarity,Positive*
%FSLAX46Y46*%
G04 Gerber Fmt 4.6, Leading zero omitted, Abs format (unit mm)*
G04 Created by KiCad (PCBNEW (5.1.7)-1) date 2020-11-15 12:51:32*
%MOMM*%
%LPD*%
G01*
G04 APERTURE LIST*
%ADD10C,0.120000*%
%ADD11C,0.150000*%
G04 APERTURE END LIST*
D10*
X163768000Y-89806000D02*
X162368000Y-89806000D01*
X162368000Y-87486000D02*
X164268000Y-87486000D01*
X169672000Y-79540000D02*
X173122000Y-79540000D01*
X169672000Y-79540000D02*
X167722000Y-79540000D01*
X169672000Y-89660000D02*
X171622000Y-89660000D01*
X169672000Y-89660000D02*
X167722000Y-89660000D01*
X159766000Y-77988000D02*
X163216000Y-77988000D01*
X159766000Y-77988000D02*
X157816000Y-77988000D01*
X159766000Y-86858000D02*
X161716000Y-86858000D01*
X159766000Y-86858000D02*
X157816000Y-86858000D01*
X158261252Y-93310000D02*
X157738748Y-93310000D01*
X158261252Y-91890000D02*
X157738748Y-91890000D01*
X156897000Y-88892748D02*
X156897000Y-89415252D01*
X158317000Y-88892748D02*
X158317000Y-89415252D01*
X164136000Y-80135252D02*
X164136000Y-79612748D01*
X165556000Y-80135252D02*
X165556000Y-79612748D01*
X169461252Y-78910000D02*
X168938748Y-78910000D01*
X169461252Y-77490000D02*
X168938748Y-77490000D01*
X163583252Y-92150000D02*
X163060748Y-92150000D01*
X163583252Y-90730000D02*
X163060748Y-90730000D01*
D11*
X164171380Y-84963095D02*
X164980904Y-84963095D01*
X165076142Y-85010714D01*
X165123761Y-85058333D01*
X165171380Y-85153571D01*
X165171380Y-85344047D01*
X165123761Y-85439285D01*
X165076142Y-85486904D01*
X164980904Y-85534523D01*
X164171380Y-85534523D01*
X164504714Y-86439285D02*
X165171380Y-86439285D01*
X164123761Y-86201190D02*
X164838047Y-85963095D01*
X164838047Y-86582142D01*
X170522904Y-84221380D02*
X170522904Y-85030904D01*
X170475285Y-85126142D01*
X170427666Y-85173761D01*
X170332428Y-85221380D01*
X170141952Y-85221380D01*
X170046714Y-85173761D01*
X169999095Y-85126142D01*
X169951476Y-85030904D01*
X169951476Y-84221380D01*
X169522904Y-84316619D02*
X169475285Y-84269000D01*
X169380047Y-84221380D01*
X169141952Y-84221380D01*
X169046714Y-84269000D01*
X168999095Y-84316619D01*
X168951476Y-84411857D01*
X168951476Y-84507095D01*
X168999095Y-84649952D01*
X169570523Y-85221380D01*
X168951476Y-85221380D01*
X160557904Y-81902380D02*
X160557904Y-82711904D01*
X160510285Y-82807142D01*
X160462666Y-82854761D01*
X160367428Y-82902380D01*
X160176952Y-82902380D01*
X160081714Y-82854761D01*
X160034095Y-82807142D01*
X159986476Y-82711904D01*
X159986476Y-81902380D01*
X158986476Y-82902380D02*
X159557904Y-82902380D01*
X159272190Y-82902380D02*
X159272190Y-81902380D01*
X159367428Y-82045238D01*
X159462666Y-82140476D01*
X159557904Y-82188095D01*
X161052380Y-92433333D02*
X160576190Y-92100000D01*
X161052380Y-91861904D02*
X160052380Y-91861904D01*
X160052380Y-92242857D01*
X160100000Y-92338095D01*
X160147619Y-92385714D01*
X160242857Y-92433333D01*
X160385714Y-92433333D01*
X160480952Y-92385714D01*
X160528571Y-92338095D01*
X160576190Y-92242857D01*
X160576190Y-91861904D01*
X160147619Y-92814285D02*
X160100000Y-92861904D01*
X160052380Y-92957142D01*
X160052380Y-93195238D01*
X160100000Y-93290476D01*
X160147619Y-93338095D01*
X160242857Y-93385714D01*
X160338095Y-93385714D01*
X160480952Y-93338095D01*
X161052380Y-92766666D01*
X161052380Y-93385714D01*
X156409380Y-88987333D02*
X155933190Y-88654000D01*
X156409380Y-88415904D02*
X155409380Y-88415904D01*
X155409380Y-88796857D01*
X155457000Y-88892095D01*
X155504619Y-88939714D01*
X155599857Y-88987333D01*
X155742714Y-88987333D01*
X155837952Y-88939714D01*
X155885571Y-88892095D01*
X155933190Y-88796857D01*
X155933190Y-88415904D01*
X156409380Y-89939714D02*
X156409380Y-89368285D01*
X156409380Y-89654000D02*
X155409380Y-89654000D01*
X155552238Y-89558761D01*
X155647476Y-89463523D01*
X155695095Y-89368285D01*
X166853142Y-79707333D02*
X166900761Y-79659714D01*
X166948380Y-79516857D01*
X166948380Y-79421619D01*
X166900761Y-79278761D01*
X166805523Y-79183523D01*
X166710285Y-79135904D01*
X166519809Y-79088285D01*
X166376952Y-79088285D01*
X166186476Y-79135904D01*
X166091238Y-79183523D01*
X165996000Y-79278761D01*
X165948380Y-79421619D01*
X165948380Y-79516857D01*
X165996000Y-79659714D01*
X166043619Y-79707333D01*
X165948380Y-80040666D02*
X165948380Y-80659714D01*
X166329333Y-80326380D01*
X166329333Y-80469238D01*
X166376952Y-80564476D01*
X166424571Y-80612095D01*
X166519809Y-80659714D01*
X166757904Y-80659714D01*
X166853142Y-80612095D01*
X166900761Y-80564476D01*
X166948380Y-80469238D01*
X166948380Y-80183523D01*
X166900761Y-80088285D01*
X166853142Y-80040666D01*
X172566666Y-78757142D02*
X172614285Y-78804761D01*
X172757142Y-78852380D01*
X172852380Y-78852380D01*
X172995238Y-78804761D01*
X173090476Y-78709523D01*
X173138095Y-78614285D01*
X173185714Y-78423809D01*
X173185714Y-78280952D01*
X173138095Y-78090476D01*
X173090476Y-77995238D01*
X172995238Y-77900000D01*
X172852380Y-77852380D01*
X172757142Y-77852380D01*
X172614285Y-77900000D01*
X172566666Y-77947619D01*
X172185714Y-77947619D02*
X172138095Y-77900000D01*
X172042857Y-77852380D01*
X171804761Y-77852380D01*
X171709523Y-77900000D01*
X171661904Y-77947619D01*
X171614285Y-78042857D01*
X171614285Y-78138095D01*
X171661904Y-78280952D01*
X172233333Y-78852380D01*
X171614285Y-78852380D01*
X163488666Y-93597142D02*
X163536285Y-93644761D01*
X163679142Y-93692380D01*
X163774380Y-93692380D01*
X163917238Y-93644761D01*
X164012476Y-93549523D01*
X164060095Y-93454285D01*
X164107714Y-93263809D01*
X164107714Y-93120952D01*
X164060095Y-92930476D01*
X164012476Y-92835238D01*
X163917238Y-92740000D01*
X163774380Y-92692380D01*
X163679142Y-92692380D01*
X163536285Y-92740000D01*
X163488666Y-92787619D01*
X162536285Y-93692380D02*
X163107714Y-93692380D01*
X162822000Y-93692380D02*
X162822000Y-92692380D01*
X162917238Y-92835238D01*
X163012476Y-92930476D01*
X163107714Y-92978095D01*
M02*
