M48
; DRILL file {KiCad (5.1.7)-1} date 11/09/20 15:12:46
; FORMAT={-:-/ absolute / inch / decimal}
; #@! TF.CreationDate,2020-11-09T15:12:46-06:00
; #@! TF.GenerationSoftware,Kicad,Pcbnew,(5.1.7)-1
FMAT,2
INCH
T1C0.0100
%
G90
G05
T1
X5.46Y-3.67
X5.4949Y-3.8171
X5.52Y-3.72
X5.539Y-3.945
X5.775Y-3.67
X5.775Y-3.97
X5.8433Y-3.98
X5.845Y-3.72
X5.91Y-4.065
X5.956Y-4.065
X5.965Y-3.945
X6.064Y-3.995
X6.065Y-4.06
X6.075Y-3.965
X6.08Y-3.67
X6.105Y-3.695
X6.125Y-3.72
X6.175Y-4.1
X6.23Y-4.235
X6.25Y-4.17
X6.28Y-3.6832
X6.28Y-3.99
X6.2969Y-3.7169
X6.305Y-4.055
X6.315Y-3.815
X6.33Y-4.065
X6.36Y-3.84
X6.39Y-4.315
X6.4Y-3.82
X6.405Y-3.745
X6.44Y-3.77
X6.465Y-3.995
X6.465Y-4.065
X6.57Y-3.95
X6.615Y-3.95
X6.62Y-4.265
X6.675Y-4.0
T0
M30
