G04 #@! TF.GenerationSoftware,KiCad,Pcbnew,(5.1.7)-1*
G04 #@! TF.CreationDate,2020-11-15T12:51:32-06:00*
G04 #@! TF.ProjectId,snesdecoder,736e6573-6465-4636-9f64-65722e6b6963,v01*
G04 #@! TF.SameCoordinates,Original*
G04 #@! TF.FileFunction,Copper,L1,Top*
G04 #@! TF.FilePolarity,Positive*
%FSLAX46Y46*%
G04 Gerber Fmt 4.6, Leading zero omitted, Abs format (unit mm)*
G04 Created by KiCad (PCBNEW (5.1.7)-1) date 2020-11-15 12:51:32*
%MOMM*%
%LPD*%
G01*
G04 APERTURE LIST*
G04 #@! TA.AperFunction,SMDPad,CuDef*
%ADD10R,1.500000X1.000000*%
G04 #@! TD*
G04 #@! TA.AperFunction,SMDPad,CuDef*
%ADD11R,1.000000X1.500000*%
G04 #@! TD*
G04 #@! TA.AperFunction,ViaPad*
%ADD12C,0.508000*%
G04 #@! TD*
G04 #@! TA.AperFunction,Conductor*
%ADD13C,0.152400*%
G04 #@! TD*
G04 APERTURE END LIST*
D10*
X170180000Y-78486000D03*
X172466000Y-79502000D03*
X170180000Y-80518000D03*
X172466000Y-81534000D03*
X170180000Y-82550000D03*
G04 #@! TA.AperFunction,SMDPad,CuDef*
G36*
G01*
X165042000Y-78001000D02*
X165042000Y-77701000D01*
G75*
G02*
X165192000Y-77551000I150000J0D01*
G01*
X166942000Y-77551000D01*
G75*
G02*
X167092000Y-77701000I0J-150000D01*
G01*
X167092000Y-78001000D01*
G75*
G02*
X166942000Y-78151000I-150000J0D01*
G01*
X165192000Y-78151000D01*
G75*
G02*
X165042000Y-78001000I0J150000D01*
G01*
G37*
G04 #@! TD.AperFunction*
G04 #@! TA.AperFunction,SMDPad,CuDef*
G36*
G01*
X165042000Y-79271000D02*
X165042000Y-78971000D01*
G75*
G02*
X165192000Y-78821000I150000J0D01*
G01*
X166942000Y-78821000D01*
G75*
G02*
X167092000Y-78971000I0J-150000D01*
G01*
X167092000Y-79271000D01*
G75*
G02*
X166942000Y-79421000I-150000J0D01*
G01*
X165192000Y-79421000D01*
G75*
G02*
X165042000Y-79271000I0J150000D01*
G01*
G37*
G04 #@! TD.AperFunction*
G04 #@! TA.AperFunction,SMDPad,CuDef*
G36*
G01*
X165042000Y-80541000D02*
X165042000Y-80241000D01*
G75*
G02*
X165192000Y-80091000I150000J0D01*
G01*
X166942000Y-80091000D01*
G75*
G02*
X167092000Y-80241000I0J-150000D01*
G01*
X167092000Y-80541000D01*
G75*
G02*
X166942000Y-80691000I-150000J0D01*
G01*
X165192000Y-80691000D01*
G75*
G02*
X165042000Y-80541000I0J150000D01*
G01*
G37*
G04 #@! TD.AperFunction*
G04 #@! TA.AperFunction,SMDPad,CuDef*
G36*
G01*
X165042000Y-81811000D02*
X165042000Y-81511000D01*
G75*
G02*
X165192000Y-81361000I150000J0D01*
G01*
X166942000Y-81361000D01*
G75*
G02*
X167092000Y-81511000I0J-150000D01*
G01*
X167092000Y-81811000D01*
G75*
G02*
X166942000Y-81961000I-150000J0D01*
G01*
X165192000Y-81961000D01*
G75*
G02*
X165042000Y-81811000I0J150000D01*
G01*
G37*
G04 #@! TD.AperFunction*
G04 #@! TA.AperFunction,SMDPad,CuDef*
G36*
G01*
X165042000Y-83081000D02*
X165042000Y-82781000D01*
G75*
G02*
X165192000Y-82631000I150000J0D01*
G01*
X166942000Y-82631000D01*
G75*
G02*
X167092000Y-82781000I0J-150000D01*
G01*
X167092000Y-83081000D01*
G75*
G02*
X166942000Y-83231000I-150000J0D01*
G01*
X165192000Y-83231000D01*
G75*
G02*
X165042000Y-83081000I0J150000D01*
G01*
G37*
G04 #@! TD.AperFunction*
G04 #@! TA.AperFunction,SMDPad,CuDef*
G36*
G01*
X165042000Y-84351000D02*
X165042000Y-84051000D01*
G75*
G02*
X165192000Y-83901000I150000J0D01*
G01*
X166942000Y-83901000D01*
G75*
G02*
X167092000Y-84051000I0J-150000D01*
G01*
X167092000Y-84351000D01*
G75*
G02*
X166942000Y-84501000I-150000J0D01*
G01*
X165192000Y-84501000D01*
G75*
G02*
X165042000Y-84351000I0J150000D01*
G01*
G37*
G04 #@! TD.AperFunction*
G04 #@! TA.AperFunction,SMDPad,CuDef*
G36*
G01*
X165042000Y-85621000D02*
X165042000Y-85321000D01*
G75*
G02*
X165192000Y-85171000I150000J0D01*
G01*
X166942000Y-85171000D01*
G75*
G02*
X167092000Y-85321000I0J-150000D01*
G01*
X167092000Y-85621000D01*
G75*
G02*
X166942000Y-85771000I-150000J0D01*
G01*
X165192000Y-85771000D01*
G75*
G02*
X165042000Y-85621000I0J150000D01*
G01*
G37*
G04 #@! TD.AperFunction*
G04 #@! TA.AperFunction,SMDPad,CuDef*
G36*
G01*
X165042000Y-86891000D02*
X165042000Y-86591000D01*
G75*
G02*
X165192000Y-86441000I150000J0D01*
G01*
X166942000Y-86441000D01*
G75*
G02*
X167092000Y-86591000I0J-150000D01*
G01*
X167092000Y-86891000D01*
G75*
G02*
X166942000Y-87041000I-150000J0D01*
G01*
X165192000Y-87041000D01*
G75*
G02*
X165042000Y-86891000I0J150000D01*
G01*
G37*
G04 #@! TD.AperFunction*
G04 #@! TA.AperFunction,SMDPad,CuDef*
G36*
G01*
X165042000Y-88161000D02*
X165042000Y-87861000D01*
G75*
G02*
X165192000Y-87711000I150000J0D01*
G01*
X166942000Y-87711000D01*
G75*
G02*
X167092000Y-87861000I0J-150000D01*
G01*
X167092000Y-88161000D01*
G75*
G02*
X166942000Y-88311000I-150000J0D01*
G01*
X165192000Y-88311000D01*
G75*
G02*
X165042000Y-88161000I0J150000D01*
G01*
G37*
G04 #@! TD.AperFunction*
G04 #@! TA.AperFunction,SMDPad,CuDef*
G36*
G01*
X165042000Y-89431000D02*
X165042000Y-89131000D01*
G75*
G02*
X165192000Y-88981000I150000J0D01*
G01*
X166942000Y-88981000D01*
G75*
G02*
X167092000Y-89131000I0J-150000D01*
G01*
X167092000Y-89431000D01*
G75*
G02*
X166942000Y-89581000I-150000J0D01*
G01*
X165192000Y-89581000D01*
G75*
G02*
X165042000Y-89431000I0J150000D01*
G01*
G37*
G04 #@! TD.AperFunction*
G04 #@! TA.AperFunction,SMDPad,CuDef*
G36*
G01*
X155742000Y-89431000D02*
X155742000Y-89131000D01*
G75*
G02*
X155892000Y-88981000I150000J0D01*
G01*
X157642000Y-88981000D01*
G75*
G02*
X157792000Y-89131000I0J-150000D01*
G01*
X157792000Y-89431000D01*
G75*
G02*
X157642000Y-89581000I-150000J0D01*
G01*
X155892000Y-89581000D01*
G75*
G02*
X155742000Y-89431000I0J150000D01*
G01*
G37*
G04 #@! TD.AperFunction*
G04 #@! TA.AperFunction,SMDPad,CuDef*
G36*
G01*
X155742000Y-88161000D02*
X155742000Y-87861000D01*
G75*
G02*
X155892000Y-87711000I150000J0D01*
G01*
X157642000Y-87711000D01*
G75*
G02*
X157792000Y-87861000I0J-150000D01*
G01*
X157792000Y-88161000D01*
G75*
G02*
X157642000Y-88311000I-150000J0D01*
G01*
X155892000Y-88311000D01*
G75*
G02*
X155742000Y-88161000I0J150000D01*
G01*
G37*
G04 #@! TD.AperFunction*
G04 #@! TA.AperFunction,SMDPad,CuDef*
G36*
G01*
X155742000Y-86891000D02*
X155742000Y-86591000D01*
G75*
G02*
X155892000Y-86441000I150000J0D01*
G01*
X157642000Y-86441000D01*
G75*
G02*
X157792000Y-86591000I0J-150000D01*
G01*
X157792000Y-86891000D01*
G75*
G02*
X157642000Y-87041000I-150000J0D01*
G01*
X155892000Y-87041000D01*
G75*
G02*
X155742000Y-86891000I0J150000D01*
G01*
G37*
G04 #@! TD.AperFunction*
G04 #@! TA.AperFunction,SMDPad,CuDef*
G36*
G01*
X155742000Y-85621000D02*
X155742000Y-85321000D01*
G75*
G02*
X155892000Y-85171000I150000J0D01*
G01*
X157642000Y-85171000D01*
G75*
G02*
X157792000Y-85321000I0J-150000D01*
G01*
X157792000Y-85621000D01*
G75*
G02*
X157642000Y-85771000I-150000J0D01*
G01*
X155892000Y-85771000D01*
G75*
G02*
X155742000Y-85621000I0J150000D01*
G01*
G37*
G04 #@! TD.AperFunction*
G04 #@! TA.AperFunction,SMDPad,CuDef*
G36*
G01*
X155742000Y-84351000D02*
X155742000Y-84051000D01*
G75*
G02*
X155892000Y-83901000I150000J0D01*
G01*
X157642000Y-83901000D01*
G75*
G02*
X157792000Y-84051000I0J-150000D01*
G01*
X157792000Y-84351000D01*
G75*
G02*
X157642000Y-84501000I-150000J0D01*
G01*
X155892000Y-84501000D01*
G75*
G02*
X155742000Y-84351000I0J150000D01*
G01*
G37*
G04 #@! TD.AperFunction*
G04 #@! TA.AperFunction,SMDPad,CuDef*
G36*
G01*
X155742000Y-83081000D02*
X155742000Y-82781000D01*
G75*
G02*
X155892000Y-82631000I150000J0D01*
G01*
X157642000Y-82631000D01*
G75*
G02*
X157792000Y-82781000I0J-150000D01*
G01*
X157792000Y-83081000D01*
G75*
G02*
X157642000Y-83231000I-150000J0D01*
G01*
X155892000Y-83231000D01*
G75*
G02*
X155742000Y-83081000I0J150000D01*
G01*
G37*
G04 #@! TD.AperFunction*
G04 #@! TA.AperFunction,SMDPad,CuDef*
G36*
G01*
X155742000Y-81811000D02*
X155742000Y-81511000D01*
G75*
G02*
X155892000Y-81361000I150000J0D01*
G01*
X157642000Y-81361000D01*
G75*
G02*
X157792000Y-81511000I0J-150000D01*
G01*
X157792000Y-81811000D01*
G75*
G02*
X157642000Y-81961000I-150000J0D01*
G01*
X155892000Y-81961000D01*
G75*
G02*
X155742000Y-81811000I0J150000D01*
G01*
G37*
G04 #@! TD.AperFunction*
G04 #@! TA.AperFunction,SMDPad,CuDef*
G36*
G01*
X155742000Y-80541000D02*
X155742000Y-80241000D01*
G75*
G02*
X155892000Y-80091000I150000J0D01*
G01*
X157642000Y-80091000D01*
G75*
G02*
X157792000Y-80241000I0J-150000D01*
G01*
X157792000Y-80541000D01*
G75*
G02*
X157642000Y-80691000I-150000J0D01*
G01*
X155892000Y-80691000D01*
G75*
G02*
X155742000Y-80541000I0J150000D01*
G01*
G37*
G04 #@! TD.AperFunction*
G04 #@! TA.AperFunction,SMDPad,CuDef*
G36*
G01*
X155742000Y-79271000D02*
X155742000Y-78971000D01*
G75*
G02*
X155892000Y-78821000I150000J0D01*
G01*
X157642000Y-78821000D01*
G75*
G02*
X157792000Y-78971000I0J-150000D01*
G01*
X157792000Y-79271000D01*
G75*
G02*
X157642000Y-79421000I-150000J0D01*
G01*
X155892000Y-79421000D01*
G75*
G02*
X155742000Y-79271000I0J150000D01*
G01*
G37*
G04 #@! TD.AperFunction*
G04 #@! TA.AperFunction,SMDPad,CuDef*
G36*
G01*
X155742000Y-78001000D02*
X155742000Y-77701000D01*
G75*
G02*
X155892000Y-77551000I150000J0D01*
G01*
X157642000Y-77551000D01*
G75*
G02*
X157792000Y-77701000I0J-150000D01*
G01*
X157792000Y-78001000D01*
G75*
G02*
X157642000Y-78151000I-150000J0D01*
G01*
X155892000Y-78151000D01*
G75*
G02*
X155742000Y-78001000I0J150000D01*
G01*
G37*
G04 #@! TD.AperFunction*
D11*
X171947000Y-92964000D03*
X170677000Y-91186000D03*
X169407000Y-92964000D03*
X168137000Y-91186000D03*
X166867000Y-92964000D03*
X165597000Y-91186000D03*
X164327000Y-92964000D03*
X163057000Y-91186000D03*
X161787000Y-92964000D03*
X160517000Y-91186000D03*
X157977000Y-91186000D03*
X159247000Y-92964000D03*
D10*
X172085000Y-85852000D03*
X172085000Y-88900000D03*
D12*
X159039200Y-80106200D03*
X169022600Y-80518000D03*
X158053400Y-77306300D03*
X162068600Y-87360500D03*
X170918500Y-88489000D03*
X163680800Y-78486000D03*
X170225000Y-79600800D03*
X161082000Y-88616400D03*
X168542900Y-89899800D03*
X163415300Y-92964000D03*
X169621900Y-89530400D03*
X161664900Y-90361500D03*
X163775200Y-79493000D03*
X155247400Y-79541300D03*
X166320800Y-90079100D03*
D13*
X159039200Y-80106200D02*
X164165300Y-80106200D01*
X164165300Y-80106200D02*
X164410100Y-79861400D01*
X164410100Y-79861400D02*
X167190900Y-79861400D01*
X167190900Y-79861400D02*
X168863500Y-81534000D01*
X168863500Y-81534000D02*
X172466000Y-81534000D01*
X169201100Y-80518000D02*
X169022600Y-80518000D01*
X170180000Y-80518000D02*
X169201100Y-80518000D01*
X171487100Y-79502000D02*
X171487100Y-77756600D01*
X171487100Y-77756600D02*
X171036800Y-77306300D01*
X171036800Y-77306300D02*
X158053400Y-77306300D01*
X172466000Y-79502000D02*
X171487100Y-79502000D01*
X171106100Y-88900000D02*
X171106100Y-88676600D01*
X171106100Y-88676600D02*
X170918500Y-88489000D01*
X162068600Y-87360500D02*
X157417500Y-87360500D01*
X157417500Y-87360500D02*
X156767000Y-88011000D01*
X172085000Y-88900000D02*
X171106100Y-88900000D01*
X163680800Y-78486000D02*
X169201100Y-78486000D01*
X156767000Y-77851000D02*
X157402000Y-78486000D01*
X157402000Y-78486000D02*
X163680800Y-78486000D01*
X170180000Y-78486000D02*
X169201100Y-78486000D01*
X159247000Y-92964000D02*
X159247000Y-93942900D01*
X159247000Y-93942900D02*
X172562800Y-93942900D01*
X172562800Y-93942900D02*
X173064000Y-93441700D01*
X173064000Y-93441700D02*
X173064000Y-88299700D01*
X173064000Y-88299700D02*
X171640700Y-86876400D01*
X171640700Y-86876400D02*
X171507000Y-86876400D01*
X171507000Y-86876400D02*
X170237400Y-85606800D01*
X170237400Y-85606800D02*
X170237400Y-84270400D01*
X170237400Y-84270400D02*
X166358000Y-80391000D01*
X166358000Y-80391000D02*
X166067000Y-80391000D01*
X156767000Y-84201000D02*
X156444800Y-84201000D01*
X156444800Y-84201000D02*
X155198000Y-85447800D01*
X155198000Y-85447800D02*
X155198000Y-89747000D01*
X155198000Y-89747000D02*
X155658100Y-90207100D01*
X155658100Y-90207100D02*
X157977000Y-90207100D01*
X157977000Y-91186000D02*
X157977000Y-90207100D01*
X172085000Y-83476100D02*
X171158900Y-82550000D01*
X172085000Y-85852000D02*
X172085000Y-83476100D01*
X170907500Y-79600800D02*
X171537700Y-80231000D01*
X171537700Y-80231000D02*
X172740300Y-80231000D01*
X172740300Y-80231000D02*
X173445000Y-80935700D01*
X173445000Y-80935700D02*
X173445000Y-82180100D01*
X173445000Y-82180100D02*
X172149000Y-83476100D01*
X172149000Y-83476100D02*
X172085000Y-83476100D01*
X170225000Y-79600800D02*
X170907500Y-79600800D01*
X166067000Y-77851000D02*
X166161000Y-77757000D01*
X166161000Y-77757000D02*
X171054700Y-77757000D01*
X171054700Y-77757000D02*
X171158900Y-77861200D01*
X171158900Y-77861200D02*
X171158900Y-79349400D01*
X171158900Y-79349400D02*
X170907500Y-79600800D01*
X170180000Y-82550000D02*
X171158900Y-82550000D01*
X156767000Y-89281000D02*
X157431600Y-88616400D01*
X157431600Y-88616400D02*
X161082000Y-88616400D01*
X166067000Y-81661000D02*
X166826700Y-81661000D01*
X166826700Y-81661000D02*
X169779800Y-84614100D01*
X169779800Y-84614100D02*
X169779800Y-86134200D01*
X169779800Y-86134200D02*
X170431400Y-86785800D01*
X170431400Y-86785800D02*
X170431400Y-89141900D01*
X170431400Y-89141900D02*
X171947000Y-90657500D01*
X171947000Y-90657500D02*
X171947000Y-91985100D01*
X171947000Y-92964000D02*
X171947000Y-91985100D01*
X156767000Y-82931000D02*
X156015100Y-82931000D01*
X156015100Y-82931000D02*
X155193500Y-82109400D01*
X155193500Y-82109400D02*
X155193500Y-80341600D01*
X155193500Y-80341600D02*
X155698600Y-79836500D01*
X155698600Y-79836500D02*
X157892100Y-79836500D01*
X157892100Y-79836500D02*
X160351600Y-82296000D01*
X160351600Y-82296000D02*
X167030200Y-82296000D01*
X167030200Y-82296000D02*
X169474700Y-84740500D01*
X169474700Y-84740500D02*
X169474700Y-86260800D01*
X169474700Y-86260800D02*
X170104800Y-86890900D01*
X170104800Y-86890900D02*
X170104800Y-89634900D01*
X170104800Y-89634900D02*
X170677000Y-90207100D01*
X170677000Y-91186000D02*
X170677000Y-90207100D01*
X156767000Y-81661000D02*
X158575300Y-81661000D01*
X158575300Y-81661000D02*
X160480300Y-83566000D01*
X160480300Y-83566000D02*
X166996000Y-83566000D01*
X166996000Y-83566000D02*
X168864500Y-85434500D01*
X168864500Y-85434500D02*
X168864500Y-86513800D01*
X168864500Y-86513800D02*
X169065000Y-86714300D01*
X169065000Y-86714300D02*
X169065000Y-91643100D01*
X169065000Y-91643100D02*
X169407000Y-91985100D01*
X169407000Y-92964000D02*
X169407000Y-91985100D01*
X156767000Y-80391000D02*
X156473900Y-80391000D01*
X156473900Y-80391000D02*
X155505600Y-81359300D01*
X155505600Y-81359300D02*
X155505600Y-81989800D01*
X155505600Y-81989800D02*
X155917200Y-82401400D01*
X155917200Y-82401400D02*
X157868900Y-82401400D01*
X157868900Y-82401400D02*
X160384400Y-84916900D01*
X160384400Y-84916900D02*
X167093700Y-84916900D01*
X167093700Y-84916900D02*
X167966800Y-85790000D01*
X167966800Y-85790000D02*
X167966800Y-90036900D01*
X167966800Y-90036900D02*
X168137000Y-90207100D01*
X168137000Y-91186000D02*
X168137000Y-90207100D01*
X166867000Y-91985100D02*
X166867000Y-90579300D01*
X166867000Y-90579300D02*
X167661700Y-89784600D01*
X167661700Y-89784600D02*
X167661700Y-87997300D01*
X167661700Y-87997300D02*
X166405400Y-86741000D01*
X166405400Y-86741000D02*
X166067000Y-86741000D01*
X166867000Y-92964000D02*
X166867000Y-91985100D01*
X165597000Y-91186000D02*
X165597000Y-90207100D01*
X165597000Y-90207100D02*
X165414800Y-90207100D01*
X165414800Y-90207100D02*
X164791900Y-89584200D01*
X164791900Y-89584200D02*
X164791900Y-86454400D01*
X164791900Y-86454400D02*
X165775300Y-85471000D01*
X165775300Y-85471000D02*
X166067000Y-85471000D01*
X164327000Y-91985100D02*
X164327000Y-88935800D01*
X164327000Y-88935800D02*
X162132200Y-86741000D01*
X162132200Y-86741000D02*
X156767000Y-86741000D01*
X164327000Y-92964000D02*
X164327000Y-91985100D01*
X163057000Y-91186000D02*
X163057000Y-90207100D01*
X163057000Y-90207100D02*
X162720300Y-89870400D01*
X162720300Y-89870400D02*
X155753100Y-89870400D01*
X155753100Y-89870400D02*
X155507800Y-89625100D01*
X155507800Y-89625100D02*
X155507800Y-86438400D01*
X155507800Y-86438400D02*
X156475200Y-85471000D01*
X156475200Y-85471000D02*
X156767000Y-85471000D01*
X166067000Y-84201000D02*
X166892700Y-84201000D01*
X166892700Y-84201000D02*
X168542900Y-85851200D01*
X168542900Y-85851200D02*
X168542900Y-89899800D01*
X161787000Y-92964000D02*
X163415300Y-92964000D01*
X166067000Y-82931000D02*
X166805100Y-82931000D01*
X166805100Y-82931000D02*
X169169600Y-85295500D01*
X169169600Y-85295500D02*
X169169600Y-86387300D01*
X169169600Y-86387300D02*
X169621900Y-86839600D01*
X169621900Y-86839600D02*
X169621900Y-89530400D01*
X160517000Y-90207100D02*
X161510500Y-90207100D01*
X161510500Y-90207100D02*
X161664900Y-90361500D01*
X160517000Y-91186000D02*
X160517000Y-90207100D01*
X163775200Y-79493000D02*
X165695000Y-79493000D01*
X165695000Y-79493000D02*
X166067000Y-79121000D01*
X155247400Y-79541300D02*
X155667700Y-79121000D01*
X155667700Y-79121000D02*
X156767000Y-79121000D01*
X166067000Y-88011000D02*
X166389500Y-88011000D01*
X166389500Y-88011000D02*
X167356600Y-88978100D01*
X167356600Y-88978100D02*
X167356600Y-89581600D01*
X167356600Y-89581600D02*
X166859100Y-90079100D01*
X166859100Y-90079100D02*
X166320800Y-90079100D01*
M02*
