G04 #@! TF.GenerationSoftware,KiCad,Pcbnew,(5.1.7)-1*
G04 #@! TF.CreationDate,2020-11-15T12:51:32-06:00*
G04 #@! TF.ProjectId,snesdecoder,736e6573-6465-4636-9f64-65722e6b6963,v01*
G04 #@! TF.SameCoordinates,Original*
G04 #@! TF.FileFunction,Soldermask,Bot*
G04 #@! TF.FilePolarity,Negative*
%FSLAX46Y46*%
G04 Gerber Fmt 4.6, Leading zero omitted, Abs format (unit mm)*
G04 Created by KiCad (PCBNEW (5.1.7)-1) date 2020-11-15 12:51:32*
%MOMM*%
%LPD*%
G01*
G04 APERTURE LIST*
G04 APERTURE END LIST*
G36*
G01*
X162538800Y-87796000D02*
X162538800Y-88196000D01*
G75*
G02*
X162488000Y-88246800I-50800J0D01*
G01*
X160988000Y-88246800D01*
G75*
G02*
X160937200Y-88196000I0J50800D01*
G01*
X160937200Y-87796000D01*
G75*
G02*
X160988000Y-87745200I50800J0D01*
G01*
X162488000Y-87745200D01*
G75*
G02*
X162538800Y-87796000I0J-50800D01*
G01*
G37*
G36*
G01*
X162538800Y-89096000D02*
X162538800Y-89496000D01*
G75*
G02*
X162488000Y-89546800I-50800J0D01*
G01*
X160988000Y-89546800D01*
G75*
G02*
X160937200Y-89496000I0J50800D01*
G01*
X160937200Y-89096000D01*
G75*
G02*
X160988000Y-89045200I50800J0D01*
G01*
X162488000Y-89045200D01*
G75*
G02*
X162538800Y-89096000I0J-50800D01*
G01*
G37*
G36*
G01*
X165198800Y-89096000D02*
X165198800Y-89496000D01*
G75*
G02*
X165148000Y-89546800I-50800J0D01*
G01*
X163648000Y-89546800D01*
G75*
G02*
X163597200Y-89496000I0J50800D01*
G01*
X163597200Y-89096000D01*
G75*
G02*
X163648000Y-89045200I50800J0D01*
G01*
X165148000Y-89045200D01*
G75*
G02*
X165198800Y-89096000I0J-50800D01*
G01*
G37*
G36*
G01*
X165198800Y-88446000D02*
X165198800Y-88846000D01*
G75*
G02*
X165148000Y-88896800I-50800J0D01*
G01*
X163648000Y-88896800D01*
G75*
G02*
X163597200Y-88846000I0J50800D01*
G01*
X163597200Y-88446000D01*
G75*
G02*
X163648000Y-88395200I50800J0D01*
G01*
X165148000Y-88395200D01*
G75*
G02*
X165198800Y-88446000I0J-50800D01*
G01*
G37*
G36*
G01*
X165198800Y-87796000D02*
X165198800Y-88196000D01*
G75*
G02*
X165148000Y-88246800I-50800J0D01*
G01*
X163648000Y-88246800D01*
G75*
G02*
X163597200Y-88196000I0J50800D01*
G01*
X163597200Y-87796000D01*
G75*
G02*
X163648000Y-87745200I50800J0D01*
G01*
X165148000Y-87745200D01*
G75*
G02*
X165198800Y-87796000I0J-50800D01*
G01*
G37*
G36*
G01*
X168222800Y-79979600D02*
X168222800Y-80330400D01*
G75*
G02*
X168047400Y-80505800I-175400J0D01*
G01*
X166346600Y-80505800D01*
G75*
G02*
X166171200Y-80330400I0J175400D01*
G01*
X166171200Y-79979600D01*
G75*
G02*
X166346600Y-79804200I175400J0D01*
G01*
X168047400Y-79804200D01*
G75*
G02*
X168222800Y-79979600I0J-175400D01*
G01*
G37*
G36*
G01*
X168222800Y-81249600D02*
X168222800Y-81600400D01*
G75*
G02*
X168047400Y-81775800I-175400J0D01*
G01*
X166346600Y-81775800D01*
G75*
G02*
X166171200Y-81600400I0J175400D01*
G01*
X166171200Y-81249600D01*
G75*
G02*
X166346600Y-81074200I175400J0D01*
G01*
X168047400Y-81074200D01*
G75*
G02*
X168222800Y-81249600I0J-175400D01*
G01*
G37*
G36*
G01*
X168222800Y-82519600D02*
X168222800Y-82870400D01*
G75*
G02*
X168047400Y-83045800I-175400J0D01*
G01*
X166346600Y-83045800D01*
G75*
G02*
X166171200Y-82870400I0J175400D01*
G01*
X166171200Y-82519600D01*
G75*
G02*
X166346600Y-82344200I175400J0D01*
G01*
X168047400Y-82344200D01*
G75*
G02*
X168222800Y-82519600I0J-175400D01*
G01*
G37*
G36*
G01*
X168222800Y-83789600D02*
X168222800Y-84140400D01*
G75*
G02*
X168047400Y-84315800I-175400J0D01*
G01*
X166346600Y-84315800D01*
G75*
G02*
X166171200Y-84140400I0J175400D01*
G01*
X166171200Y-83789600D01*
G75*
G02*
X166346600Y-83614200I175400J0D01*
G01*
X168047400Y-83614200D01*
G75*
G02*
X168222800Y-83789600I0J-175400D01*
G01*
G37*
G36*
G01*
X168222800Y-85059600D02*
X168222800Y-85410400D01*
G75*
G02*
X168047400Y-85585800I-175400J0D01*
G01*
X166346600Y-85585800D01*
G75*
G02*
X166171200Y-85410400I0J175400D01*
G01*
X166171200Y-85059600D01*
G75*
G02*
X166346600Y-84884200I175400J0D01*
G01*
X168047400Y-84884200D01*
G75*
G02*
X168222800Y-85059600I0J-175400D01*
G01*
G37*
G36*
G01*
X168222800Y-86329600D02*
X168222800Y-86680400D01*
G75*
G02*
X168047400Y-86855800I-175400J0D01*
G01*
X166346600Y-86855800D01*
G75*
G02*
X166171200Y-86680400I0J175400D01*
G01*
X166171200Y-86329600D01*
G75*
G02*
X166346600Y-86154200I175400J0D01*
G01*
X168047400Y-86154200D01*
G75*
G02*
X168222800Y-86329600I0J-175400D01*
G01*
G37*
G36*
G01*
X168222800Y-87599600D02*
X168222800Y-87950400D01*
G75*
G02*
X168047400Y-88125800I-175400J0D01*
G01*
X166346600Y-88125800D01*
G75*
G02*
X166171200Y-87950400I0J175400D01*
G01*
X166171200Y-87599600D01*
G75*
G02*
X166346600Y-87424200I175400J0D01*
G01*
X168047400Y-87424200D01*
G75*
G02*
X168222800Y-87599600I0J-175400D01*
G01*
G37*
G36*
G01*
X168222800Y-88869600D02*
X168222800Y-89220400D01*
G75*
G02*
X168047400Y-89395800I-175400J0D01*
G01*
X166346600Y-89395800D01*
G75*
G02*
X166171200Y-89220400I0J175400D01*
G01*
X166171200Y-88869600D01*
G75*
G02*
X166346600Y-88694200I175400J0D01*
G01*
X168047400Y-88694200D01*
G75*
G02*
X168222800Y-88869600I0J-175400D01*
G01*
G37*
G36*
G01*
X173172800Y-88869600D02*
X173172800Y-89220400D01*
G75*
G02*
X172997400Y-89395800I-175400J0D01*
G01*
X171296600Y-89395800D01*
G75*
G02*
X171121200Y-89220400I0J175400D01*
G01*
X171121200Y-88869600D01*
G75*
G02*
X171296600Y-88694200I175400J0D01*
G01*
X172997400Y-88694200D01*
G75*
G02*
X173172800Y-88869600I0J-175400D01*
G01*
G37*
G36*
G01*
X173172800Y-87599600D02*
X173172800Y-87950400D01*
G75*
G02*
X172997400Y-88125800I-175400J0D01*
G01*
X171296600Y-88125800D01*
G75*
G02*
X171121200Y-87950400I0J175400D01*
G01*
X171121200Y-87599600D01*
G75*
G02*
X171296600Y-87424200I175400J0D01*
G01*
X172997400Y-87424200D01*
G75*
G02*
X173172800Y-87599600I0J-175400D01*
G01*
G37*
G36*
G01*
X173172800Y-86329600D02*
X173172800Y-86680400D01*
G75*
G02*
X172997400Y-86855800I-175400J0D01*
G01*
X171296600Y-86855800D01*
G75*
G02*
X171121200Y-86680400I0J175400D01*
G01*
X171121200Y-86329600D01*
G75*
G02*
X171296600Y-86154200I175400J0D01*
G01*
X172997400Y-86154200D01*
G75*
G02*
X173172800Y-86329600I0J-175400D01*
G01*
G37*
G36*
G01*
X173172800Y-85059600D02*
X173172800Y-85410400D01*
G75*
G02*
X172997400Y-85585800I-175400J0D01*
G01*
X171296600Y-85585800D01*
G75*
G02*
X171121200Y-85410400I0J175400D01*
G01*
X171121200Y-85059600D01*
G75*
G02*
X171296600Y-84884200I175400J0D01*
G01*
X172997400Y-84884200D01*
G75*
G02*
X173172800Y-85059600I0J-175400D01*
G01*
G37*
G36*
G01*
X173172800Y-83789600D02*
X173172800Y-84140400D01*
G75*
G02*
X172997400Y-84315800I-175400J0D01*
G01*
X171296600Y-84315800D01*
G75*
G02*
X171121200Y-84140400I0J175400D01*
G01*
X171121200Y-83789600D01*
G75*
G02*
X171296600Y-83614200I175400J0D01*
G01*
X172997400Y-83614200D01*
G75*
G02*
X173172800Y-83789600I0J-175400D01*
G01*
G37*
G36*
G01*
X173172800Y-82519600D02*
X173172800Y-82870400D01*
G75*
G02*
X172997400Y-83045800I-175400J0D01*
G01*
X171296600Y-83045800D01*
G75*
G02*
X171121200Y-82870400I0J175400D01*
G01*
X171121200Y-82519600D01*
G75*
G02*
X171296600Y-82344200I175400J0D01*
G01*
X172997400Y-82344200D01*
G75*
G02*
X173172800Y-82519600I0J-175400D01*
G01*
G37*
G36*
G01*
X173172800Y-81249600D02*
X173172800Y-81600400D01*
G75*
G02*
X172997400Y-81775800I-175400J0D01*
G01*
X171296600Y-81775800D01*
G75*
G02*
X171121200Y-81600400I0J175400D01*
G01*
X171121200Y-81249600D01*
G75*
G02*
X171296600Y-81074200I175400J0D01*
G01*
X172997400Y-81074200D01*
G75*
G02*
X173172800Y-81249600I0J-175400D01*
G01*
G37*
G36*
G01*
X173172800Y-79979600D02*
X173172800Y-80330400D01*
G75*
G02*
X172997400Y-80505800I-175400J0D01*
G01*
X171296600Y-80505800D01*
G75*
G02*
X171121200Y-80330400I0J175400D01*
G01*
X171121200Y-79979600D01*
G75*
G02*
X171296600Y-79804200I175400J0D01*
G01*
X172997400Y-79804200D01*
G75*
G02*
X173172800Y-79979600I0J-175400D01*
G01*
G37*
G36*
G01*
X158316800Y-78437600D02*
X158316800Y-78788400D01*
G75*
G02*
X158141400Y-78963800I-175400J0D01*
G01*
X156440600Y-78963800D01*
G75*
G02*
X156265200Y-78788400I0J175400D01*
G01*
X156265200Y-78437600D01*
G75*
G02*
X156440600Y-78262200I175400J0D01*
G01*
X158141400Y-78262200D01*
G75*
G02*
X158316800Y-78437600I0J-175400D01*
G01*
G37*
G36*
G01*
X158316800Y-79707600D02*
X158316800Y-80058400D01*
G75*
G02*
X158141400Y-80233800I-175400J0D01*
G01*
X156440600Y-80233800D01*
G75*
G02*
X156265200Y-80058400I0J175400D01*
G01*
X156265200Y-79707600D01*
G75*
G02*
X156440600Y-79532200I175400J0D01*
G01*
X158141400Y-79532200D01*
G75*
G02*
X158316800Y-79707600I0J-175400D01*
G01*
G37*
G36*
G01*
X158316800Y-80977600D02*
X158316800Y-81328400D01*
G75*
G02*
X158141400Y-81503800I-175400J0D01*
G01*
X156440600Y-81503800D01*
G75*
G02*
X156265200Y-81328400I0J175400D01*
G01*
X156265200Y-80977600D01*
G75*
G02*
X156440600Y-80802200I175400J0D01*
G01*
X158141400Y-80802200D01*
G75*
G02*
X158316800Y-80977600I0J-175400D01*
G01*
G37*
G36*
G01*
X158316800Y-82247600D02*
X158316800Y-82598400D01*
G75*
G02*
X158141400Y-82773800I-175400J0D01*
G01*
X156440600Y-82773800D01*
G75*
G02*
X156265200Y-82598400I0J175400D01*
G01*
X156265200Y-82247600D01*
G75*
G02*
X156440600Y-82072200I175400J0D01*
G01*
X158141400Y-82072200D01*
G75*
G02*
X158316800Y-82247600I0J-175400D01*
G01*
G37*
G36*
G01*
X158316800Y-83517600D02*
X158316800Y-83868400D01*
G75*
G02*
X158141400Y-84043800I-175400J0D01*
G01*
X156440600Y-84043800D01*
G75*
G02*
X156265200Y-83868400I0J175400D01*
G01*
X156265200Y-83517600D01*
G75*
G02*
X156440600Y-83342200I175400J0D01*
G01*
X158141400Y-83342200D01*
G75*
G02*
X158316800Y-83517600I0J-175400D01*
G01*
G37*
G36*
G01*
X158316800Y-84787600D02*
X158316800Y-85138400D01*
G75*
G02*
X158141400Y-85313800I-175400J0D01*
G01*
X156440600Y-85313800D01*
G75*
G02*
X156265200Y-85138400I0J175400D01*
G01*
X156265200Y-84787600D01*
G75*
G02*
X156440600Y-84612200I175400J0D01*
G01*
X158141400Y-84612200D01*
G75*
G02*
X158316800Y-84787600I0J-175400D01*
G01*
G37*
G36*
G01*
X158316800Y-86057600D02*
X158316800Y-86408400D01*
G75*
G02*
X158141400Y-86583800I-175400J0D01*
G01*
X156440600Y-86583800D01*
G75*
G02*
X156265200Y-86408400I0J175400D01*
G01*
X156265200Y-86057600D01*
G75*
G02*
X156440600Y-85882200I175400J0D01*
G01*
X158141400Y-85882200D01*
G75*
G02*
X158316800Y-86057600I0J-175400D01*
G01*
G37*
G36*
G01*
X163266800Y-86057600D02*
X163266800Y-86408400D01*
G75*
G02*
X163091400Y-86583800I-175400J0D01*
G01*
X161390600Y-86583800D01*
G75*
G02*
X161215200Y-86408400I0J175400D01*
G01*
X161215200Y-86057600D01*
G75*
G02*
X161390600Y-85882200I175400J0D01*
G01*
X163091400Y-85882200D01*
G75*
G02*
X163266800Y-86057600I0J-175400D01*
G01*
G37*
G36*
G01*
X163266800Y-84787600D02*
X163266800Y-85138400D01*
G75*
G02*
X163091400Y-85313800I-175400J0D01*
G01*
X161390600Y-85313800D01*
G75*
G02*
X161215200Y-85138400I0J175400D01*
G01*
X161215200Y-84787600D01*
G75*
G02*
X161390600Y-84612200I175400J0D01*
G01*
X163091400Y-84612200D01*
G75*
G02*
X163266800Y-84787600I0J-175400D01*
G01*
G37*
G36*
G01*
X163266800Y-83517600D02*
X163266800Y-83868400D01*
G75*
G02*
X163091400Y-84043800I-175400J0D01*
G01*
X161390600Y-84043800D01*
G75*
G02*
X161215200Y-83868400I0J175400D01*
G01*
X161215200Y-83517600D01*
G75*
G02*
X161390600Y-83342200I175400J0D01*
G01*
X163091400Y-83342200D01*
G75*
G02*
X163266800Y-83517600I0J-175400D01*
G01*
G37*
G36*
G01*
X163266800Y-82247600D02*
X163266800Y-82598400D01*
G75*
G02*
X163091400Y-82773800I-175400J0D01*
G01*
X161390600Y-82773800D01*
G75*
G02*
X161215200Y-82598400I0J175400D01*
G01*
X161215200Y-82247600D01*
G75*
G02*
X161390600Y-82072200I175400J0D01*
G01*
X163091400Y-82072200D01*
G75*
G02*
X163266800Y-82247600I0J-175400D01*
G01*
G37*
G36*
G01*
X163266800Y-80977600D02*
X163266800Y-81328400D01*
G75*
G02*
X163091400Y-81503800I-175400J0D01*
G01*
X161390600Y-81503800D01*
G75*
G02*
X161215200Y-81328400I0J175400D01*
G01*
X161215200Y-80977600D01*
G75*
G02*
X161390600Y-80802200I175400J0D01*
G01*
X163091400Y-80802200D01*
G75*
G02*
X163266800Y-80977600I0J-175400D01*
G01*
G37*
G36*
G01*
X163266800Y-79707600D02*
X163266800Y-80058400D01*
G75*
G02*
X163091400Y-80233800I-175400J0D01*
G01*
X161390600Y-80233800D01*
G75*
G02*
X161215200Y-80058400I0J175400D01*
G01*
X161215200Y-79707600D01*
G75*
G02*
X161390600Y-79532200I175400J0D01*
G01*
X163091400Y-79532200D01*
G75*
G02*
X163266800Y-79707600I0J-175400D01*
G01*
G37*
G36*
G01*
X163266800Y-78437600D02*
X163266800Y-78788400D01*
G75*
G02*
X163091400Y-78963800I-175400J0D01*
G01*
X161390600Y-78963800D01*
G75*
G02*
X161215200Y-78788400I0J175400D01*
G01*
X161215200Y-78437600D01*
G75*
G02*
X161390600Y-78262200I175400J0D01*
G01*
X163091400Y-78262200D01*
G75*
G02*
X163266800Y-78437600I0J-175400D01*
G01*
G37*
G36*
G01*
X157600800Y-92121285D02*
X157600800Y-93078715D01*
G75*
G02*
X157328715Y-93350800I-272085J0D01*
G01*
X156621285Y-93350800D01*
G75*
G02*
X156349200Y-93078715I0J272085D01*
G01*
X156349200Y-92121285D01*
G75*
G02*
X156621285Y-91849200I272085J0D01*
G01*
X157328715Y-91849200D01*
G75*
G02*
X157600800Y-92121285I0J-272085D01*
G01*
G37*
G36*
G01*
X159650800Y-92121285D02*
X159650800Y-93078715D01*
G75*
G02*
X159378715Y-93350800I-272085J0D01*
G01*
X158671285Y-93350800D01*
G75*
G02*
X158399200Y-93078715I0J272085D01*
G01*
X158399200Y-92121285D01*
G75*
G02*
X158671285Y-91849200I272085J0D01*
G01*
X159378715Y-91849200D01*
G75*
G02*
X159650800Y-92121285I0J-272085D01*
G01*
G37*
G36*
G01*
X157128285Y-87503200D02*
X158085715Y-87503200D01*
G75*
G02*
X158357800Y-87775285I0J-272085D01*
G01*
X158357800Y-88482715D01*
G75*
G02*
X158085715Y-88754800I-272085J0D01*
G01*
X157128285Y-88754800D01*
G75*
G02*
X156856200Y-88482715I0J272085D01*
G01*
X156856200Y-87775285D01*
G75*
G02*
X157128285Y-87503200I272085J0D01*
G01*
G37*
G36*
G01*
X157128285Y-89553200D02*
X158085715Y-89553200D01*
G75*
G02*
X158357800Y-89825285I0J-272085D01*
G01*
X158357800Y-90532715D01*
G75*
G02*
X158085715Y-90804800I-272085J0D01*
G01*
X157128285Y-90804800D01*
G75*
G02*
X156856200Y-90532715I0J272085D01*
G01*
X156856200Y-89825285D01*
G75*
G02*
X157128285Y-89553200I272085J0D01*
G01*
G37*
G36*
G01*
X165324715Y-79474800D02*
X164367285Y-79474800D01*
G75*
G02*
X164095200Y-79202715I0J272085D01*
G01*
X164095200Y-78495285D01*
G75*
G02*
X164367285Y-78223200I272085J0D01*
G01*
X165324715Y-78223200D01*
G75*
G02*
X165596800Y-78495285I0J-272085D01*
G01*
X165596800Y-79202715D01*
G75*
G02*
X165324715Y-79474800I-272085J0D01*
G01*
G37*
G36*
G01*
X165324715Y-81524800D02*
X164367285Y-81524800D01*
G75*
G02*
X164095200Y-81252715I0J272085D01*
G01*
X164095200Y-80545285D01*
G75*
G02*
X164367285Y-80273200I272085J0D01*
G01*
X165324715Y-80273200D01*
G75*
G02*
X165596800Y-80545285I0J-272085D01*
G01*
X165596800Y-81252715D01*
G75*
G02*
X165324715Y-81524800I-272085J0D01*
G01*
G37*
G36*
G01*
X168800800Y-77721285D02*
X168800800Y-78678715D01*
G75*
G02*
X168528715Y-78950800I-272085J0D01*
G01*
X167821285Y-78950800D01*
G75*
G02*
X167549200Y-78678715I0J272085D01*
G01*
X167549200Y-77721285D01*
G75*
G02*
X167821285Y-77449200I272085J0D01*
G01*
X168528715Y-77449200D01*
G75*
G02*
X168800800Y-77721285I0J-272085D01*
G01*
G37*
G36*
G01*
X170850800Y-77721285D02*
X170850800Y-78678715D01*
G75*
G02*
X170578715Y-78950800I-272085J0D01*
G01*
X169871285Y-78950800D01*
G75*
G02*
X169599200Y-78678715I0J272085D01*
G01*
X169599200Y-77721285D01*
G75*
G02*
X169871285Y-77449200I272085J0D01*
G01*
X170578715Y-77449200D01*
G75*
G02*
X170850800Y-77721285I0J-272085D01*
G01*
G37*
G36*
G01*
X162922800Y-90961285D02*
X162922800Y-91918715D01*
G75*
G02*
X162650715Y-92190800I-272085J0D01*
G01*
X161943285Y-92190800D01*
G75*
G02*
X161671200Y-91918715I0J272085D01*
G01*
X161671200Y-90961285D01*
G75*
G02*
X161943285Y-90689200I272085J0D01*
G01*
X162650715Y-90689200D01*
G75*
G02*
X162922800Y-90961285I0J-272085D01*
G01*
G37*
G36*
G01*
X164972800Y-90961285D02*
X164972800Y-91918715D01*
G75*
G02*
X164700715Y-92190800I-272085J0D01*
G01*
X163993285Y-92190800D01*
G75*
G02*
X163721200Y-91918715I0J272085D01*
G01*
X163721200Y-90961285D01*
G75*
G02*
X163993285Y-90689200I272085J0D01*
G01*
X164700715Y-90689200D01*
G75*
G02*
X164972800Y-90961285I0J-272085D01*
G01*
G37*
M02*
