M48
; DRILL file {KiCad (5.1.7)-1} date 11/15/20 22:52:24
; FORMAT={-:-/ absolute / inch / decimal}
; #@! TF.CreationDate,2020-11-15T22:52:24-06:00
; #@! TF.GenerationSoftware,Kicad,Pcbnew,(5.1.7)-1
FMAT,2
INCH
T1C0.0100
%
G90
G05
T1
X5.95Y-3.49
X5.98Y-3.18
X5.9863Y-3.395
X6.0116Y-3.4034
X6.0376Y-3.4031
X6.0404Y-3.3771
X6.0716Y-3.3717
X6.1245Y-3.4221
X6.1778Y-3.3857
X6.24Y-3.37
X6.24Y-3.397
X6.24Y-3.435
X6.2429Y-3.3268
X6.265Y-3.08
X6.29Y-3.41
X6.2916Y-3.2266
X6.302Y-3.143
X6.31Y-3.245
X6.3402Y-3.4373
X6.341Y-3.199
X6.37Y-3.195
X6.375Y-3.485
X6.38Y-3.36
X6.3936Y-3.2946
X6.414Y-3.356
X6.4305Y-3.3188
X6.4505Y-3.419
X6.4961Y-3.4
X6.54Y-3.37
X6.57Y-3.355
X6.595Y-3.475
T0
M30
