G04 #@! TF.GenerationSoftware,KiCad,Pcbnew,(5.1.7)-1*
G04 #@! TF.CreationDate,2020-11-15T22:52:21-06:00*
G04 #@! TF.ProjectId,snesdecoder,736e6573-6465-4636-9f64-65722e6b6963,v01*
G04 #@! TF.SameCoordinates,Original*
G04 #@! TF.FileFunction,Copper,L1,Top*
G04 #@! TF.FilePolarity,Positive*
%FSLAX46Y46*%
G04 Gerber Fmt 4.6, Leading zero omitted, Abs format (unit mm)*
G04 Created by KiCad (PCBNEW (5.1.7)-1) date 2020-11-15 22:52:21*
%MOMM*%
%LPD*%
G01*
G04 APERTURE LIST*
G04 #@! TA.AperFunction,SMDPad,CuDef*
%ADD10R,1.000000X1.500000*%
G04 #@! TD*
G04 #@! TA.AperFunction,SMDPad,CuDef*
%ADD11R,1.500000X1.000000*%
G04 #@! TD*
G04 #@! TA.AperFunction,ViaPad*
%ADD12C,0.508000*%
G04 #@! TD*
G04 #@! TA.AperFunction,Conductor*
%ADD13C,0.152400*%
G04 #@! TD*
G04 APERTURE END LIST*
G04 #@! TA.AperFunction,SMDPad,CuDef*
G36*
G01*
X151925000Y-83125000D02*
X151725000Y-83125000D01*
G75*
G02*
X151625000Y-83025000I0J100000D01*
G01*
X151625000Y-81750000D01*
G75*
G02*
X151725000Y-81650000I100000J0D01*
G01*
X151925000Y-81650000D01*
G75*
G02*
X152025000Y-81750000I0J-100000D01*
G01*
X152025000Y-83025000D01*
G75*
G02*
X151925000Y-83125000I-100000J0D01*
G01*
G37*
G04 #@! TD.AperFunction*
G04 #@! TA.AperFunction,SMDPad,CuDef*
G36*
G01*
X152575000Y-83125000D02*
X152375000Y-83125000D01*
G75*
G02*
X152275000Y-83025000I0J100000D01*
G01*
X152275000Y-81750000D01*
G75*
G02*
X152375000Y-81650000I100000J0D01*
G01*
X152575000Y-81650000D01*
G75*
G02*
X152675000Y-81750000I0J-100000D01*
G01*
X152675000Y-83025000D01*
G75*
G02*
X152575000Y-83125000I-100000J0D01*
G01*
G37*
G04 #@! TD.AperFunction*
G04 #@! TA.AperFunction,SMDPad,CuDef*
G36*
G01*
X153225000Y-83125000D02*
X153025000Y-83125000D01*
G75*
G02*
X152925000Y-83025000I0J100000D01*
G01*
X152925000Y-81750000D01*
G75*
G02*
X153025000Y-81650000I100000J0D01*
G01*
X153225000Y-81650000D01*
G75*
G02*
X153325000Y-81750000I0J-100000D01*
G01*
X153325000Y-83025000D01*
G75*
G02*
X153225000Y-83125000I-100000J0D01*
G01*
G37*
G04 #@! TD.AperFunction*
G04 #@! TA.AperFunction,SMDPad,CuDef*
G36*
G01*
X153875000Y-83125000D02*
X153675000Y-83125000D01*
G75*
G02*
X153575000Y-83025000I0J100000D01*
G01*
X153575000Y-81750000D01*
G75*
G02*
X153675000Y-81650000I100000J0D01*
G01*
X153875000Y-81650000D01*
G75*
G02*
X153975000Y-81750000I0J-100000D01*
G01*
X153975000Y-83025000D01*
G75*
G02*
X153875000Y-83125000I-100000J0D01*
G01*
G37*
G04 #@! TD.AperFunction*
G04 #@! TA.AperFunction,SMDPad,CuDef*
G36*
G01*
X154525000Y-83125000D02*
X154325000Y-83125000D01*
G75*
G02*
X154225000Y-83025000I0J100000D01*
G01*
X154225000Y-81750000D01*
G75*
G02*
X154325000Y-81650000I100000J0D01*
G01*
X154525000Y-81650000D01*
G75*
G02*
X154625000Y-81750000I0J-100000D01*
G01*
X154625000Y-83025000D01*
G75*
G02*
X154525000Y-83125000I-100000J0D01*
G01*
G37*
G04 #@! TD.AperFunction*
G04 #@! TA.AperFunction,SMDPad,CuDef*
G36*
G01*
X155175000Y-83125000D02*
X154975000Y-83125000D01*
G75*
G02*
X154875000Y-83025000I0J100000D01*
G01*
X154875000Y-81750000D01*
G75*
G02*
X154975000Y-81650000I100000J0D01*
G01*
X155175000Y-81650000D01*
G75*
G02*
X155275000Y-81750000I0J-100000D01*
G01*
X155275000Y-83025000D01*
G75*
G02*
X155175000Y-83125000I-100000J0D01*
G01*
G37*
G04 #@! TD.AperFunction*
G04 #@! TA.AperFunction,SMDPad,CuDef*
G36*
G01*
X155825000Y-83125000D02*
X155625000Y-83125000D01*
G75*
G02*
X155525000Y-83025000I0J100000D01*
G01*
X155525000Y-81750000D01*
G75*
G02*
X155625000Y-81650000I100000J0D01*
G01*
X155825000Y-81650000D01*
G75*
G02*
X155925000Y-81750000I0J-100000D01*
G01*
X155925000Y-83025000D01*
G75*
G02*
X155825000Y-83125000I-100000J0D01*
G01*
G37*
G04 #@! TD.AperFunction*
G04 #@! TA.AperFunction,SMDPad,CuDef*
G36*
G01*
X156475000Y-83125000D02*
X156275000Y-83125000D01*
G75*
G02*
X156175000Y-83025000I0J100000D01*
G01*
X156175000Y-81750000D01*
G75*
G02*
X156275000Y-81650000I100000J0D01*
G01*
X156475000Y-81650000D01*
G75*
G02*
X156575000Y-81750000I0J-100000D01*
G01*
X156575000Y-83025000D01*
G75*
G02*
X156475000Y-83125000I-100000J0D01*
G01*
G37*
G04 #@! TD.AperFunction*
G04 #@! TA.AperFunction,SMDPad,CuDef*
G36*
G01*
X157125000Y-83125000D02*
X156925000Y-83125000D01*
G75*
G02*
X156825000Y-83025000I0J100000D01*
G01*
X156825000Y-81750000D01*
G75*
G02*
X156925000Y-81650000I100000J0D01*
G01*
X157125000Y-81650000D01*
G75*
G02*
X157225000Y-81750000I0J-100000D01*
G01*
X157225000Y-83025000D01*
G75*
G02*
X157125000Y-83125000I-100000J0D01*
G01*
G37*
G04 #@! TD.AperFunction*
G04 #@! TA.AperFunction,SMDPad,CuDef*
G36*
G01*
X157775000Y-83125000D02*
X157575000Y-83125000D01*
G75*
G02*
X157475000Y-83025000I0J100000D01*
G01*
X157475000Y-81750000D01*
G75*
G02*
X157575000Y-81650000I100000J0D01*
G01*
X157775000Y-81650000D01*
G75*
G02*
X157875000Y-81750000I0J-100000D01*
G01*
X157875000Y-83025000D01*
G75*
G02*
X157775000Y-83125000I-100000J0D01*
G01*
G37*
G04 #@! TD.AperFunction*
G04 #@! TA.AperFunction,SMDPad,CuDef*
G36*
G01*
X157775000Y-88850000D02*
X157575000Y-88850000D01*
G75*
G02*
X157475000Y-88750000I0J100000D01*
G01*
X157475000Y-87475000D01*
G75*
G02*
X157575000Y-87375000I100000J0D01*
G01*
X157775000Y-87375000D01*
G75*
G02*
X157875000Y-87475000I0J-100000D01*
G01*
X157875000Y-88750000D01*
G75*
G02*
X157775000Y-88850000I-100000J0D01*
G01*
G37*
G04 #@! TD.AperFunction*
G04 #@! TA.AperFunction,SMDPad,CuDef*
G36*
G01*
X157125000Y-88850000D02*
X156925000Y-88850000D01*
G75*
G02*
X156825000Y-88750000I0J100000D01*
G01*
X156825000Y-87475000D01*
G75*
G02*
X156925000Y-87375000I100000J0D01*
G01*
X157125000Y-87375000D01*
G75*
G02*
X157225000Y-87475000I0J-100000D01*
G01*
X157225000Y-88750000D01*
G75*
G02*
X157125000Y-88850000I-100000J0D01*
G01*
G37*
G04 #@! TD.AperFunction*
G04 #@! TA.AperFunction,SMDPad,CuDef*
G36*
G01*
X156475000Y-88850000D02*
X156275000Y-88850000D01*
G75*
G02*
X156175000Y-88750000I0J100000D01*
G01*
X156175000Y-87475000D01*
G75*
G02*
X156275000Y-87375000I100000J0D01*
G01*
X156475000Y-87375000D01*
G75*
G02*
X156575000Y-87475000I0J-100000D01*
G01*
X156575000Y-88750000D01*
G75*
G02*
X156475000Y-88850000I-100000J0D01*
G01*
G37*
G04 #@! TD.AperFunction*
G04 #@! TA.AperFunction,SMDPad,CuDef*
G36*
G01*
X155825000Y-88850000D02*
X155625000Y-88850000D01*
G75*
G02*
X155525000Y-88750000I0J100000D01*
G01*
X155525000Y-87475000D01*
G75*
G02*
X155625000Y-87375000I100000J0D01*
G01*
X155825000Y-87375000D01*
G75*
G02*
X155925000Y-87475000I0J-100000D01*
G01*
X155925000Y-88750000D01*
G75*
G02*
X155825000Y-88850000I-100000J0D01*
G01*
G37*
G04 #@! TD.AperFunction*
G04 #@! TA.AperFunction,SMDPad,CuDef*
G36*
G01*
X155175000Y-88850000D02*
X154975000Y-88850000D01*
G75*
G02*
X154875000Y-88750000I0J100000D01*
G01*
X154875000Y-87475000D01*
G75*
G02*
X154975000Y-87375000I100000J0D01*
G01*
X155175000Y-87375000D01*
G75*
G02*
X155275000Y-87475000I0J-100000D01*
G01*
X155275000Y-88750000D01*
G75*
G02*
X155175000Y-88850000I-100000J0D01*
G01*
G37*
G04 #@! TD.AperFunction*
G04 #@! TA.AperFunction,SMDPad,CuDef*
G36*
G01*
X154525000Y-88850000D02*
X154325000Y-88850000D01*
G75*
G02*
X154225000Y-88750000I0J100000D01*
G01*
X154225000Y-87475000D01*
G75*
G02*
X154325000Y-87375000I100000J0D01*
G01*
X154525000Y-87375000D01*
G75*
G02*
X154625000Y-87475000I0J-100000D01*
G01*
X154625000Y-88750000D01*
G75*
G02*
X154525000Y-88850000I-100000J0D01*
G01*
G37*
G04 #@! TD.AperFunction*
G04 #@! TA.AperFunction,SMDPad,CuDef*
G36*
G01*
X153875000Y-88850000D02*
X153675000Y-88850000D01*
G75*
G02*
X153575000Y-88750000I0J100000D01*
G01*
X153575000Y-87475000D01*
G75*
G02*
X153675000Y-87375000I100000J0D01*
G01*
X153875000Y-87375000D01*
G75*
G02*
X153975000Y-87475000I0J-100000D01*
G01*
X153975000Y-88750000D01*
G75*
G02*
X153875000Y-88850000I-100000J0D01*
G01*
G37*
G04 #@! TD.AperFunction*
G04 #@! TA.AperFunction,SMDPad,CuDef*
G36*
G01*
X153225000Y-88850000D02*
X153025000Y-88850000D01*
G75*
G02*
X152925000Y-88750000I0J100000D01*
G01*
X152925000Y-87475000D01*
G75*
G02*
X153025000Y-87375000I100000J0D01*
G01*
X153225000Y-87375000D01*
G75*
G02*
X153325000Y-87475000I0J-100000D01*
G01*
X153325000Y-88750000D01*
G75*
G02*
X153225000Y-88850000I-100000J0D01*
G01*
G37*
G04 #@! TD.AperFunction*
G04 #@! TA.AperFunction,SMDPad,CuDef*
G36*
G01*
X152575000Y-88850000D02*
X152375000Y-88850000D01*
G75*
G02*
X152275000Y-88750000I0J100000D01*
G01*
X152275000Y-87475000D01*
G75*
G02*
X152375000Y-87375000I100000J0D01*
G01*
X152575000Y-87375000D01*
G75*
G02*
X152675000Y-87475000I0J-100000D01*
G01*
X152675000Y-88750000D01*
G75*
G02*
X152575000Y-88850000I-100000J0D01*
G01*
G37*
G04 #@! TD.AperFunction*
G04 #@! TA.AperFunction,SMDPad,CuDef*
G36*
G01*
X151925000Y-88850000D02*
X151725000Y-88850000D01*
G75*
G02*
X151625000Y-88750000I0J100000D01*
G01*
X151625000Y-87475000D01*
G75*
G02*
X151725000Y-87375000I100000J0D01*
G01*
X151925000Y-87375000D01*
G75*
G02*
X152025000Y-87475000I0J-100000D01*
G01*
X152025000Y-88750000D01*
G75*
G02*
X151925000Y-88850000I-100000J0D01*
G01*
G37*
G04 #@! TD.AperFunction*
D10*
X166740000Y-79902000D03*
X165470000Y-78124000D03*
X164200000Y-79902000D03*
X162930000Y-78124000D03*
X161660000Y-79902000D03*
X160390000Y-78124000D03*
X159120000Y-79902000D03*
X157850000Y-78124000D03*
X156580000Y-79902000D03*
X155310000Y-78124000D03*
X152770000Y-78124000D03*
X154040000Y-79902000D03*
D11*
X160516000Y-88274000D03*
X160516000Y-85226000D03*
X164516000Y-82964000D03*
X166294000Y-83980000D03*
X164516000Y-85250000D03*
X166294000Y-86520000D03*
X164516000Y-87790000D03*
D12*
X163842264Y-86842600D03*
X162396548Y-83681951D03*
X166116000Y-85598000D03*
X151130000Y-88646000D03*
X158496000Y-87249000D03*
X158496000Y-86283799D03*
X162915444Y-85242557D03*
X163334935Y-84297048D03*
X152695026Y-86445974D03*
X155561760Y-86920740D03*
X165001600Y-86360000D03*
X161040981Y-87307400D03*
X162052000Y-85344000D03*
X152052013Y-86231847D03*
X166878000Y-85217000D03*
X151892000Y-80772000D03*
X161925000Y-88519000D03*
X153425168Y-85779366D03*
X160274000Y-82423000D03*
X160070307Y-79832693D03*
X159766000Y-86614000D03*
X161798000Y-81153000D03*
X158569907Y-84499999D03*
X159807026Y-81956026D03*
X161061274Y-81254726D03*
X159131000Y-78232000D03*
X153355381Y-86438111D03*
X167513000Y-88265000D03*
X158496000Y-85598000D03*
X156916039Y-85997760D03*
X154218357Y-85640657D03*
D13*
X165971400Y-86842600D02*
X166294000Y-86520000D01*
X163842264Y-86842600D02*
X165971400Y-86842600D01*
X163605387Y-85250000D02*
X164516000Y-85250000D01*
X162396548Y-84041161D02*
X163605387Y-85250000D01*
X162396548Y-83681951D02*
X162396548Y-84041161D01*
X166116000Y-85598000D02*
X166116000Y-84158000D01*
X166116000Y-84158000D02*
X166294000Y-83980000D01*
X151291500Y-88646000D02*
X151825000Y-88112500D01*
X151130000Y-88646000D02*
X151291500Y-88646000D01*
X158393390Y-87146390D02*
X158496000Y-87249000D01*
X157253610Y-87146390D02*
X158393390Y-87146390D01*
X157025000Y-87375000D02*
X157253610Y-87146390D01*
X157025000Y-88112500D02*
X157025000Y-87375000D01*
X159553799Y-85226000D02*
X158496000Y-86283799D01*
X160516000Y-85226000D02*
X159553799Y-85226000D01*
X162534286Y-84861399D02*
X162915444Y-85242557D01*
X160880601Y-84861399D02*
X162534286Y-84861399D01*
X160516000Y-85226000D02*
X160880601Y-84861399D01*
X164516000Y-83115983D02*
X164516000Y-82964000D01*
X163334935Y-84297048D02*
X164516000Y-83115983D01*
X153125000Y-80817000D02*
X154040000Y-79902000D01*
X153125000Y-82387500D02*
X153125000Y-80817000D01*
X155075000Y-88112500D02*
X155075000Y-87407500D01*
X151396390Y-79497610D02*
X152770000Y-78124000D01*
X151396390Y-86573286D02*
X151396390Y-79497610D01*
X151537552Y-86714448D02*
X151396390Y-86573286D01*
X152426552Y-86714448D02*
X151537552Y-86714448D01*
X152695026Y-86445974D02*
X152426552Y-86714448D01*
X155075000Y-87407500D02*
X155561760Y-86920740D01*
X161988382Y-86359999D02*
X161040981Y-87307400D01*
X165001600Y-86360000D02*
X161988382Y-86359999D01*
X161000000Y-87790000D02*
X160516000Y-88274000D01*
X164516000Y-87790000D02*
X161000000Y-87790000D01*
X157836500Y-88274000D02*
X157675000Y-88112500D01*
X160516000Y-86880000D02*
X162052000Y-85344000D01*
X160516000Y-88274000D02*
X160516000Y-86880000D01*
X151825000Y-86004834D02*
X151825000Y-82387500D01*
X152052013Y-86231847D02*
X151825000Y-86004834D01*
X157675000Y-88112500D02*
X158208500Y-88646000D01*
X160144000Y-88646000D02*
X160516000Y-88274000D01*
X158208500Y-88646000D02*
X160144000Y-88646000D01*
X166842684Y-87790000D02*
X164516000Y-87790000D01*
X167272601Y-87360083D02*
X166842684Y-87790000D01*
X167272601Y-85611601D02*
X167272601Y-87360083D01*
X166878000Y-85217000D02*
X167272601Y-85611601D01*
X151892000Y-82320500D02*
X151825000Y-82387500D01*
X151892000Y-80772000D02*
X151892000Y-82320500D01*
X153775000Y-85429534D02*
X153425168Y-85779366D01*
X153775000Y-82387500D02*
X153775000Y-85429534D01*
X166544750Y-88519000D02*
X167281351Y-87782399D01*
X161925000Y-88519000D02*
X166544750Y-88519000D01*
X167487601Y-87782399D02*
X167696390Y-87573610D01*
X167281351Y-87782399D02*
X167487601Y-87782399D01*
X167696390Y-80858390D02*
X166740000Y-79902000D01*
X167696390Y-87573610D02*
X167696390Y-80858390D01*
X154425000Y-87375000D02*
X154425000Y-88112500D01*
X157782601Y-84017399D02*
X154425000Y-87375000D01*
X160515667Y-84017399D02*
X157782601Y-84017399D01*
X163652465Y-80880601D02*
X160515667Y-84017399D01*
X164882881Y-80880601D02*
X163652465Y-80880601D01*
X165470000Y-80293482D02*
X164882881Y-80880601D01*
X165470000Y-78124000D02*
X165470000Y-80293482D01*
X154155000Y-86995000D02*
X154373934Y-86995000D01*
X153775000Y-87375000D02*
X154155000Y-86995000D01*
X153775000Y-88112500D02*
X153775000Y-87375000D01*
X154373934Y-86995000D02*
X157656345Y-83712589D01*
X160389411Y-83712589D02*
X164200000Y-79902000D01*
X157656345Y-83712589D02*
X160389411Y-83712589D01*
X162930000Y-80735250D02*
X162930000Y-78124000D01*
X160257471Y-83407779D02*
X162930000Y-80735250D01*
X157277495Y-83407779D02*
X160257471Y-83407779D01*
X153125000Y-87560274D02*
X157277495Y-83407779D01*
X153125000Y-88112500D02*
X153125000Y-87560274D01*
X160358190Y-81203810D02*
X161660000Y-79902000D01*
X156821190Y-81203810D02*
X160358190Y-81203810D01*
X156375000Y-81650000D02*
X156821190Y-81203810D01*
X156375000Y-82387500D02*
X156375000Y-81650000D01*
X160390000Y-78124000D02*
X160390000Y-79110000D01*
X155725000Y-81835274D02*
X155725000Y-82387500D01*
X160147000Y-80899000D02*
X156661274Y-80899000D01*
X156661274Y-80899000D02*
X155725000Y-81835274D01*
X160655000Y-80391000D02*
X160147000Y-80899000D01*
X160655000Y-79375000D02*
X160655000Y-80391000D01*
X160390000Y-79110000D02*
X160655000Y-79375000D01*
X161798000Y-81258210D02*
X161798000Y-81153000D01*
X160070307Y-79832693D02*
X159189307Y-79832693D01*
X159189307Y-79832693D02*
X159120000Y-79902000D01*
X160633210Y-82423000D02*
X161798000Y-81258210D01*
X160274000Y-82423000D02*
X160633210Y-82423000D01*
X159613601Y-86766399D02*
X159766000Y-86614000D01*
X156983601Y-86766399D02*
X159613601Y-86766399D01*
X156375000Y-88112500D02*
X156375000Y-87375000D01*
X156375000Y-87375000D02*
X156983601Y-86766399D01*
X158569907Y-84626843D02*
X158569907Y-84499999D01*
X155725000Y-88112500D02*
X155725000Y-87471750D01*
X160613973Y-81702027D02*
X161061274Y-81254726D01*
X160061025Y-81702027D02*
X160613973Y-81702027D01*
X159807026Y-81956026D02*
X160061025Y-81702027D01*
X157958000Y-78232000D02*
X157850000Y-78124000D01*
X159131000Y-78232000D02*
X157958000Y-78232000D01*
X155525000Y-87671750D02*
X156337000Y-86859750D01*
X155525000Y-87912500D02*
X155525000Y-87671750D01*
X155725000Y-88112500D02*
X155525000Y-87912500D01*
X156337000Y-86859750D02*
X156337000Y-85894066D01*
X157731067Y-84499999D02*
X158569907Y-84499999D01*
X156337000Y-85894066D02*
X157731067Y-84499999D01*
X155075000Y-81407000D02*
X156580000Y-79902000D01*
X155075000Y-82387500D02*
X155075000Y-81407000D01*
X154425000Y-82387500D02*
X154425000Y-81178482D01*
X154425000Y-81178482D02*
X155310000Y-80293482D01*
X155310000Y-80293482D02*
X155310000Y-78124000D01*
X153355381Y-86392079D02*
X153355381Y-86438111D01*
X152475000Y-85511698D02*
X153355381Y-86392079D01*
X152475000Y-82387500D02*
X152475000Y-85511698D01*
X152475000Y-88850000D02*
X152703610Y-89078610D01*
X166699390Y-89078610D02*
X167513000Y-88265000D01*
X152475000Y-88112500D02*
X152475000Y-88850000D01*
X152703610Y-89078610D02*
X166699390Y-89078610D01*
X158096240Y-85997760D02*
X156916039Y-85997760D01*
X158496000Y-85598000D02*
X158096240Y-85997760D01*
X157025000Y-83193224D02*
X157025000Y-82387500D01*
X154577567Y-85640657D02*
X157025000Y-83193224D01*
X154218357Y-85640657D02*
X154577567Y-85640657D01*
M02*
